<?xml version="1.0" encoding="UTF-8"?>
<svg id="Layer_2" data-name="Layer 2" xmlns="http://www.w3.org/2000/svg" viewBox="0 0 120.11 120.22">
  <defs>
    <style>
      .cls-1 {
        fill: #84715a;
      }

      .cls-2 {
        fill: #d1c5ac;
      }

      .cls-3 {
        fill: #3e3220;
      }

      .cls-4 {
        fill: #bbae97;
      }

      .cls-5 {
        fill: #b8a892;
      }

      .cls-6 {
        fill: #d5c8b2;
      }

      .cls-7 {
        fill: #c7b89f;
      }

      .cls-8 {
        fill: #b5a58e;
      }

      .cls-9 {
        fill: #b4a58c;
      }

      .cls-10 {
        fill: #dacbb4;
      }

      .cls-11 {
        fill: #b5a58c;
      }

      .cls-12 {
        fill: #c3b59f;
      }

      .cls-13 {
        fill: #6f7c6f;
      }

      .cls-14 {
        fill: #d1c4ac;
      }

      .cls-15 {
        fill: #5a432d;
      }

      .cls-16 {
        fill: #6e5845;
      }

      .cls-17 {
        fill: #b6a891;
      }

      .cls-18 {
        fill: #9a8873;
      }

      .cls-19 {
        fill: #b7aa95;
      }

      .cls-20 {
        fill: #c4b6a0;
      }

      .cls-21 {
        fill: #4a2f1d;
      }

      .cls-22 {
        fill: #d0c5ac;
      }

      .cls-23 {
        fill: #cfc3ab;
      }

      .cls-24 {
        fill: #9aab9b;
      }

      .cls-25 {
        fill: #c6b69f;
      }

      .cls-26 {
        fill: #ab9c86;
      }

      .cls-27 {
        fill: #d2c3ac;
      }

      .cls-28 {
        fill: #636b5d;
      }

      .cls-29 {
        fill: #eae1c8;
      }

      .cls-30 {
        fill: #d2c6ad;
      }

      .cls-31 {
        fill: #baad94;
      }

      .cls-32 {
        fill: #cabda7;
      }

      .cls-33 {
        fill: #b1a690;
      }

      .cls-34 {
        fill: #e9dcc4;
      }

      .cls-35 {
        fill: #e2d6be;
      }

      .cls-36 {
        fill: #c2b8a1;
      }

      .cls-37 {
        fill: #dcd0b9;
      }

      .cls-38 {
        fill: #402614;
      }

      .cls-39 {
        fill: #9e8e78;
      }

      .cls-40 {
        fill: #c5b69d;
      }

      .cls-41 {
        fill: #cec0a9;
      }

      .cls-42 {
        fill: #cfc2ab;
      }

      .cls-43 {
        fill: #95826c;
      }

      .cls-44 {
        fill: #d5c7af;
      }

      .cls-45 {
        fill: #553f2b;
      }

      .cls-46 {
        fill: #b4a48e;
      }

      .cls-47 {
        fill: #94a798;
      }

      .cls-48 {
        fill: #6b5542;
      }

      .cls-49 {
        fill: #beb19a;
      }

      .cls-50 {
        fill: #d5c8b0;
      }

      .cls-51 {
        fill: #dbceb7;
      }

      .cls-52 {
        fill: #c3b39b;
      }

      .cls-53 {
        fill: #a4947d;
      }

      .cls-54 {
        fill: #65553c;
      }

      .cls-55 {
        fill: #bbad96;
      }

      .cls-56 {
        fill: #b6a68e;
      }

      .cls-57 {
        fill: #bbac94;
      }

      .cls-58 {
        fill: #cbbda4;
      }

      .cls-59 {
        fill: #6f7d6e;
      }

      .cls-60 {
        fill: #d5c9b5;
      }

      .cls-61 {
        fill: #dfd1ba;
      }

      .cls-62 {
        fill: #c1b39e;
      }

      .cls-63 {
        fill: #68523c;
      }

      .cls-64 {
        fill: #59422d;
      }

      .cls-65 {
        fill: #897761;
      }

      .cls-66 {
        fill: #b2a48d;
      }

      .cls-67 {
        fill: #b8a68f;
      }

      .cls-68 {
        fill: #c0b39b;
      }

      .cls-69 {
        fill: #baab93;
      }

      .cls-70 {
        fill: #b9aa97;
      }

      .cls-71 {
        fill: #c2b39d;
      }

      .cls-72 {
        fill: #c1b39c;
      }

      .cls-73 {
        fill: #d0c4ad;
      }

      .cls-74 {
        fill: #c4b69d;
      }

      .cls-75 {
        fill: #d4c8b1;
      }

      .cls-76 {
        fill: #b5a690;
      }

      .cls-77 {
        fill: #d3d7c2;
      }

      .cls-78 {
        fill: #7c9a8b;
      }

      .cls-79 {
        fill: #ccc0a8;
      }

      .cls-80 {
        fill: #422815;
      }

      .cls-81 {
        fill: #f0eedf;
      }

      .cls-82 {
        fill: #d2c5ac;
      }

      .cls-83 {
        fill: #b6a794;
      }

      .cls-84 {
        fill: #a29480;
      }

      .cls-85 {
        fill: #ae9f88;
      }

      .cls-86 {
        fill: #715c47;
      }

      .cls-87 {
        fill: #d4c7af;
      }

      .cls-88 {
        fill: #b9aa91;
      }

      .cls-89 {
        fill: #ae9f8a;
      }

      .cls-90 {
        fill: #c9bca5;
      }
    </style>
  </defs>
  <g id="Layer_1-2" data-name="Layer 1">
    <g>
      <rect class="cls-81" x=".09" y=".15" width="119.87" height="119.87" rx="20" ry="20"/>
      <path d="M99.96,120.03c-15.23.02-62.03.07-76.5.09C10.9,121.23.24,112.99,0,100.02c0-10.32.06-60.36.05-69.55.12-4.02-.33-9.96.32-13.9.83-4.57,3.28-8.84,6.86-11.82C10.81,1.77,15.44.1,20.09.08l55.64-.04s13.91,0,13.91,0c4.03.13,9.95-.33,13.91.34,9.36,1.55,16.64,10.3,16.53,19.78-.01,15.23-.04,62.03-.07,76.5,1.08,12.52-7.13,23.15-20.06,23.38h0ZM99.96,120.01c12.85-.25,21.07-10.88,19.94-23.35-.03-14.2-.05-61.55-.07-76.5.11-9.36-7.08-18.02-16.33-19.55-3.89-.65-9.85-.21-13.87-.34,0,0-13.91,0-13.91,0l-55.64-.04c-4.62.02-9.22,1.66-12.77,4.62C3.76,7.81,1.31,12.04.48,16.59c-.66,3.9-.22,9.85-.35,13.88.02,8.9.03,59.52.05,69.55.24,12.81,10.84,20.99,23.27,19.9,14.2.01,61.55.07,76.5.09h0Z"/>
    </g>
    <path class="cls-29" d="M24.65,15.28c.91.54,1.31,1.36,1.57,2.37.26.59.71.94,1.15,1.39.3.42.58.84.86,1.26,1.03,1.53,2.25,2.84,3.51,4.17.35.38.69.78,1.02,1.18,1.64,1.92,3.68,3.39,5.68,4.88.12.09.25.19.38.28.63.47,1.21.85,1.95,1.11v.4q.38.1.78.2v.4q.2.08.41.16c.79.33,1.54.74,2.3,1.14.58.28,1.15.49,1.76.68v.4c.12.03.25.07.38.1q.25.07.51.15c.16.05.33.09.5.14.56.21,1.03.49,1.54.79.72.39,1.48.62,2.25.88.18.06.36.12.54.18,2.7.89,5.44,1.66,8.19,2.37.19.05.37.1.57.15,1.16.29,2.32.52,3.5.71q.49.09,1.07.29v.4c.21.01.42.02.64.04,1.12.15,2.05.63,3.05,1.15.12.06.23.11.35.17,2.91,1.42,5.7,3.82,7.23,6.77q.13.45.19.79h.39c1.4,3.24,1.16,7.98.19,11.3q-.08.3-.16.6c-1.88,6.52-7.75,11.53-13.35,14.68-1.29.72-2.58,1.32-3.99,1.77-.18.06-.36.12-.55.18q-1.31.42-1.78.42v.4c-.22.04-.44.08-.67.12-.29.05-.58.11-.87.16-.15.03-.29.05-.44.08q-.72.08-1.32.43c-.96.21-1.93.35-2.9.5q-.22.03-.45.07c-2.98.45-5.93.54-8.94.5-.33,0-.67,0-1,0-.15,0-.3,0-.45-.02-1.04,0-1.56.29-2.3,1.03-.39.42-.75.84-1.09,1.3-.96,1.23-1.96,2.42-2.97,3.61-.29.34-.58.69-.86,1.04-1.92,2.32-3.94,4.53-6.06,6.67-.96,1-1.83,2.09-2.71,3.16,3.51-.35,6.84-.76,9.94-2.57.35-.2.71-.4,1.07-.59,1.71-.93,3.1-2.08,4.54-3.39.28-.25.57-.5.85-.74,1.28-1.15,2.37-2.38,3.42-3.75.48-.57.79-.84,1.53-.94.78.1,1.07.24,1.58.87.15.63.16,1.16,0,1.78q-.5.51-.82.74c-.39.29-.67.61-.99.99-.11.14-.23.27-.35.41-.12.15-.24.29-.37.44-3.05,3.61-6.99,6.77-11.47,8.33-.23.08-.46.16-.69.25-2.98,1.03-5.81,1.4-8.94,1.41-.14,0-.27,0-.41,0q-2.84.03-4.14-.67c-.5-.76-.52-1.08-.39-1.98.83-1.21,1.98-2.21,3.04-3.21.29-.27.57-.54.86-.81q.2-.19.4-.38c.32-.31.63-.62.93-.95q.41-.4.8-.4c.02-.12.04-.24.06-.36.22-.72.8-1.16,1.32-1.67.23-.23.46-.46.7-.69.11-.11.22-.22.34-.34.59-.6,1.13-1.25,1.66-1.89q1.44-1.71,2.31-2.43c.56-.46.76-.84,1-1.54.26-.2.52-.4.78-.59.2-.33.39-.66.58-.99.32-.33.65-.66.97-.99q.13-.23.27-.46c.35-.6.76-1.11,1.19-1.65.15-.19.3-.37.46-.57q.42-.5.73-.8t.55-.76c.47-.79,1.06-1.46,1.64-2.17.38-.5.69-.99,1-1.53.4-.61.81-1.21,1.22-1.82.29-.48.45-.81.53-1.36-.12-.02-.24-.04-.36-.06-1.09-.2-2.05-.5-3.06-.94-.66-.27-1.33-.43-2.02-.59v-.4q-.2-.07-.41-.14c-.67-.3-1.24-.7-1.83-1.13q-.88-.64-1.79-1.21c-.46-.29-.75-.58-1.09-1q-.17-.21-.35-.42c-.12-.15-.24-.3-.37-.45-.27-.31-.54-.63-.81-.94-.12-.14-.25-.28-.37-.43q-.36-.42-.78-.8c-.41-.45-.55-.83-.76-1.4-.22-.36-.45-.71-.68-1.07-.93-1.48-1.32-2.92-1.07-4.69q.3-.36.58-.59c-.27-.63-.59-1.05-1.07-1.53-.13-.14-.27-.27-.41-.41-.14-.14-.28-.28-.43-.42-.14-.14-.28-.28-.42-.42-.57-.57-1.14-1.14-1.72-1.71-1.02-1.11-1.66-2.56-1.98-4.03h-.39q-1.25-3.46-1.49-5-.05-.37-.26-.75c-.05-.59-.04-1.18-.05-1.77,0-.16,0-.33-.01-.5q0-.24,0-.48c0-.14,0-.29,0-.44.09-.51.25-.68.65-.98,1.21-.14,1.73.03,2.72.79.32.14.65.27.97.4q.29.2.58.4v.4h.39v.4q.32.09.66.19.7.21,1.09.41v.4q.58.1,1.17.2-.13-.16-.26-.32c-.11-.14-.22-.28-.33-.42-.11-.14-.22-.28-.33-.42q-.26-.42-.26-1.22c-.18-.04-.36-.08-.55-.12q-.61-.27-.91-.81-.1-.33-.21-.66c-.33-1-.72-1.87-1.24-2.78-.27-.5-.42-1.03-.59-1.57-.1-.09-.2-.18-.3-.27-.4-.46-.38-.92-.41-1.51q-.04-.41-.25-.78c-1.2-2.56-.55-7-.05-9.68.03-.17.06-.33.09-.51.41-1.99,1.23-3.56,3.45-3.13Z"/>
    <path class="cls-80" d="M24.65,15.28c.91.54,1.31,1.36,1.57,2.37.26.59.71.94,1.15,1.39.3.42.58.84.86,1.26,1.03,1.53,2.25,2.84,3.51,4.17.35.38.69.78,1.02,1.18,1.64,1.92,3.68,3.39,5.68,4.88.12.09.25.19.38.28.63.47,1.21.85,1.95,1.11v.4q.38.1.78.2v.4q.2.08.41.16c.79.33,1.54.74,2.3,1.14.58.28,1.15.49,1.76.68v.4c.12.03.25.07.38.1q.25.07.51.15c.16.05.33.09.5.14.56.21,1.03.49,1.54.79.72.39,1.48.62,2.25.88.18.06.36.12.54.18,2.7.89,5.44,1.66,8.19,2.37.19.05.37.1.57.15,1.16.29,2.32.52,3.5.71q.49.09,1.07.29v.4c.21.01.42.02.64.04,1.12.15,2.05.63,3.05,1.15.12.06.23.11.35.17,2.91,1.42,5.7,3.82,7.23,6.77q.13.45.19.79h.39c1.4,3.24,1.16,7.98.19,11.3q-.08.3-.16.6c-1.88,6.52-7.75,11.53-13.35,14.68-1.29.72-2.58,1.32-3.99,1.77-.18.06-.36.12-.55.18q-1.31.42-1.78.42v.4c-.22.04-.44.08-.67.12-.29.05-.58.11-.87.16-.15.03-.29.05-.44.08q-.72.08-1.32.43c-.96.21-1.93.35-2.9.5q-.22.03-.45.07c-2.98.45-5.93.54-8.94.5-.33,0-.67,0-1,0-.15,0-.3,0-.45-.02-1.04,0-1.56.29-2.3,1.03-.39.42-.75.84-1.09,1.3-.96,1.23-1.96,2.42-2.97,3.61-.29.34-.58.69-.86,1.04-1.92,2.32-3.94,4.53-6.06,6.67-.96,1-1.83,2.09-2.71,3.16,3.51-.35,6.84-.76,9.94-2.57.35-.2.71-.4,1.07-.59,1.71-.93,3.1-2.08,4.54-3.39.28-.25.57-.5.85-.74,1.28-1.15,2.37-2.38,3.42-3.75.48-.57.79-.84,1.53-.94.78.1,1.07.24,1.58.87.15.63.16,1.16,0,1.78q-.5.51-.82.74c-.39.29-.67.61-.99.99-.11.14-.23.27-.35.41-.12.15-.24.29-.37.44-3.05,3.61-6.99,6.77-11.47,8.33-.23.08-.46.16-.69.25-2.98,1.03-5.81,1.4-8.94,1.41-.14,0-.27,0-.41,0q-2.84.03-4.14-.67c-.5-.76-.52-1.08-.39-1.98.83-1.21,1.98-2.21,3.04-3.21.29-.27.57-.54.86-.81q.2-.19.4-.38c.32-.31.63-.62.93-.95q.41-.4.8-.4c.02-.12.04-.24.06-.36.22-.72.8-1.16,1.32-1.67.23-.23.46-.46.7-.69.11-.11.22-.22.34-.34.59-.6,1.13-1.25,1.66-1.89q1.44-1.71,2.31-2.43c.56-.46.76-.84,1-1.54.26-.2.52-.4.78-.59.2-.33.39-.66.58-.99.32-.33.65-.66.97-.99q.13-.23.27-.46c.35-.6.76-1.11,1.19-1.65.15-.19.3-.37.46-.57q.42-.5.73-.8t.55-.76c.47-.79,1.06-1.46,1.64-2.17.38-.5.69-.99,1-1.53.4-.61.81-1.21,1.22-1.82.29-.48.45-.81.53-1.36-.12-.02-.24-.04-.36-.06-1.09-.2-2.05-.5-3.06-.94-.66-.27-1.33-.43-2.02-.59v-.4q-.2-.07-.41-.14c-.67-.3-1.24-.7-1.83-1.13q-.88-.64-1.79-1.21c-.46-.29-.75-.58-1.09-1q-.17-.21-.35-.42c-.12-.15-.24-.3-.37-.45-.27-.31-.54-.63-.81-.94-.12-.14-.25-.28-.37-.43q-.36-.42-.78-.8c-.41-.45-.55-.83-.76-1.4-.22-.36-.45-.71-.68-1.07-.93-1.48-1.32-2.92-1.07-4.69q.3-.36.58-.59c-.27-.63-.59-1.05-1.07-1.53-.13-.14-.27-.27-.41-.41-.14-.14-.28-.28-.43-.42-.14-.14-.28-.28-.42-.42-.57-.57-1.14-1.14-1.72-1.71-1.02-1.11-1.66-2.56-1.98-4.03h-.39q-1.25-3.46-1.49-5-.05-.37-.26-.75c-.05-.59-.04-1.18-.05-1.77,0-.16,0-.33-.01-.5q0-.24,0-.48c0-.14,0-.29,0-.44.09-.51.25-.68.65-.98,1.21-.14,1.73.03,2.72.79.32.14.65.27.97.4q.29.2.58.4v.4h.39v.4q.32.09.66.19.7.21,1.09.41v.4q.58.1,1.17.2-.13-.16-.26-.32c-.11-.14-.22-.28-.33-.42-.11-.14-.22-.28-.33-.42q-.26-.42-.26-1.22c-.18-.04-.36-.08-.55-.12q-.61-.27-.91-.81-.1-.33-.21-.66c-.33-1-.72-1.87-1.24-2.78-.27-.5-.42-1.03-.59-1.57-.1-.09-.2-.18-.3-.27-.4-.46-.38-.92-.41-1.51q-.04-.41-.25-.78c-1.2-2.56-.55-7-.05-9.68.03-.17.06-.33.09-.51.41-1.99,1.23-3.56,3.45-3.13ZM24.07,20.83c-.08,3.51-.06,6.66,1.36,9.92.07.21.14.43.21.64.2.61.47,1.16.77,1.74h.39c.03.11.05.22.08.33.3,1.08.7,1.77,1.45,2.58.4.44.77.9,1.15,1.36,1.67,2.08,4.49,5.58,7.24,6.03v.4c.22.1.44.2.67.3,1.07.48,2.12.99,3.18,1.51.65.32,1.31.62,1.98.91q.59.26.78.46c.08.93-.06,1.42-.58,2.18-1.7-.14-3.17-.53-4.71-1.28-.81-.39-1.61-.67-2.48-.9-1.03-.28-1.95-.64-2.91-1.11-.75-.35-1.51-.66-2.27-.98-1.04-.43-2.02-.88-2.98-1.47-.43-.24-.87-.42-1.33-.59-1.02-.4-1.93-.95-2.86-1.53q-.44-.31-.87-.28c.13.83.39,1.56.69,2.34.09.23.18.46.27.7.07.17.14.35.21.53h.39c.05.17.1.34.15.52.97,2.68,3.71,5.75,6.07,7.22h.78v.4c.26.07.51.13.78.2v.4q.28.12.56.24c.25.11.49.21.74.32.12.05.24.1.37.16.54.23,1.04.47,1.53.79.65.37,1.33.53,2.05.69q1.45.34,2.02.58c.52.2.98.29,1.54.35.19.02.39.05.59.07.2.02.4.05.61.07q2.39.28,3.41.69c-.03.29-.06.57-.09.86q-.02.24-.05.48-.06.45-.26,1.04c-3.92.13-7.67-.43-11.48-1.31-.51-.11-1.02-.2-1.54-.28v-.4c-.74-.28-1.34-.44-2.14-.4.31.74.77,1.29,1.28,1.9.18.21.35.42.53.64.09.11.18.21.27.32.24.29.47.59.7.89,1.16,1.51,2.46,2.72,4.03,3.78h.78v.4c.11.02.22.03.34.05q.44.15.77.52c.54.52,1.04.7,1.74.95q1.21.44,1.42.66c1.63.53,3.37.47,5.06.47.48,0,.96,0,1.44.02,3.47.02,6.76-.75,9.79-2.53.85-.49,1.38-.74,2.36-.53.5.43.57.7.65,1.37q-.07.62-.46,1.05c-1.25.88-2.43,1.51-3.88,1.94v.4c-.18.02-.37.04-.56.06-.61.09-1.18.24-1.77.43-.78.25-1.52.41-2.33.5v.4c-.17,0-.34-.01-.51-.02-.63-.02-1.26-.02-1.89-.02-.27,0-.54,0-.82-.02q-1.67-.07-3.11.7c-.4.56-.73,1.12-1.06,1.73-.18.28-.36.55-.55.82-.16.24-.31.48-.47.73q-.12.18-.24.37c-.15.24-.31.48-.46.72-.22.33-.44.66-.67.99q-.38.52-.33,1.14c3.13.04,6.23.08,9.33-.4.14-.02.28-.04.42-.06,1.45-.23,2.81-.52,4.16-1.13.53-.22,1.05-.34,1.61-.46,1.08-.26,1.98-.69,2.96-1.22.69-.36,1.4-.65,2.13-.94q.39-.15.77-.35v-.4c.17-.05.33-.1.51-.15,1.95-.74,3.65-2.37,5.13-3.82.15-.14.3-.28.45-.42,2.29-2.21,3.93-5.1,4.99-8.11q.1-.25.21-.51c.85-3.22.18-6.86-1.28-9.78-.27-.44-.55-.82-.88-1.2-.09-.11-.18-.23-.28-.34-1.9-2.12-4.42-3.61-7.12-4.3-.88-.23-1.71-.51-2.56-.83-.95-.36-1.84-.6-2.84-.76-.81-.14-1.61-.32-2.42-.5q-.22-.05-.45-.1c-.64-.15-1.25-.3-1.88-.52q-.56-.21-1.3-.17v-.4c-.12-.02-.25-.04-.38-.07-1.05-.2-1.95-.47-2.93-.93-.28-.1-.57-.19-.85-.29-1.33-.44-2.58-1.06-3.83-1.71q-.38-.19-.79-.34c-1-.43-1.94-.98-2.9-1.5-.76-.41-1.51-.82-2.32-1.12v-.4q-.38-.1-.78-.2v-.4c-.19-.07-.38-.14-.57-.22-.93-.41-1.68-1.02-2.47-1.67-.15-.12-.31-.25-.47-.38-1.17-.95-2.29-1.93-3.37-2.99-.22-.22-.44-.44-.67-.65-1.75-1.7-3.29-3.45-4.72-5.43q-.8-1.13-1.72-2.15h-.39Z"/>
    <path class="cls-38" d="M88.4,19.64c.38.07.75.13,1.13.2,2.14.5,4.6,1.7,5.92,3.53.56.74,1.23,1.37,1.89,2.02q.76.76.97,1.2c1.22.58,2.48,1,3.79,1.3.86.2,1.4.43,2.04,1.08.48.41.85.63,1.45.87.74.34,1.13.69,1.66,1.31.12.12.23.25.35.37.34.62.31,1.11.23,1.81-.48.73-1.25.8-2.04.98-3.36.81-6.24,2.23-8.25,5.22-.33.56-.55,1.13-.79,1.74q-.11.19-.22.38c-.27.65-.3,1.3-.36,2h-.39c0,.12,0,.24,0,.36-.02,1.24-.04,2.48-.07,3.73,0,.46-.02.92-.02,1.39q-.12,6.79-.7,8.76c-.23.86-.39,1.73-.56,2.61q-.8,4.18-1.55,5.57c-.22.44-.39.88-.56,1.35-.36.96-.83,1.84-1.33,2.73-.22.43-.35.8-.44,1.28h-.39c-.05.14-.1.29-.16.43-1.26,3.05-3.83,5.55-6.06,7.9-.15.16-.3.32-.46.48-3.18,3.12-9.46,7.85-14.12,7.85-.06.2-.13.39-.19.59-.13.01-.25.03-.38.05q-3.2.37-6.36,1.02c-1.88.38-3.8.37-5.71.37-.45,0-.9,0-1.35.01-.29,0-.58,0-.86,0-.13,0-.27,0-.4,0-.92,0-1.57-.19-2.23-.87q-.04-.39-.05-.87c0-.16-.01-.31-.02-.48q.06-.44.28-.76c.53-.4.96-.36,1.62-.36.25,0,.51-.01.77-.02.27,0,.54,0,.81,0,3.5-.05,6.85-.44,10.26-1.2.16-.03.31-.07.47-.11,5.28-1.19,9.94-3.53,14.22-6.91.16-.13.33-.26.5-.39.52-.44.98-.9,1.45-1.4.16-.17.33-.34.49-.52,1.49-1.62,3.07-3.39,3.98-5.43h.39c.05-.17.1-.34.16-.52.23-.65.5-1.25.81-1.86h.39q.07-.39.13-.78c.15-.72.37-1.27.74-1.9.43-.73.63-1.37.78-2.21.09-.45.22-.85.37-1.28,1.47-4.41,1.72-8.99,1.78-13.61q.14-8.45,2.8-11.16c.06-.15.11-.31.17-.46.89-2.16,3.42-3.38,5.3-4.48.32-.19.63-.4.94-.61-.17-.04-.35-.09-.53-.13-2.14-.57-3.81-1.28-5.21-3.09q-.3-.39-.87-.74c-.12-.22-.23-.43-.35-.66-.41-.76-.95-1.24-1.63-1.74-.11-.08-.23-.17-.34-.26-.22-.17-.45-.33-.68-.5-.26-.19-.5-.39-.75-.59-2.15-1.67-5.3-1.95-7.91-1.62-2.56.49-4.59,1.53-6.58,3.24q-.42.33-1,.53v.4c-.32.34-.64.66-.97.99-.74.84-1.23,1.78-1.75,2.78-.07.13-.15.27-.22.41-.45.85-.7,1.66-.87,2.61q-.08.35-.27.55c-.11.65-.21,1.3-.3,1.95-.17,1.07-.49,1.65-1.25,2.41-.74.16-1.04.08-1.68-.33q-.46-.46-.58-.99c.04-1.83.41-3.47.9-5.22.07-.26.15-.53.22-.79.06-.2.11-.4.17-.6h.39q.05-.37.11-.76c.27-1.24.93-2.19,1.64-3.21q.17-.24.34-.49c.66-.91,1.37-1.65,2.22-2.38q.4-.34.88-.87t.92-.62c.53-.22.84-.47,1.27-.84,3.19-2.29,7.97-2.98,11.67-1.75Z"/>
    <path class="cls-78" d="M67.05,51.19c.32.25.63.51.94.78.13.11.27.23.4.35,1.47,1.37,2.05,3.1,2.16,5.1.02,1.23,0,2.32-.43,3.48-.04.15-.09.31-.13.46-1.03,3.39-3.64,6.26-6.28,8.46-.18.16-.37.32-.56.48q-.41.31-.8.31-.1.29-.19.59c-.33.15-.65.3-.99.44-.57.24-1.08.58-1.61.91-1.4.85-2.85,1.38-4.4,1.89-.41.14-.8.29-1.2.45-.58.22-1.13.38-1.74.49-.52.09-1,.2-1.5.38-2.6.87-5.66,1.24-8.39,1.2v.4h-.39v.4q5.49-.02,10.91-.84c.68-.13.91-.15,1.53.05-1.05.28-2.09.51-3.16.71-.13.02-.26.05-.4.08-2.19.4-4.38.44-6.6.42-.26,0-.52,0-.78,0-.63,0-1.26,0-1.89,0,.13-.75.28-1.2.73-1.81.12-.17.24-.34.36-.51.07-.1.14-.2.21-.3.54-.77,1.06-1.56,1.59-2.35.22-.33.44-.67.67-1,.1-.14.19-.29.29-.44q.23-.34.43-.54c.43-.03.86-.05,1.29-.06.13,0,.26,0,.39-.01.41-.01.83-.02,1.24-.04.28,0,.56-.02.84-.03.69-.02,1.38-.04,2.06-.06v-.4c.18-.04.37-.08.55-.12.24-.05.48-.1.73-.16.24-.05.48-.1.72-.15q.7-.15,1.33-.39t1.32-.18v-.4q.19-.06.39-.12c1.43-.47,2.85-1.11,3.88-2.26.08-.66.06-1.05-.21-1.66-.57-.49-1-.39-1.74-.32-.46.22-.87.45-1.3.72-2.51,1.48-5.44,2.28-8.33,2.29-.16,0-.32,0-.48,0-.33,0-.67,0-1,0-.5,0-1.01,0-1.51,0q-4.25.01-5.65-1.04c.54-.28.77-.11,1.34.07,1.17.35,2.31.46,3.52.52.05-.14.1-.29.16-.43.81-1.97,2.24-3.66,3.53-5.32.14-.18.28-.37.43-.56,1.15-1.46,2.39-2.84,3.65-4.2.16-.17.32-.35.49-.53,1.67-1.76,3.61-3.47,5.73-4.63h.78v-.4c2.15-.96,4.92-1.5,7.03-.19Z"/>
    <path class="cls-21" d="M88.2,28.76c.76.42,1.29.84,1.75,1.59.15.68.15,1.3,0,1.98-.52.69-1.26,1.32-2.12,1.44-.99.04-1.7-.05-2.48-.7-.52-.7-.54-1.48-.45-2.33.25-.87.65-1.32,1.43-1.77.7-.21,1.15-.32,1.87-.21Z"/>
    <path class="cls-68" d="M96.56,41.26c.27.54.18.93.13,1.54q-.02.31-.05.62-.09.62-.28,1.15c-.29.98-.29,1.96-.32,2.98q-.01.33-.02.66c-.05,1.54-.07,3.07-.04,4.61,0,.64,0,1.13-.2,1.74,0,.3,0,.6,0,.9q.02.84-.19,1.28c-.19.88-.32,1.77-.47,2.65-.11.5-.27.86-.5,1.31-.08.28-.15.56-.22.84q-.08.37-.17.74c-.22-.67-.17-1.12,0-1.8.04-.19.09-.38.13-.58.05-.2.09-.4.14-.6.05-.2.09-.4.14-.6q.33-1.43.48-1.97c.57-2.62.35-5.57.39-8.24.01-.58.02-1.16.03-1.74,0-.18,0-.35,0-.53.02-.88.07-1.72.24-2.58h.39c0-.25-.02-.49-.02-.74,0-.65.05-1.08.41-1.64Z"/>
    <path class="cls-57" d="M48.75,81.32v.2c-.96.26-1.91.22-2.89.22-.38,0-.76,0-1.14,0-.6,0-1.19,0-1.79,0-.58,0-1.16,0-1.73.01-.18,0-.35,0-.54,0-1.12.02-1.71.24-2.52,1.04-.41.46-.8.92-1.17,1.4-.15.19-.29.38-.45.57-.13.17-.27.34-.4.52-.19.22-.37.45-.56.67-.38.49-.68.98-1,1.51q-.3.36-.58.59h-.39c-.02.11-.03.23-.05.35-.19.58-.47.85-.92,1.24h-.39c-.04.11-.09.22-.13.33-.32.58-.75.99-1.23,1.45l-.39-.2c.08-.07.16-.15.24-.23.88-.87,1.65-1.81,2.42-2.78.43-.54.88-1.05,1.34-1.56.71-.8,1.38-1.63,2.03-2.47q2.05-2.6,2.89-2.73c.14,0,.28,0,.42,0,.16,0,.32,0,.48-.01.17,0,.34,0,.52,0,.18,0,.35,0,.54-.01.57-.01,1.13-.02,1.7-.03.38,0,.75-.02,1.13-.02,1.52-.03,3.04-.06,4.56-.05Z"/>
    <path class="cls-69" d="M65.85,85.48v.2c-.83.16-1.66.32-2.49.48-.23.05-.46.09-.7.14-2.58.49-5.11.61-7.73.66-.4,0-.8.02-1.21.03-.24,0-.47,0-.72.02q-.59,0-.95.46c-.11.61-.11,1.18,0,1.78q.45.52.97.79c-.5-.07-.89-.15-1.32-.41-.3-.49-.32-.96-.35-1.53.18-.69.56-1.18,1.09-1.63.56-.12.96-.16,1.51-.15.14,0,.29,0,.43,0,.46,0,.91,0,1.37,0,.46,0,.91,0,1.37-.01.28,0,.57,0,.85,0,.65,0,1.22-.04,1.85-.22h1.36c.55-.09,1.03-.22,1.55-.4,1.03-.15,2.07-.23,3.11-.2Z"/>
    <path class="cls-76" d="M30.29,91.43c.06.2.13.39.19.59-.1.09-.19.19-.29.28q-.19.19-.38.37c-.12.12-.25.24-.38.37q-.36.36-.51.96c-.3.26-.62.51-.94.76-.77.61-1.29,1.15-1.79,2.02-.26.33-.51.66-.78.99,1.45.05,2.85-.1,4.28-.4.06-.07.13-.13.19-.2.27-.07.55-.14.83-.2.16-.03.31-.07.48-.1.47-.1.95-.2,1.42-.29-1.21,1.44-4.24,1.57-6.02,1.78-.78.04-1.55.04-2.33,0,.28-.64.61-1.05,1.11-1.54.52-.51,1-1.03,1.47-1.59.71-.85,1.48-1.63,2.27-2.4.45-.45.83-.87,1.18-1.41Z"/>
    <path class="cls-33" d="M43.84,76.52q.34,0,.69.02c.17,0,.35.01.53.02v.2c-.93.19-1.78.21-2.72.2v.4h-.39v.4q5.49-.02,10.91-.84c.68-.13.91-.15,1.53.05-1.05.28-2.09.51-3.16.71q-.2.04-.4.08c-2.19.4-4.38.44-6.6.42-.26,0-.52,0-.78,0-.63,0-1.26,0-1.89,0q.15-.95.51-1.35c.61-.32,1.08-.3,1.77-.27Z"/>
    <path class="cls-39" d="M88.55,22.85c.15.04.29.08.44.12.95.29,1.48.66,2.12,1.43-.79-.18-1.49-.37-2.23-.71-.77-.32-1.41-.4-2.23-.48-.06-.07-.13-.13-.19-.2-.5-.03-1-.04-1.51-.04-.14,0-.28,0-.42,0-.82,0-1.41.11-2.15.44q-.48.04-.94.02c-.15,0-.31,0-.47-.01-.11,0-.23,0-.35-.01,1.78-1.82,5.76-1.15,7.93-.56Z"/>
    <path class="cls-55" d="M75.57,26.38c.19.07.38.13.58.2q-1.06,1.32-1.59,1.67c-.46.41-.58.87-.77,1.45-.29.79-.72,1.51-1.14,2.24h-.39c.04.11.08.22.12.33.1.61-.07.88-.32,1.45-.2.66-.39,1.32-.58,1.98h-.19q-.05-1.58.39-2.38c.05-.23.1-.46.15-.69.43-1.82,1.43-3.43,2.57-4.86.14-.2.29-.39.44-.59q.17-.2.34-.4h.39v-.4Z"/>
    <path class="cls-41" d="M92.28,44.43h.19c-.02,1.18-.04,2.35-.06,3.53,0,.4-.01.8-.02,1.2-.03,2.01-.08,4.02-.29,6.02-.01.15-.03.29-.04.44-.08.71-.19,1.29-.55,1.9-.16-.9-.22-1.6-.02-2.49.51-2.33.44-4.74.39-7.11-.01-1.23.11-2.29.41-3.48Z"/>
    <path class="cls-62" d="M84.25,18.65c1.61.06,3.16.18,4.72.57.13.03.26.06.39.1.66.18,1.12.36,1.55.92-.39-.06-.79-.11-1.18-.17-.22-.03-.44-.06-.66-.1q-.69-.13-1.3-.33c-1.02-.26-2.01-.27-3.06-.28-.21,0-.43,0-.65,0-1.82.03-3.32.41-5,1.08h-.39v-.4c.72-.42,1.34-.47,2.15-.53.12-.02.25-.04.37-.07.06-.13.13-.26.19-.4q.44-.08.97-.11c.73-.05,1.18-.29,1.88-.29Z"/>
    <path class="cls-5" d="M66.44,89.05c-.53.3-.99.46-1.59.56-.15.02-.3.05-.46.07q-.24.04-.48.07c-.31.05-.62.1-.94.15q-.21.03-.42.06-.39.06-.76.17c-.43.1-.8.12-1.23.12-.16,0-.32,0-.48,0-.17,0-.34,0-.52,0q-.26,0-.53,0c-.56,0-1.12,0-1.68,0-.38,0-.76,0-1.14,0-.93,0-1.86,0-2.79,0v-.2q.26,0,.52-.01,5.66-.08,11.22-1.08c.51-.1.8-.07,1.28.1Z"/>
    <path class="cls-46" d="M24.85,14.88q.47.47.78.99l.39.4h-.58c-.1-.13-.21-.26-.32-.4-.61-.53-1.02-.47-1.8-.44q-.45.04-1,.25c-.35.71-.52,1.47-.7,2.24-.05.21-.1.42-.15.64q-.06.24-.11.49h-.19c-.07-1.26.14-2.2.58-3.37h.39v-.59c.88-.23,1.82-.36,2.72-.2Z"/>
    <path class="cls-17" d="M46.42,89.45c0,.69-.12.82-.52,1.35-.11.14-.21.28-.33.42-.1.13-.21.27-.32.41q-.23.3-.46.61c-.64.73-1.34,1.34-2.06,1.97-.29.26-.58.52-.87.78-.23.2-.45.4-.68.61l-.39-.2q.13-.12.26-.24c1.92-1.81,3.75-3.61,5.38-5.71Z"/>
    <path class="cls-57" d="M75.57,85.68v.4c-.32.07-.64.13-.97.2-.06.2-.13.39-.19.59q-1.01.45-1.75.2l-.19.59q-.38.18-.85.32c-.15.05-.31.1-.47.14-.14.04-.29.08-.43.13l-.58.2q-.43-.19-.78-.4c.19-.06.38-.12.57-.19,1.59-.53,4.12-2.19,5.65-2.19Z"/>
    <path class="cls-65" d="M96.56,41.26c.48.98.07,2.51-.21,3.52-.06.15-.12.29-.18.45h-.39v4.56h-.19c0-.8,0-1.6-.01-2.4,0-.23,0-.45,0-.69,0-.22,0-.44,0-.67,0-.2,0-.4,0-.61.02-.61.11-1.18.22-1.78h.39c0-.25-.02-.49-.02-.74,0-.65.05-1.08.41-1.64Z"/>
    <path class="cls-20" d="M48.75,81.32v.2c-.96.26-1.92.23-2.9.23-.38,0-.76,0-1.15.01-.6,0-1.2.01-1.8.02-.58,0-1.16.01-1.74.02-.18,0-.36,0-.54,0-.84.02-1.27.04-2,.52-.12.13-.24.26-.37.39q.06-.37.19-.79c.59-.4.71-.45,1.37-.46.16,0,.32,0,.48-.01.17,0,.34,0,.52,0,.18,0,.35,0,.54-.01.57-.01,1.13-.02,1.7-.03.38,0,.75-.02,1.13-.02,1.52-.03,3.04-.06,4.56-.05Z"/>
    <path class="cls-73" d="M90.34,61.88c.27.74.1,1.08-.19,1.78-.06.29-.12.59-.17.88-.17.85-.51,1.38-1,2.09-.22.59-.41,1.18-.58,1.78-.19-.6-.2-.99-.04-1.6.03-.13.07-.27.1-.4q.13-.38.52-.97l.19-.59h.39c0-.13.01-.26.02-.4.07-1,.14-1.75.76-2.58Z"/>
    <path class="cls-49" d="M86.65,76.56c0,.87-.54,1.26-1.11,1.86q-.15.17-.31.34c-.62.67-1.25,1.32-1.89,1.97q-.23.26-.47.53c-.54.5-.96.67-1.66.86.57-.59,1.15-1.17,1.75-1.73.14-.13.28-.27.43-.41.29-.28.58-.55.87-.82.86-.82,1.65-1.66,2.4-2.59Z"/>
    <path class="cls-85" d="M55.94,80.13c-.69.47-1.21.68-2.03.78q-.3.04-.61.08t-.63.07-.62.08c-1.11.13-2.19.21-3.3.18v-.2q.23-.03.46-.07c.7-.1,1.39-.2,2.09-.31.24-.03.48-.07.73-.1.23-.03.47-.07.71-.1l.65-.09q.62-.11,1.25-.33c.55-.19.78-.19,1.31.02Z"/>
    <path class="cls-66" d="M63.13,77.15v.4h-.58c-.06.2-.13.39-.19.59q-.45.22-1.01.41c-.19.07-.39.13-.59.2-.18.06-.36.12-.54.18-.2.08-.4.16-.61.24-.76.22-1.52.29-2.31.36.43-.44.65-.5,1.23-.66,1.35-.39,3.3-1.72,4.6-1.72Z"/>
    <path class="cls-27" d="M95.78,45.22h.19c0,1.22.02,2.44.02,3.66,0,.42,0,.83,0,1.25,0,.6,0,1.2,0,1.79,0,.18,0,.37,0,.56,0,.97-.06,1.75-.43,2.66h-.19c.12-3.31.24-6.61.39-9.92Z"/>
    <path class="cls-47" d="M54.97,54.94l.39.2q-2.81,3.4-3.89,3.77c.28-.65.62-1.07,1.11-1.56q.21-.21.42-.43c.15-.14.29-.29.44-.44.15-.15.29-.3.44-.45.36-.36.72-.73,1.09-1.09Z"/>
    <path class="cls-43" d="M97.72,30.35c.89.11,1.68.3,2.53.59.71.2,1.42.4,2.14.59-.06.2-.13.39-.19.59l-.97.2.19-.4c-.19-.05-.37-.1-.56-.15-.24-.07-.49-.14-.74-.21-.24-.07-.48-.13-.73-.2-.63-.21-1.12-.44-1.66-.83v-.2Z"/>
    <path class="cls-48" d="M74.99,22.42l.39.2q-2.43,2.74-3.69,3.77c0-.81.24-.99.78-1.59.38-.36.78-.7,1.17-1.05.48-.42.92-.87,1.36-1.33Z"/>
    <path class="cls-11" d="M93.25,64.86c.13.2.26.39.39.59-.11.22-.22.43-.33.66-.5,1.02-.96,2.07-1.42,3.11h-.39l-.19,1.19h-.39c.21-.89.47-1.56.94-2.35.41-.79.69-1.64.99-2.47q.2-.53.4-.73Z"/>
    <path class="cls-45" d="M27.76,89.25c.13.2.26.39.39.59-.96.98-1.92,1.96-2.91,2.97l-.58-.2c.08-.08.16-.16.24-.25.36-.37.73-.74,1.09-1.11.13-.13.25-.25.38-.39.12-.12.24-.25.37-.37q.17-.17.34-.34.33-.35.68-.92Z"/>
    <path class="cls-20" d="M68.77,30.95q.19.4.1.76c-.05.14-.11.29-.16.43-.58,1.69-.79,3.38-.91,5.16h-.19c0-.62,0-1.23-.01-1.85,0-.17,0-.35,0-.53,0-.17,0-.34,0-.51,0-.15,0-.31,0-.47q.02-.41.22-1.01h.39c.03-.13.05-.25.08-.38.03-.16.07-.33.1-.5.03-.16.07-.33.1-.49q.1-.41.3-.61Z"/>
    <path class="cls-75" d="M83.54,18.65c.36.02.72.05,1.08.09q.29.03.6.06c.15.02.3.03.46.05v.2c-.22.02-.43.03-.66.05-1.88.17-3.57.5-5.36,1.13q-.6.2-.98.2v-.4c.72-.42,1.34-.47,2.15-.53.12-.02.25-.04.37-.07.06-.13.13-.26.19-.4q.44-.08.97-.11t1.17-.29Z"/>
    <path class="cls-8" d="M107.63,31.54c.19.13.38.26.58.4q.11.66,0,1.39c-.8.87-1.6,1.35-2.79,1.41-.43,0-.86,0-1.29-.02.8-.54,1.61-.64,2.54-.84q.59-.11.96-.55.05-.44.02-.92c0-.16,0-.32-.01-.49,0-.12,0-.25-.01-.38Z"/>
    <path class="cls-71" d="M84.39,22.59q.3,0,.6,0c.49,0,.98.01,1.46.02v.2c-.21,0-.43.02-.65.03-.28.01-.57.03-.85.04q-.21,0-.42.02c-.81.05-1.41.18-2.16.5q-.48.04-.94.02c-.15,0-.31,0-.47-.01-.11,0-.23,0-.35-.01,1.01-1.03,2.44-.84,3.77-.82Z"/>
    <path class="cls-4" d="M80.62,23.61c-.49.62-1.02.75-1.75.99-.06.13-.13.26-.19.4q-.36.13-.79.22c-.14.03-.29.07-.43.1-.11.02-.22.05-.33.07.85-.98,2.15-2.29,3.5-1.78Z"/>
    <path class="cls-67" d="M25.04,36.89c.19.07.38.13.58.2.13.33.26.66.39.99.26.33.52.66.78.99v.4q-.58-.1-1.17-.2v-.4c-.19-.07-.38-.13-.58-.2.13-.2.26-.39.39-.59q-.16-.63-.39-1.19Z"/>
    <path class="cls-7" d="M24.46,92.82l.19.4c-.09.08-.19.16-.29.25-.99.87-1.91,1.78-2.82,2.73l-.19-.59h.39v-.4h.39l.19-.59h.39c.05-.12.1-.25.15-.37.28-.49.51-.61,1.02-.82v-.4c.19-.07.38-.13.58-.2Z"/>
    <path class="cls-56" d="M77.51,58.91h.19c.16,1.83-.36,3.9-1.17,5.55h-.39q.53-2.04.79-2.78c.28-.91.42-1.84.57-2.78Z"/>
    <path class="cls-25" d="M77.71,54.54l.58.4c.02.55,0,1.05-.04,1.6,0,.15-.02.3-.03.45-.03.38-.08.75-.13,1.13-.13.07-.26.13-.39.2v-3.77Z"/>
    <path class="cls-16" d="M96.56,35.31l.19.4c-.46.99-1.23,1.77-1.94,2.58,0-1.04.5-1.74,1.2-2.45.18-.17.36-.34.55-.52Z"/>
    <path class="cls-90" d="M24.07,20.83q.87.45,1.17,1.19c-.26-.07-.51-.13-.78-.2-.06,1.24-.13,2.49-.19,3.77h-.19v-4.76Z"/>
    <path class="cls-31" d="M40.39,95.59l.39.2q-1.12.99-1.55.99c-.05.12-.1.25-.15.37-.29.5-.48.64-1.02.82q-.41-.09-.78-.2c.16-.11.32-.22.48-.33.21-.14.42-.28.63-.43.21-.14.41-.28.63-.43.47-.32.92-.65,1.36-1Z"/>
    <path class="cls-54" d="M26.99,53.95q.13.36.19.79-.14.12-.29.25-.35.34-.31.89c.02.21.05.41.07.62.02.2.04.41.06.62.07.54.17,1.06.28,1.59q-.39-.2-.61-.77c-.25-.99-.3-1.99-.17-3q.39-.63.78-.99Z"/>
    <path class="cls-35" d="M26.4,95.79l.39.2c-.45.52-.9,1.05-1.36,1.59l.39.59h-1.17c.28-1.06.99-1.66,1.75-2.38Z"/>
    <path class="cls-13" d="M47.72,71.15c.17,0,.35,0,.53.01.43,0,.86.02,1.28.04v.2c-.23,0-.45,0-.69,0-.3,0-.6.02-.9.03-.15,0-.3,0-.45,0-.85.03-1.17.08-1.85.66-.13.16-.25.32-.38.49q0-.59.17-1.03c.67-.6,1.43-.45,2.29-.41Z"/>
    <path class="cls-89" d="M104.14,34.91c-.36.18-.72.37-1.08.55-.33.17-.67.35-1,.52-.17.09-.34.18-.52.28-.16.09-.32.17-.49.26-.13.06-.27.11-.41.17l-.39-.2q2.97-2.05,3.89-1.59Z"/>
    <path class="cls-19" d="M34.37,99.56v.4c-.21.05-.42.11-.63.16q-.71.18-1.12.57t-1.12.2q-.31-.07-.63-.14c.62-.42,1.15-.6,1.86-.82.22-.07.45-.14.68-.21q.57-.16.96-.16Z"/>
    <path class="cls-52" d="M96.56,41.26c.48.98.07,2.51-.21,3.52-.06.15-.12.29-.18.45h-.19c.02-.51.05-1.02.07-1.54,0-.14.01-.29.02-.44.04-.75.09-1.35.49-1.99Z"/>
    <path class="cls-42" d="M71.1,35.7c.18.7.3,1.26.19,1.98-.66.76-.92.97-1.92,1.05-.2-.02-.4-.04-.61-.06v-.2q.32-.07.64-.15c.76-.26.95-.33,1.3-1.04.16-.53.27-1.05.39-1.59Z"/>
    <path class="cls-6" d="M27.57,89.05l.39.2c-.28.32-.56.65-.84.97q-.23.27-.47.54-.44.47-1.02.87c.06-.26.13-.52.19-.79h.39v-.4h.39c.05-.12.1-.24.16-.36.23-.43.46-.7.81-1.03Z"/>
    <path class="cls-12" d="M99.86,36.7l.39.2c-.24.74-.58.92-1.17,1.39l-.19.4q-.4.12-.78.2c.27-.64.6-1.06,1.09-1.54.12-.12.25-.24.37-.37q.14-.14.28-.28Z"/>
    <path class="cls-40" d="M90.34,61.88c.27.74.1,1.08-.19,1.78-.1.47-.19.94-.28,1.41-.04.12-.07.25-.11.37-.13.07-.26.13-.39.2.05-.44.1-.88.16-1.33.03-.25.06-.49.09-.75.14-.69.33-1.12.72-1.7Z"/>
    <path class="cls-72" d="M72.85,69.22q.12.36.19.79c-.56.69-1.17,1.16-1.94,1.59.28-.64.63-1.11,1.09-1.64.12-.14.25-.28.37-.42.09-.11.19-.21.28-.32Z"/>
    <path class="cls-60" d="M86.06,33.52h2.53q-.58.79-1.15.89-.6-.1-1.37-.89Z"/>
    <path class="cls-87" d="M72.07,32.53l.39.2c-.05.12-.1.25-.16.37-.32.85-.56,1.73-.81,2.6h-.19c-.09-1.29.13-2.07.78-3.17Z"/>
    <path class="cls-32" d="M87.03,28.51q1.66.01,2.33.45.26.52.39.99c-.09-.07-.18-.14-.27-.22-1.09-.79-1.91-.9-3.23-.77q.39-.4.78-.45Z"/>
    <path class="cls-26" d="M37.29,97.97v.4c-.3.16-.61.32-.91.48q-.25.13-.51.27c-.5.23-.95.35-1.49.43.29-.6.77-.72,1.35-1.02.21-.11.42-.21.64-.32q.54-.25.93-.25Z"/>
    <path class="cls-9" d="M78.1,84.29v.4c-.86.54-1.5.89-2.53.99q1.7-1.39,2.53-1.39Z"/>
    <path class="cls-28" d="M56.91,69.02l.39.2c-.19.07-.38.13-.58.2-.06.2-.13.39-.19.59l-2.72.4c.84-.57,1.52-.79,2.53-.79v-.4c.19-.07.38-.13.58-.2Z"/>
    <path class="cls-44" d="M91.7,53.95h.19c.01.45.02.89.02,1.34,0,.25,0,.5.01.75-.03.63-.1.96-.43,1.48-.23-1.29-.11-2.3.19-3.57Z"/>
    <path class="cls-23" d="M85.87,28.96l.39.2c-.19.07-.38.13-.58.2-.36.56-.45,1.05-.5,1.71q-.07.83-.28,1.26c-.36-.36-.36-.86-.42-1.35.05-.77.48-1.29,1-1.83l.39-.2Z"/>
    <path class="cls-86" d="M70.91,26.98c0,.98-.45,1.77-.97,2.58h-.39c.27-1.04.73-1.73,1.36-2.58Z"/>
    <path class="cls-58" d="M75.57,85.68v.4c-.32.07-.64.13-.97.2-.06.2-.13.39-.19.59q-.6.24-1.17.4c.24-.73.41-.78,1.06-1.13.16-.09.31-.17.47-.26q.41-.2.8-.2Z"/>
    <path class="cls-34" d="M78.1,55.93h.19c0,.41,0,.83.01,1.24,0,.23,0,.46,0,.7-.02.76-.17,1.32-.41,2.03h-.19q-.02-1.22,0-1.59c.06-.07.13-.13.19-.2.05-.37.08-.73.11-1.1.02-.2.03-.4.05-.61.01-.16.02-.31.04-.47Z"/>
    <path class="cls-83" d="M49.33,36.1l.19.4q.37.14.79.22c.14.03.29.07.43.1.11.02.22.05.33.07v.4l.58.2c-1.02-.16-2.17-.43-2.91-1.19.19-.07.38-.13.58-.2Z"/>
    <path class="cls-70" d="M41.56,32.73c.75-.07,1.08-.05,1.72.37.14.14.27.28.41.42v.4c-.88-.25-1.46-.58-2.14-1.19Z"/>
    <path class="cls-22" d="M75.57,26.38c.19.07.38.13.58.2-.19.23-.37.45-.56.68-.1.13-.21.25-.31.38q-.29.32-.68.52c.12-.59.24-.87.58-1.39h.39v-.4Z"/>
    <path class="cls-61" d="M40.24,81.49c.21,0,.42,0,.64.01q.24,0,.49.01v.2c-.14,0-.29.01-.43.02q-1.49.08-2.68.98.06-.37.19-.79c.69-.47.98-.44,1.79-.42Z"/>
    <path class="cls-36" d="M74.21,57.72h.19c.04,1.08.02,1.96-.39,2.97h-.19c-.04-1.07.1-1.94.39-2.97Z"/>
    <path class="cls-1" d="M31.65,57.92h1.55v.4q.28-.01.56-.02.61.02,1,.42c-1.09-.08-2.08-.18-3.11-.59v-.2Z"/>
    <path class="cls-10" d="M95.59,51.37h.19c.04.4.08.81.12,1.21.02.23.05.45.07.68,0,.71-.13,1.21-.38,1.87h-.19c.06-1.24.13-2.49.19-3.77Z"/>
    <path class="cls-74" d="M73.04,30.55l.19.4q-.26.52-.58.99h-.39c-.06.33-.13.65-.19.99q-.13-.34-.19-.79.24-.42.57-.84c.11-.14.22-.28.33-.42.09-.11.17-.21.26-.32Z"/>
    <path class="cls-79" d="M63.13,77.15v.4h-.58c-.06.2-.13.39-.19.59q-.6.24-1.17.4c.27-.83,1.04-1.39,1.94-1.39Z"/>
    <path class="cls-59" d="M44.86,72.59c.13.2.26.39.39.59q-.7.97-1.36,1.19c.24-.69.52-1.22.97-1.78Z"/>
    <path class="cls-88" d="M100.25,31.34c.71.07,1.41.13,2.14.2-.06.2-.13.39-.19.59-.32.07-.64.13-.97.2.06-.13.13-.26.19-.4-.38-.13-.77-.26-1.17-.4v-.2Z"/>
    <path class="cls-50" d="M22.71,94.21c.06.2.13.39.19.59l-1.36,1.39-.19-.59h.39v-.4h.39c.06-.2.13-.39.19-.59h.39v-.4Z"/>
    <path class="cls-15" d="M81.59,77.15l.39.2q-.97,1.3-1.94,1.59c.49-.64.99-1.22,1.55-1.78Z"/>
    <path class="cls-63" d="M65.27,71.8l.39.2q-.21.38-.58.79-.72.15-1.36.2c.51-.42,1.01-.82,1.55-1.19Z"/>
    <path class="cls-18" d="M76.54,50.38h.39c.31.7.43,1.22.39,1.98h-.39c-.13-.65-.26-1.31-.39-1.98Z"/>
    <path class="cls-30" d="M44.48,91.63q.4.09.78.2c-.32.34-.64.67-.97.99h-.39q.36-.97.58-1.19Z"/>
    <path class="cls-2" d="M41.76,89.45c.19.07.38.13.58.2-.45.46-.9.92-1.36,1.39-.06-.2-.13-.39-.19-.59.19-.07.38-.13.58-.2v-.4h.39v-.4Z"/>
    <path class="cls-53" d="M31.65,84.89q0,.59-.26.87c-.3.24-.61.48-.91.72q.29-1.12.8-1.46.18-.06.36-.12Z"/>
    <path class="cls-77" d="M47.97,76.36c-.46.43-.68.59-1.32.61-.19-.03-.38-.05-.57-.08-.19-.02-.38-.05-.58-.07-.15-.02-.29-.04-.44-.06v-.2c.3-.03.61-.07.91-.1.17-.02.34-.04.51-.06.5-.04.99-.05,1.49-.04Z"/>
    <path class="cls-84" d="M25.82,16.87q.58.2.97.79-.07.43-.19.79-.78-1.14-.78-1.59Z"/>
    <path class="cls-64" d="M37.87,93.41l.39.2c-.21.2-.43.41-.64.61-.12.11-.24.23-.36.34-.12.08-.23.16-.35.24-.19-.07-.38-.13-.58-.2.51-.39,1.03-.79,1.55-1.19Z"/>
    <path class="cls-37" d="M62.78,89.63c.18,0,.35,0,.53,0,.13,0,.27,0,.4,0v.2c-.24.03-.48.06-.73.09-.55.07-1.07.15-1.6.31-.06-.13-.13-.26-.19-.4.59-.2.98-.22,1.59-.21Z"/>
    <path class="cls-24" d="M50.31,59.9l.19.79c-.32.26-.64.52-.97.79,0-.78.29-1.01.78-1.59Z"/>
    <path class="cls-51" d="M73.43,23.41c.19.07.38.13.58.2q-.67.59-1.36,1.19c.19-.76.24-.91.78-1.39Z"/>
    <path class="cls-3" d="M60.61,65.65h.19q.05.56,0,1.19-.39.37-.78.59c.11-.66.26-1.2.58-1.78Z"/>
    <path class="cls-14" d="M93.25,64.86c.13.2.26.39.39.59q-.29.49-.58.99c-.18-.52-.22-.72-.01-1.24.07-.11.14-.23.21-.35Z"/>
    <path class="cls-82" d="M86.45,22.81h1.55v.59c-.46-.05-.91-.12-1.36-.2l-.19-.4Z"/>
  </g>
</svg>