<?xml version="1.0" encoding="UTF-8"?>
<svg id="Layer_2" data-name="Layer 2" xmlns="http://www.w3.org/2000/svg" viewBox="0 0 120.11 120.22">
  <defs>
    <style>
      .cls-1 {
        fill: #3c2510;
      }

      .cls-2 {
        fill: #36220f;
      }

      .cls-3 {
        fill: #382611;
      }

      .cls-4 {
        fill: #ece3c7;
      }

      .cls-5 {
        fill: #3a2a15;
      }

      .cls-6 {
        fill: #32200d;
      }

      .cls-7 {
        fill: #2f1e0a;
      }

      .cls-8 {
        fill: #33200c;
      }

      .cls-9 {
        fill: #b37956;
      }

      .cls-10 {
        fill: #311d0b;
      }

      .cls-11 {
        fill: #2d1c0b;
      }

      .cls-12 {
        fill: #b97f5c;
      }

      .cls-13 {
        fill: #614f39;
      }

      .cls-14 {
        fill: #3b2713;
      }

      .cls-15 {
        fill: #503f29;
      }

      .cls-16 {
        fill: #301d0a;
      }

      .cls-17 {
        fill: #cb7f5b;
      }

      .cls-18 {
        fill: #382715;
      }

      .cls-19 {
        fill: #45311a;
      }

      .cls-20 {
        fill: #3a2915;
      }

      .cls-21 {
        fill: #3f2d16;
      }

      .cls-22 {
        fill: #42301b;
      }

      .cls-23 {
        fill: #301e0b;
      }

      .cls-24 {
        fill: #4f3e26;
      }

      .cls-25 {
        fill: #392612;
      }

      .cls-26 {
        fill: #301c0a;
      }

      .cls-27 {
        fill: #efe5ca;
      }

      .cls-28 {
        fill: #2f1c0c;
      }

      .cls-29 {
        fill: #381d08;
      }

      .cls-30 {
        fill: #3c2a15;
      }

      .cls-31 {
        fill: #281604;
      }

      .cls-32 {
        fill: #5b4b35;
      }

      .cls-33 {
        fill: #2b1907;
      }

      .cls-34 {
        fill: #ede5c8;
      }

      .cls-35 {
        fill: #ddd1b7;
      }

      .cls-36 {
        fill: #402e19;
      }

      .cls-37 {
        fill: #301502;
      }

      .cls-38 {
        fill: #402d17;
      }

      .cls-39 {
        fill: #be7f5d;
      }

      .cls-40 {
        fill: #392715;
      }

      .cls-41 {
        fill: #33220f;
      }

      .cls-42 {
        fill: #4f3e2a;
      }

      .cls-43 {
        fill: #ba8765;
      }

      .cls-44 {
        fill: #523118;
      }

      .cls-45 {
        fill: #e2d8be;
      }

      .cls-46 {
        fill: #2a1807;
      }

      .cls-47 {
        fill: #402e1c;
      }

      .cls-48 {
        fill: #392713;
      }

      .cls-49 {
        fill: #2a190a;
      }

      .cls-50 {
        fill: #4c3a24;
      }

      .cls-51 {
        fill: #392712;
      }

      .cls-52 {
        fill: #4c3b24;
      }

      .cls-53 {
        fill: #392610;
      }

      .cls-54 {
        fill: #2e1c0a;
      }

      .cls-55 {
        fill: #261503;
      }

      .cls-56 {
        fill: #3b2915;
      }

      .cls-57 {
        fill: #422e17;
      }

      .cls-58 {
        fill: #f8edd2;
      }

      .cls-59 {
        fill: #412e19;
      }

      .cls-60 {
        fill: #271505;
      }

      .cls-61 {
        fill: #e3d6bd;
      }

      .cls-62 {
        fill: #372610;
      }

      .cls-63 {
        fill: #301d08;
      }

      .cls-64 {
        fill: #f5dbb9;
      }

      .cls-65 {
        fill: #c48867;
      }

      .cls-66 {
        fill: #472b12;
      }

      .cls-67 {
        fill: #341c0a;
      }

      .cls-68 {
        fill: #4d3b25;
      }

      .cls-69 {
        fill: #3a2913;
      }

      .cls-70 {
        fill: #3f2e1a;
      }

      .cls-71 {
        fill: #3a2712;
      }

      .cls-72 {
        fill: #2b1a07;
      }

      .cls-73 {
        fill: #412f19;
      }

      .cls-74 {
        fill: #2d1a0a;
      }

      .cls-75 {
        fill: #382714;
      }

      .cls-76 {
        fill: #c3906d;
      }

      .cls-77 {
        fill: #cb7e58;
      }

      .cls-78 {
        fill: #5a4832;
      }

      .cls-79 {
        fill: #481a08;
      }

      .cls-80 {
        fill: #392814;
      }

      .cls-81 {
        fill: #f4d4b2;
      }

      .cls-82 {
        fill: #2a1806;
      }

      .cls-83 {
        fill: #311f0c;
      }

      .cls-84 {
        fill: #2e1d0c;
      }

      .cls-85 {
        fill: #f0eedf;
      }

      .cls-86 {
        fill: #c97854;
      }

      .cls-87 {
        fill: #e6dbbd;
      }

      .cls-88 {
        fill: #46341f;
      }

      .cls-89 {
        fill: #45321c;
      }

      .cls-90 {
        fill: #291606;
      }

      .cls-91 {
        fill: #2f1e0c;
      }

      .cls-92 {
        fill: #f6d7b6;
      }

      .cls-93 {
        fill: #2f1d0a;
      }

      .cls-94 {
        fill: #a96d50;
      }

      .cls-95 {
        fill: #bc8665;
      }

      .cls-96 {
        fill: #c1906e;
      }
    </style>
  </defs>
  <g id="Layer_1-2" data-name="Layer 1">
    <g>
      <rect class="cls-85" x=".09" y=".15" width="119.87" height="119.87" rx="20" ry="20"/>
      <path d="M99.96,120.03c-15.23.02-62.03.07-76.5.09C10.9,121.23.24,112.99,0,100.02c0-10.32.06-60.36.05-69.55.12-4.02-.33-9.96.32-13.9.83-4.57,3.28-8.84,6.86-11.82C10.81,1.77,15.44.1,20.09.08c0,0,55.64-.04,55.64-.04h13.91c4.03.13,9.95-.33,13.91.33,9.36,1.55,16.64,10.3,16.53,19.78-.01,15.23-.04,62.03-.07,76.5,1.08,12.52-7.13,23.15-20.06,23.38h0ZM99.96,120.01c12.85-.25,21.07-10.88,19.94-23.35-.03-14.2-.05-61.55-.07-76.5.11-9.36-7.08-18.02-16.33-19.55-3.89-.65-9.85-.21-13.87-.34,0,0-13.91,0-13.91,0l-55.64-.04c-4.62.02-9.22,1.66-12.77,4.62C3.76,7.81,1.31,12.04.48,16.59c-.66,3.9-.22,9.85-.35,13.88.02,8.9.03,59.52.05,69.55.24,12.81,10.84,20.99,23.27,19.9,14.2.01,61.55.07,76.5.09h0Z"/>
    </g>
    <path class="cls-34" d="M67.24,12.03c1.77.6,2.37,1.62,3.22,3.28q.21.44.43.88c.15.3.3.59.45.89.36.73.72,1.45,1.08,2.18q.43-.5.88-1.01c.38-.44.76-.87,1.15-1.32q.57-.65,1.14-1.31c.35-.4.7-.79,1.06-1.2.25-.29.5-.58.76-.88q.65-.57,1.91-.66c.36.03.72.06,1.09.09.41,1.27.54,2.08.59,3.39q.06,4.14,1.62,7.77c.65.41,1.31.8,1.98,1.17,1.72,1.25,2.28,3.25,3.12,5.18.67,1.31,1.08,1.78,2.27,2.53,1.49,1.46,1.47,1.95,1.56,4.02-.18,3.36-1.22,5.35-3.5,7.7-1.37,1.26-2.68,2.21-4.35,3.02-.24,3.17.45,5.67,1.42,8.67,1.79,5.76.96,10.86-.95,16.45-.34,1.07-.67,2.15-1,3.23q-.22.71-.44,1.42c-1.14,4.24-1.57,8.27-1.61,12.67-.02.54-.04,1.08-.06,1.63-.01,1.47,0,2.79.29,4.23q1.29,1.29,2.82,1.93c1.1,1.7,1.17,2.35.94,4.35q-.76,1.28-1.88,2.42-1.43.3-3.09.29c-.6,0-1.2,0-1.82,0q-.47-.01-.94-.02c-.95-.02-1.89-.02-2.84-.02q-5.06-.05-7.32-1.69c-.14.31-.27.62-.41.94q-.53,1-1.47,1.48c-.94.04-1.88.04-2.83.03-.59,0-1.19-.01-1.8-.02-.65,0-1.31-.02-1.96-.03-.67,0-1.34-.02-2.01-.02-1.41-.02-2.82-.04-4.23-.06-1.79-.03-3.59-.04-5.38-.06-1.39-.01-2.78-.03-4.17-.05-.66,0-1.32-.02-1.98-.02-6.62-.05-12.77-.92-17.85-5.6-4.02-4.35-5.16-9.7-5.04-15.47.3-5.63,3.12-10.61,5.92-15.32,1.53-2.73,2.63-5.06,2.27-8.3q-.64-1.16-1.41-1.93c-1.76.24-2.74.42-4.24,1.45q-1.35.24-2.82,0c-1.15-1.03-1.72-1.55-2.35-2.9-.08-2.17.32-3.15,1.5-4.95,2.21-2.21,3.86-2.87,6.91-2.99,3.18.1,5.26.79,7.58,3.05,3.21,3.58,3.6,6.76,3.48,11.49-.29,4.8-2.97,8.87-5.29,12.92-2.41,4.23-2.82,7.96-2.41,12.85.6,2.32,1.48,3.53,3.29,5.04,1.16.62,2.04.95,3.29,1.24-.07-.29-.13-.58-.2-.88-1.93-9.08-1.06-18.05,3.51-26.17,3.84-5.99,9.33-10.18,15.29-13.75,2.61-1.6,4.59-3.42,5.4-6.54.12-1.99.19-3.96-.23-5.91-1.17-6.5-.21-12.66,2.11-18.73.19-.53.38-1.06.58-1.61,1.53-4.05,3.35-7.97,6.95-10.46Z"/>
    <path class="cls-48" d="M67.24,12.03c1.77.6,2.37,1.62,3.22,3.28q.21.44.43.88c.15.3.3.59.45.89.36.73.72,1.45,1.08,2.18q.43-.5.88-1.01c.38-.44.76-.87,1.15-1.32q.57-.65,1.14-1.31c.35-.4.7-.79,1.06-1.2.25-.29.5-.58.76-.88q.65-.57,1.91-.66c.36.03.72.06,1.09.09.41,1.27.54,2.08.59,3.39q.06,4.14,1.62,7.77c.65.41,1.31.8,1.98,1.17,1.72,1.25,2.28,3.25,3.12,5.18.67,1.31,1.08,1.78,2.27,2.53,1.49,1.46,1.47,1.95,1.56,4.02-.18,3.36-1.22,5.35-3.5,7.7-1.37,1.26-2.68,2.21-4.35,3.02-.24,3.17.45,5.67,1.42,8.67,1.79,5.76.96,10.86-.95,16.45-.34,1.07-.67,2.15-1,3.23q-.22.71-.44,1.42c-1.14,4.24-1.57,8.27-1.61,12.67-.02.54-.04,1.08-.06,1.63-.01,1.47,0,2.79.29,4.23q1.29,1.29,2.82,1.93c1.1,1.7,1.17,2.35.94,4.35q-.76,1.28-1.88,2.42-1.44.31-3.12.32c-.6,0-1.21,0-1.83,0q-.47,0-.95-.02c-.96-.01-1.91,0-2.87.02-.6,0-1.21,0-1.83,0-.55,0-1.1,0-1.67,0q-1.38-.31-2.22-1.38c-3.83-9.04-6.55-19.93-6.22-29.84h1.88c.52,1.07.59,1.8.69,2.98.58,5.79,1.62,11.31,3.1,16.91.08.32.17.64.25.97q1.02,3.91,2.54,7.64h5.65c-.16-.8-.31-1.59-.47-2.42-.46-.18-.91-.36-1.38-.54q-1.44-.91-1.78-1.97c-.51-3.22-.78-6.36-.78-9.63q0-.72,0-1.45c.06-4.46.55-9.41,2.53-13.47.62.16,1.24.32,1.88.48q-.47,3.59-.94,7.25c5.41-6.29,8.05-11.59,7.65-20.11-.23-2.26-.9-4.38-1.63-6.52-.79-2.34-1.07-4.23-.84-6.71q.64-.96,1.5-1.6c.3-.23.6-.46.91-.7.7-.47,1.42-.9,2.15-1.32,1.54-1.02,2.16-1.93,2.97-3.62.35-1.7.39-3.14,0-4.83-.72-1.11-1.52-1.99-2.45-2.92-.87-.96-1.33-1.8-1.85-2.99-1.15-2.53-2.71-3.61-5.24-4.56-2.15-.68-4.23-.93-6.47-1.12-.04.28-.09.57-.13.86-.81,2.57-3.75,4.35-5.96,5.63-2.03.97-3.95.94-6.15.75-.49,2.05-.53,3.99-.53,6.1,0,.63,0,1.27,0,1.92q-.01,1.64.53,3.09c.29,4.07.55,8.15-1.88,11.59-2.51,2.97-5.76,4.88-9,6.9-6.86,4.33-11.21,10.22-13.18,18.3-.52,2.55-.55,5.04-.53,7.64,0,.45,0,.9-.01,1.37,0,2.57.23,4.9.86,7.39.26,1.12.28,2.18.21,3.32-3.11.27-5.43-.04-8-1.93-2.63-2.42-3.98-5.08-4.4-8.67-.28-6.19,2.33-10.9,5.26-16.09,2.3-4.13,3.54-8.1,2.91-12.92-.78-2.59-1.99-4.32-4.24-5.8-1.49-.51-2.61-.58-4.18-.6-.48-.01-.97-.02-1.47-.04-1.63.18-2.49.57-3.77,1.61q-.42,1.74-.47,3.38,1.94-.27,3.76-.97,2.43-.24,3.76,0,1.38,1.18,2.35,2.42l.47.48c.65,4.78-.52,8.02-2.8,12.13-.89,1.64-1.71,3.31-2.53,4.99-.16.31-.32.63-.48.95-2.35,4.75-2.95,9.21-1.46,14.35,1.79,4.91,4.2,7.38,8.83,9.55,2.01.84,3.52,1.08,5.68,1.11.3,0,.61,0,.92.01,1,.02,2,.03,3,.04.69,0,1.39.02,2.08.03,1.83.03,3.65.05,5.48.07,1.86.02,3.73.05,5.59.08,3.66.05,7.31.1,10.97.15-.16-.96-.31-1.91-.47-2.9-4.04-.16-8.08-.32-12.24-.48l-.47-1.93q.73-.19,1.47-.39c2.85-.85,4.84-1.84,6.53-4.44,1.49-3.16,1.48-7.03.63-10.39-1.03-2.39-2.65-3.83-4.87-5.06-1.42-.48-2.61-.63-4.09-.75-.47-.04-.94-.08-1.42-.12-.36-.03-.71-.06-1.08-.09v-1.93c3.85-.3,6.84-.47,9.96,2.08.28.27.57.54.86.82.24.23.48.45.73.68,2.36,2.55,3.1,5.77,3.24,9.19-.1,3.32-1.03,6.25-3.15,8.78-.27.22-.54.44-.82.66q.47.06.95.13c2.75.45,4.33.9,6.11,3.25.65,1.34.56,2.38.47,3.86-.31.48-.62.96-.94,1.45q-1.24.18-2.83.19c-.59,0-1.19,0-1.8.01-.65,0-1.31,0-1.96,0-.67,0-1.34,0-2.01,0-1.41,0-2.82,0-4.23,0-1.79,0-3.59,0-5.38,0-1.39,0-2.78,0-4.17,0-.66,0-1.32,0-1.98,0-6.63.03-12.76-.85-17.85-5.54-4.02-4.35-5.16-9.7-5.04-15.47.3-5.63,3.12-10.61,5.92-15.32,1.53-2.73,2.63-5.06,2.27-8.3q-.64-1.16-1.41-1.93c-1.76.24-2.74.42-4.24,1.45q-1.35.24-2.82,0c-1.15-1.03-1.72-1.55-2.35-2.9-.08-2.17.32-3.15,1.5-4.95,2.21-2.21,3.86-2.87,6.91-2.99,3.18.1,5.26.79,7.58,3.05,3.21,3.58,3.6,6.76,3.48,11.49-.29,4.8-2.97,8.87-5.29,12.92-2.41,4.23-2.82,7.96-2.41,12.85.6,2.32,1.48,3.53,3.29,5.04,1.16.62,2.04.95,3.29,1.24-.07-.29-.13-.58-.2-.88-1.93-9.08-1.06-18.05,3.51-26.17,3.84-5.99,9.33-10.18,15.29-13.75,2.61-1.6,4.59-3.42,5.4-6.54.12-1.99.19-3.96-.23-5.91-1.17-6.5-.21-12.66,2.11-18.73.19-.53.38-1.06.58-1.61,1.53-4.05,3.35-7.97,6.95-10.46Z"/>
    <path class="cls-14" d="M80.42,14.44h.47c.02.59.05,1.19.07,1.8q.08,4.21,1.67,7.91c.65.41,1.31.8,1.98,1.16,1.72,1.25,2.28,3.25,3.12,5.18.67,1.31,1.08,1.78,2.27,2.53,1.49,1.46,1.47,1.95,1.56,4.02-.18,3.36-1.22,5.35-3.5,7.7-1.37,1.26-2.68,2.21-4.35,3.02-.24,3.17.45,5.67,1.42,8.67,1.79,5.76.96,10.86-.95,16.45-.34,1.07-.67,2.15-1,3.23-.15.47-.29.94-.44,1.42-1.14,4.24-1.57,8.27-1.61,12.67-.02.54-.04,1.08-.06,1.63-.01,1.47,0,2.79.29,4.23q1.29,1.29,2.82,1.93c1.1,1.7,1.17,2.35.94,4.35q-.76,1.28-1.88,2.42-1.44.31-3.12.32c-.6,0-1.21,0-1.83,0q-.47,0-.95-.02c-.96-.01-1.91,0-2.87.02-.6,0-1.21,0-1.83,0-.55,0-1.1,0-1.67,0q-1.38-.31-2.22-1.38c-3.83-9.04-6.55-19.93-6.22-29.84h1.88c.52,1.07.59,1.8.69,2.98.58,5.79,1.62,11.31,3.1,16.91.08.32.17.64.25.97q1.02,3.91,2.54,7.64h5.65q-.23-1.2-.47-2.42-.68-.27-1.38-.54-1.44-.91-1.78-1.97c-.51-3.22-.78-6.36-.78-9.63q0-.72,0-1.45c.06-4.46.55-9.41,2.53-13.47.62.16,1.24.32,1.88.48-.31,2.39-.62,4.78-.94,7.25,5.41-6.29,8.05-11.59,7.65-20.11-.23-2.26-.9-4.38-1.63-6.52-.79-2.34-1.07-4.23-.84-6.71q.64-.96,1.5-1.6c.3-.23.6-.46.91-.7.7-.47,1.42-.9,2.15-1.32,1.54-1.02,2.16-1.93,2.97-3.62.35-1.7.39-3.14,0-4.83-.72-1.11-1.52-1.99-2.45-2.92-.87-.96-1.33-1.8-1.85-2.99-1.15-2.53-2.71-3.61-5.24-4.56-2.15-.68-4.23-.93-6.47-1.12-.04.28-.09.57-.13.86-.81,2.57-3.75,4.35-5.96,5.63-2.03.97-3.95.94-6.15.75q1.81-8.16,3.76-11.59h.47c.16,3.19.31,6.38.47,9.66h.94q-.01-.41-.02-.83c-.03-1.25-.05-2.51-.07-3.76-.01-.43-.02-.86-.04-1.3-.03-2.9.39-4.99,1.54-7.64,1.38,1.33,2.08,2.68,2.91,4.44.25.52.5,1.05.76,1.59.19.4.37.8.57,1.22h2.82c-.12-.27-.24-.53-.36-.81q-.11-1.12.74-2.37.59-.64,1.18-1.29c.39-.43.77-.86,1.17-1.31q1.03-.99,1.98-.99.23,1.2.47,2.42c.31-1.28.62-2.55.94-3.86Z"/>
    <path class="cls-1" d="M67.24,12.03c1.77.6,2.37,1.62,3.22,3.28q.21.44.43.88c.15.3.3.59.45.89.36.73.72,1.45,1.08,2.18q.43-.5.88-1.01c.38-.44.76-.87,1.15-1.32q.57-.65,1.14-1.31c.35-.4.7-.79,1.06-1.2.25-.29.5-.58.76-.88q.65-.57,1.91-.66c.36.03.72.06,1.09.09.03.69.04,1.39.06,2.08.01.39.02.77.03,1.17q-.09,1.09-1.03,2.54-.47-.48-.5-1.72c0-.39.02-.78.03-1.18q-2.66,2.13-4.71,4.83v1.93q.7.24,1.41.48h-4.24c-1.24-2.39-2.48-4.78-3.76-7.25q-1.3,2.95-1.65,5.82-.03.64-.05,1.29c-.01.43-.02.86-.03,1.31-.02.45-.03.89-.05,1.35-.04,1.09-.07,2.18-.1,3.27h-.94c-.75-1.53-.65-3.2-.74-4.89-.02-.36-.04-.73-.06-1.1-.05-.9-.1-1.8-.14-2.7-1.38,2.79-2.13,5.35-2.59,8.43q-.24,1.23-1,2.8c-1.11,3.12-1.2,7.34-.18,10.51.29,4.07.55,8.15-1.88,11.59-2.51,2.97-5.76,4.88-9,6.9-6.8,4.29-11.11,10.06-13.09,18.06-.77,3.74-1.24,7.45-1.44,11.27h-.47c-.17-1.36-.34-2.72-.5-4.08-.05-.38-.1-.76-.15-1.15-.84-7.21,1.64-13.17,5.82-18.93,3.33-4.07,7.58-6.92,11.93-9.71,2.78-1.81,4.66-3.08,5.95-6.23.16-.32.31-.64.47-.97.05-.77.06-1.55.06-2.32,0-.41,0-.82,0-1.25q-.03-1.24-.29-2.34c-1.18-6.49-.21-12.66,2.11-18.72.19-.53.38-1.06.58-1.61,1.53-4.05,3.35-7.97,6.95-10.46Z"/>
    <path class="cls-53" d="M47.95,74.34c3.85-.3,6.84-.47,9.96,2.08.28.27.57.54.86.82.24.23.48.45.73.68,2.36,2.55,3.1,5.77,3.24,9.19-.1,3.32-1.03,6.25-3.15,8.78q-.41.33-.82.66c.31.04.62.08.95.13,2.75.45,4.33.9,6.11,3.25.65,1.34.56,2.38.47,3.86-.31.48-.62.96-.94,1.45q-1.27.17-2.91.16c-.61,0-1.22,0-1.86,0-.67,0-1.34-.01-2.01-.02-.68,0-1.37,0-2.05,0-1.8,0-3.61-.02-5.41-.04-1.84-.01-3.68-.02-5.52-.03-3.61-.02-7.22-.04-10.83-.07-.16-.32-.31-.64-.47-.97q8.15-.24,16.47-.48c-4.81-.16-9.63-.32-14.59-.48v-.48h27.77q-.23-1.43-.47-2.9-6.06-.24-12.24-.48l-.47-1.93c.49-.13.97-.26,1.47-.39,2.85-.85,4.84-1.84,6.53-4.44,1.49-3.16,1.48-7.03.63-10.39-1.03-2.39-2.65-3.83-4.87-5.06-1.42-.48-2.61-.63-4.09-.75-.47-.04-.94-.08-1.42-.12q-.54-.04-1.08-.09v-1.93Z"/>
    <path class="cls-8" d="M25.83,56.46q1.38,1.18,2.35,2.42l.47.48c.65,4.78-.52,8.02-2.8,12.13-.89,1.64-1.71,3.31-2.53,4.99-.16.31-.32.63-.48.95-2.35,4.75-2.95,9.21-1.46,14.35,1.73,4.74,4.08,7.3,8.51,9.51,4.21,1.54,8.38,1.7,12.82,1.74.61,0,1.22.02,1.85.03,1.6.02,3.21.04,4.81.06,1.64.02,3.29.04,4.93.07,3.21.05,6.43.09,9.64.12v.48c-4.07.18-8.15.35-12.23.5-1.89.07-3.79.15-5.68.23-1.83.08-3.66.15-5.49.22-.69.03-1.39.06-2.08.09-5.45.27-9.86-.5-14.23-4.06-3.57-3.51-6.05-7.93-6.21-13.06.02-7.14,2.42-12.59,5.99-18.61,1.53-2.73,2.63-5.06,2.27-8.3q-.64-1.16-1.41-1.93-1.94.27-3.76.97c-1.11-.45-2.21-.93-3.29-1.45v-1.45c.35.1.7.2,1.06.3q1.26.31,2.15-.27c1.57-.78,3.11-.86,4.79-.51Z"/>
    <path class="cls-86" d="M80.42,14.44h.47c.04,1.16.07,2.31.09,3.47.01.33.02.65.04.99.03,2.4-.25,3.01-1.54,5.2-2.33-.16-4.66-.32-7.06-.48l-.47,1.93c-2.21,2.58-5.29,5.09-8.71,5.43-1.03,0-2.03-.03-3.06-.12q1.81-8.16,3.76-11.59h.47c.16,3.19.31,6.38.47,9.66h.94q-.01-.41-.02-.83c-.03-1.25-.05-2.51-.07-3.76-.01-.43-.02-.86-.04-1.3-.03-2.9.39-4.99,1.54-7.64,1.38,1.33,2.08,2.68,2.91,4.44.25.52.5,1.05.76,1.59.19.4.37.8.57,1.22h2.82c-.12-.27-.24-.53-.36-.81q-.11-1.12.74-2.37.59-.64,1.18-1.29c.39-.43.77-.86,1.17-1.31q1.03-.99,1.98-.99.23,1.2.47,2.42c.31-1.28.62-2.55.94-3.86Z"/>
    <path class="cls-30" d="M63.01,73.37q1.41.48,1.88,1.45c.09.67.16,1.34.22,2.02.58,5.79,1.62,11.31,3.1,16.91.08.32.17.64.25.97q1.02,3.91,2.54,7.64h5.65q-.33-2.22-.94-3.38c.62-.32,1.24-.64,1.88-.97q.71.51,1.41,1.45.09,1.78,0,3.38,2.61-.36,5.18-.97c.16.48.31.96.47,1.45q-.51.71-1.41,1.45c-1.95.28-3.89.25-5.86.24-.96,0-1.92.02-2.88.04-.6,0-1.21,0-1.83,0q-.83,0-1.68.01-1.39-.3-2.23-1.36c-3.77-8.92-6.75-20.04-6.22-29.85.16-.16.31-.32.47-.48Z"/>
    <path class="cls-52" d="M55.48,96.55v.97c.47.16.93.32,1.41.48l-.47.48c1.86.16,3.73.32,5.65.48v-.97c.47-.16.93-.32,1.41-.48q2.79,2.79,2.91,4.8-.09,1.48-1.03,2.93-1.27.17-2.91.16c-.61,0-1.22,0-1.86,0-.67,0-1.34-.01-2.01-.02-.68,0-1.37,0-2.05,0-1.8,0-3.61-.02-5.41-.04-1.84-.01-3.68-.02-5.52-.03-3.61-.02-7.22-.04-10.83-.07-.16-.32-.31-.64-.47-.97q8.15-.24,16.47-.48c-4.81-.16-9.63-.32-14.59-.48v-.48h27.77q-.23-1.43-.47-2.9-6.06-.24-12.24-.48-.23-.96-.47-1.93,3.12-.97,4.71-.97Z"/>
    <path class="cls-25" d="M80.89,19.75h.47v1.51c.17,1.24.3,1.72,1.24,2.54.32.21.64.42.97.63,2.31,1.57,3.06,3.53,4.17,6.07.67,1.31,1.08,1.78,2.27,2.53,1.49,1.46,1.47,1.95,1.56,4.02-.18,3.36-1.22,5.35-3.5,7.7-1.12,1.03-2.12,1.89-3.49,2.52-.28.16-.57.33-.86.5q-.38,1.48-.47,2.9h-.47v-2.42h-.94v3.86q-.94-.97-1.21-2.78c.03-1.29.13-1.88.92-2.9,1.23-1.1,2.48-1.96,3.9-2.78,1.54-1.02,2.16-1.93,2.97-3.62.35-1.7.39-3.14,0-4.83-.72-1.11-1.52-1.99-2.45-2.92-.87-.96-1.33-1.8-1.85-2.99-1.01-2.26-2.35-3.34-4.56-4.35q-.51-.18-1.03-.36c.31-.16.62-.32.94-.48.18-.64.33-1.28.47-1.93.3-.81.62-1.61.94-2.42Z"/>
    <path class="cls-4" d="M79.48,79.17c.52,1.59.42,2.02.04,3.59-.6,2.83-.65,5.56-.63,8.45,0,.5,0,.99-.01,1.5,0,.47,0,.95,0,1.44,0,.43,0,.85,0,1.29q.05,1.24,1.06,2.56c.77.5,1.56.99,2.35,1.45q.47.48.53,1.69t-.53,1.69c-1.1.02-2.2.02-3.29,0-.03-.52-.06-1.04-.09-1.57q-.22-1.86-1.53-2.96-1.14-.77-2.15-1.27-.27-1.48-.47-3.38c-.07-.63-.14-1.26-.21-1.91-.32-4.59.29-7.25,3.24-10.77.54-.62,1.11-1.22,1.67-1.82Z"/>
    <path class="cls-25" d="M32.89,81.1h.94c.16,1.43.31,2.87.47,4.35.31-.48.62-.96.94-1.45q.03.76.07,1.54c.18,3.63.49,7,1.34,10.54q.06,1.48,0,2.42c-3.11.27-5.43-.04-8-1.93-2.16-1.98-3.69-4.3-4.24-7.25-.11-2.1-.08-4.18,0-6.28.31-.16.62-.32.94-.48.16,1.91.31,3.83.47,5.8.16-1.12.31-2.23.47-3.38h.47c.05.42.09.84.14,1.27q.49,4.33,2.68,7.91c1.39,1.04,2.58,1.54,4.24,1.93q-.1-.43-.2-.87c-.69-3.15-.85-6.11-.8-9.34,0-.46,0-.92.01-1.4.01-1.12.03-2.25.05-3.37Z"/>
    <path class="cls-40" d="M28.91,50.52c1.52.91,2.3,1.86,3.03,3.53l.47.97h-.94l-.47.97c-.35-.38-.7-.76-1.06-1.15-1.97-1.93-3.25-2.37-5.97-2.38-.48,0-.96-.02-1.45-.02-1.62.2-2.48.59-3.75,1.62q-.48.97-.62,2.02c-.11.61-.21,1.22-.32,1.84,1.09.48,2.17.96,3.29,1.45l-.47.97q-1.26.18-2.82,0c-1.15-1.03-1.72-1.55-2.35-2.9-.08-2.17.32-3.15,1.5-4.95,3.26-3.27,7.74-3.92,11.94-1.96Z"/>
    <path class="cls-70" d="M79.48,84.96c.47.16.93.32,1.41.48,0,.31,0,.62,0,.94,0,1.42.03,2.83.06,4.25,0,.49,0,.98,0,1.49.04,1.37.1,2.61.42,3.95q1.31,1.26,2.82,1.93c1.08,1.66,1.03,2.41.94,4.35q-.47.24-.94.48v-.97h-1.41c-.1-.36-.19-.72-.29-1.09-.83-1.71-1.91-2.27-3.47-3.26-.6-1.24-.52-2.11-.52-3.49,0-.5,0-1,0-1.51,0-.52,0-1.04.01-1.58,0-.53,0-1.05,0-1.59,0-1.3.01-2.6.02-3.9.31-.16.62-.32.94-.48Z"/>
    <path class="cls-66" d="M80.42,14.44h.47c.04,1.16.07,2.31.09,3.47.01.33.02.65.04.99.03,2.4-.25,3.01-1.54,5.2-2.48-.16-4.97-.32-7.53-.48v-.48c.78-.16,1.55-.32,2.35-.48-.12-.27-.24-.53-.36-.81q-.11-1.12.74-2.37c.39-.43.78-.85,1.18-1.29.39-.43.77-.86,1.17-1.31q1.03-.99,1.98-.99c.16.8.31,1.59.47,2.42.31-1.28.62-2.55.94-3.86Z"/>
    <path class="cls-6" d="M82.77,73.85c.53,1.63.4,2.18,0,3.81-.11.45-.22.91-.33,1.37-.12.47-.23.94-.35,1.43-.11.48-.23.95-.35,1.45-.28,1.18-.57,2.36-.86,3.53h-.94c-.31.32-.62.64-.94.97v-5.8c-.28.15-.56.3-.85.45q-1.03.51-2.44,1c.25-2.06,1.48-3.39,2.74-4.92.21-.26.41-.53.63-.8.9-1.11,1.57-1.92,2.91-2.43.26-.02.52-.04.79-.07Z"/>
    <path class="cls-23" d="M60.65,84.48h.47c.16,1.28.31,2.55.47,3.86h.47c-.15,3.48-.82,5.67-3.29,8.21q2.1.48,4.24.97c-.31.16-.62.32-.94.48v.97h-8v-.48c.78-.16,1.55-.32,2.35-.48l-.94-.48v-1.45c.43-.34.85-.68,1.29-1.03,2.24-1.82,3.17-4.24,3.63-7.09.12-1.16.2-2.31.25-3.48Z"/>
    <path class="cls-17" d="M63.95,19.27h.47c.16,3.19.31,6.38.47,9.66h1.41l.47-1.45c.47.48.93.96,1.41,1.45-2.81,1.68-4.76,2.21-8,1.93q1.81-8.16,3.76-11.59Z"/>
    <path class="cls-84" d="M25.83,56.46q1.38,1.18,2.35,2.42l.47.48c.03,1.06.04,2.11.03,3.17,0,.58,0,1.16-.01,1.75,0,.45-.01.9-.02,1.36h-1.88c-.02-.33-.04-.65-.05-.99-.03-.43-.06-.86-.09-1.31-.03-.43-.05-.85-.08-1.29-.27-1.4-.75-2.11-1.65-3.18q-1.94.27-3.76.97c-1.11-.45-2.21-.93-3.29-1.45v-1.45c.35.1.7.2,1.06.3q1.26.31,2.15-.27c1.57-.78,3.11-.86,4.79-.51Z"/>
    <path class="cls-7" d="M77.12,98q.94.51,1.88,1.45.12,1.78,0,3.38,2.61-.36,5.18-.97c.16.48.31.96.47,1.45q-.52.72-1.41,1.45-1.33.16-2.92.14c-.57,0-1.14,0-1.72-.01-.59-.01-1.19-.02-1.8-.04q-.9,0-1.82-.02c-1.48-.02-2.97-.04-4.45-.07.47-.16.93-.32,1.41-.48v-.97q2.1-.24,4.24-.48.32-1.14.47-2.42c-.31-.48-.62-.96-.94-1.45.47-.32.93-.64,1.41-.97Z"/>
    <path class="cls-29" d="M80.42,12.99c.03.69.04,1.39.06,2.08.01.39.02.77.03,1.17q-.09,1.09-1.03,2.54-.47-.48-.5-1.72c0-.39.02-.78.03-1.18q-2.66,2.13-4.71,4.83v1.93l1.41.48h-4.24v-2.9h1.41c.03-.35.06-.69.1-1.05.49-1.79,1.33-2.62,2.61-3.93.41-.43.81-.85,1.23-1.29,1.37-1.07,1.93-1.2,3.6-.97Z"/>
    <path class="cls-88" d="M32.89,81.1h.94c.16,1.43.31,2.87.47,4.35.31-.48.62-.96.94-1.45.09,1.67.18,3.34.26,5.01.03.48.05.95.08,1.44.02.45.05.91.07,1.38.02.42.04.84.07,1.27q-.01,1.04-.48,2.01h-.94v1.45h-.94v.97h-1.41v-.97c.62-.16,1.24-.32,1.88-.48-.07-.29-.13-.57-.2-.87-.69-3.15-.85-6.11-.8-9.34,0-.46,0-.92.01-1.4.01-1.12.03-2.25.05-3.37Z"/>
    <path class="cls-43" d="M91.24,35.21l.94.48c1.53.01,3.05-.03,4.58-.08,1.52.08,2.53.37,3.89,1.04v.97c-2.95-.16-5.9-.32-8.94-.48v1.45c.31.04.62.08.94.12,1.85.48,3.6,1.17,5.18,2.29q.58,1.03.94,1.93c-1.74-.38-3.14-1.11-4.71-1.96q-1.07-.55-2.82-.94v-4.83Z"/>
    <path class="cls-76" d="M79.48,37.57q.55,0,1.1.01c.89.01,1.77.03,2.66.05v1.45q-.76.02-1.54.04c-4.75.17-9.3.62-13.6,2.92q-.86.42-2.27.42.47-1.45,1.52-2.08c.44-.2.88-.4,1.34-.6.43-.2.87-.4,1.31-.61,3.25-1.25,6.05-1.68,9.48-1.6Z"/>
    <path class="cls-32" d="M74.77,72.89l1.88.48c-.15.94-.29,1.87-.44,2.81-.08.52-.16,1.04-.25,1.58q-.25,1.41-.72,2.86h-.94c-.16.64-.31,1.28-.47,1.93h-.94v10.63h-.47q-.49-14.46,2.35-20.29Z"/>
    <path class="cls-59" d="M85.12,60.81c.52,4.93.83,8.94-1.41,13.52h-2.82q.25-.62.5-1.26c1.35-3.61,2.13-6.68,2.21-10.6q.06-.59.11-1.18.94-.48,1.41-.48Z"/>
    <path class="cls-3" d="M30.53,52.6c1.98.73,2.72,2.05,3.76,3.86.56,1.72.52,3.11.5,4.92,0,.61,0,1.23-.01,1.86,0,.47-.01.94-.02,1.43-.62.16-1.24.32-1.88.48-.02-.43-.05-.85-.07-1.29-.04-.56-.07-1.12-.11-1.7q-.05-.83-.1-1.68c-.18-1.52-.56-2.63-1.14-4.02.09-.33.17-.66.26-1q.1-.46.21-.94-.64-1.09-1.41-1.93Z"/>
    <path class="cls-71" d="M21.12,49.7c3.48-.21,6.55-.36,9.41,1.93q.91,1.27,1.41,2.42l.47.97h-.94l-.47.97c-.35-.38-.7-.76-1.06-1.15-1.84-1.8-3.13-2.33-5.65-2.54-.42-.04-.84-.07-1.27-.11q-.48-.04-.96-.07c.31-.48.62-.96.94-1.45l-1.88-.97Z"/>
    <path class="cls-95" d="M83.24,40.04v.97c-.41.12-.82.25-1.24.38-3.87,1.28-6.71,2.83-9.85,5.47q-1.14.91-2.55,1.4c1.71-4.01,5.66-6.07,9.41-7.73,1.5-.51,2.66-.52,4.24-.48Z"/>
    <path class="cls-42" d="M79.48,84.96c.47.16.93.32,1.41.48v10.14h-1.41c-.31.32-.62.64-.94.97v-11.11c.31-.16.62-.32.94-.48Z"/>
    <path class="cls-72" d="M58.77,31.35h.94c-.04,1.66-.09,3.32-.15,4.98-.01.47-.02.94-.03,1.43q-.03.68-.05,1.37l-.04,1.26c-.24,1.29-.64,1.73-1.62,2.54-.59-1.82-.52-3.51-.5-5.4,0-.36,0-.72,0-1.1,0-.89.01-1.78.02-2.68.31-.16.62-.32.94-.48q.31-.98.47-1.93Z"/>
    <path class="cls-77" d="M79.01,15.89v6.28c-1.55-.32-3.11-.64-4.71-.97.6-2.08,2.31-5.31,4.71-5.31Z"/>
    <path class="cls-21" d="M26.3,64.19c.62.64,1.24,1.28,1.88,1.93-.67,2.36-1.44,4.28-2.82,6.28-1.09.32-2.17.64-3.29.97,1.4-3.03,2.8-6.06,4.24-9.18Z"/>
    <path class="cls-57" d="M18.77,88.34l.94.97c.31-.16.62-.32.94-.48.62,2.07,1.24,4.14,1.88,6.28-.62.48-1.24.96-1.88,1.45-.41-.91-.81-1.83-1.21-2.75-.22-.51-.45-1.02-.68-1.55-.49-1.58-.47-2.35,0-3.92Z"/>
    <path class="cls-15" d="M55.48,96.55v.97c.47.16.93.32,1.41.48l-.47.48c1.71.16,3.42.32,5.18.48v.48h-10.35c-.16-.64-.31-1.28-.47-1.93q3.12-.97,4.71-.97Z"/>
    <path class="cls-46" d="M56.42,95.59q.94.48,1.41.97c1.08.14,2.15.22,3.23.3q1,.18,1.94,1.15h-.94v.97h-8v-.48c.78-.16,1.55-.32,2.35-.48-.31-.16-.62-.32-.94-.48v-1.45l.94-.48Z"/>
    <path class="cls-50" d="M61.12,81.1c1.39,1.43,1.39,2.8,1.46,4.78,0,.47-.01.93-.02,1.41,0,.47,0,.94-.01,1.43,0,.36-.01.71-.02,1.08-.47-.32-.93-.64-1.41-.97-.31.16-.62.32-.94.48-.12-1.1-.22-2.19-.32-3.29-.06-.61-.12-1.22-.18-1.85q.03-1.62.73-2.56c.24-.17.47-.33.72-.51Z"/>
    <path class="cls-58" d="M32.42,80.13h.94c0,.31,0,.62,0,.94,0,1.44-.02,2.87-.02,4.31,0,.49,0,.98-.01,1.48,0,3.1.14,6.13.51,9.2-2.24-.21-3.26-.64-4.71-2.42,1.09.32,2.17.64,3.29.97-.02-.27-.03-.53-.05-.81q-.57-9.42.05-13.68Z"/>
    <path class="cls-38" d="M73.83,93.17c.47.16.93.32,1.41.48v3.38c.62.16,1.24.32,1.88.48l-.47,1.45q-1.41.48-2.42.17-.88-.65-1.2-1.66c-.03-.38-.06-.77-.09-1.16-.04-.38-.08-.77-.11-1.16q.06-1.01,1-1.98Z"/>
    <path class="cls-41" d="M65.36,84.96c1.65,1.69,1.86,4.12,1.94,6.43-.02.43-.04.86-.06,1.3v1.45c-.16.48-.31.96-.47,1.45-1.54-1.58-1.85-3.58-1.94-5.77.02-.33.04-.66.06-1h.94c-.16-1.28-.31-2.55-.47-3.86Z"/>
    <path class="cls-60" d="M72.89,82.55h.47c.16,1.28.31,2.55.47,3.86h.47c.39,2.76.53,5.42.47,8.21-.31-.32-.62-.64-.94-.97-.31.16-.62.32-.94.48v-11.59Z"/>
    <path class="cls-87" d="M80.89,98.49q1.03.54,1.88,1.45.15,1.27,0,2.42-.47.48-2.15.51c-.53,0-1.07-.02-1.62-.03q-.06-2.78.47-3.86c.47-.16.93-.32,1.41-.48Z"/>
    <path class="cls-79" d="M64.89,18.79h.94v10.14h-.94c-.77-1.59-.54-3.33-.53-5.07,0-.38,0-.76,0-1.15q0-2.83.53-3.92Z"/>
    <path class="cls-27" d="M63.95,97.52h2.35c.16.96.31,1.91.47,2.9.47.16.93.32,1.41.48.16.8.31,1.59.47,2.42h-1.41c-.14.31-.27.62-.41.94q-.53,1-1.47,1.48c.06-.31.11-.62.17-.94.46-3.15.23-4.68-1.58-7.27Z"/>
    <path class="cls-83" d="M40.42,67.57c-.74,2.08-1.73,3.89-2.82,5.8h-1.41q-.47-1.45-.05-2.42c.21-.34.42-.67.64-1.02q.31-.51.63-1.03c.88-1.1,1.65-1.32,3.02-1.32Z"/>
    <path class="cls-2" d="M81.83,48.25h.94c.02.36.05.71.07,1.08.04.47.07.94.11,1.43.03.47.07.93.1,1.41.2,1.41.62,2.5,1.14,3.81q-.18,1.36-.47,2.42c-1.62-1.67-1.95-4.01-2.35-6.28.02-1.37.2-2.52.47-3.86Z"/>
    <path class="cls-26" d="M34.3,78.2h1.41c-.31,3.86-.63,7.73-.94,11.59h-.47c-.49-3.93-.78-7.68,0-11.59Z"/>
    <path class="cls-80" d="M78.54,31.35c.94-.02,1.88-.02,2.82,0q.47.48.53,1.69t-.53,1.69q-1.15.09-2.35,0c-.31-.32-.62-.64-.94-.97q.18-1.27.47-2.42Z"/>
    <path class="cls-44" d="M73.83,20.72c1.55.32,3.11.64,4.71.97v1.93c-1.54.5-2.76.47-4.35.27-.42-.05-.84-.1-1.27-.15-.32-.04-.64-.08-.96-.12v-.48c.78-.16,1.55-.32,2.35-.48-.16-.64-.31-1.28-.47-1.93Z"/>
    <path class="cls-63" d="M79.95,86.41h.47c0,.27.01.55.02.83.04,1.23.08,2.47.13,3.7.01.43.02.86.03,1.3.02.41.03.82.05,1.25.01.38.02.76.04,1.15q.13,1.15,1.62,1.92v1.45q-2.24-.42-3.29-.97v-3.86h.47c.16-2.23.31-4.46.47-6.76Z"/>
    <path class="cls-73" d="M24.89,82.55h.47c.16,1.91.31,3.83.47,5.8.16-1.12.31-2.23.47-3.38h.47c.03.69.04,1.39.06,2.08.01.39.02.77.03,1.17q-.09,1.09-1.03,2.54h-.94c-.53-1.64-.53-2.92-.53-4.65q0-.85,0-1.71.06-1.37.53-1.85Z"/>
    <path class="cls-88" d="M21.12,49.7c.92-.04,1.84-.07,2.76-.09q.77-.03,1.56-.05c.44.05.88.09,1.33.14q.94,1.45.94,2.9c-1.86-.16-3.73-.32-5.65-.48.31-.48.62-.96.94-1.45l-1.88-.97Z"/>
    <path class="cls-83" d="M21.59,95.11c2.14.73,3.06,2.5,4.24,4.35-2.03,0-2.67-.19-4.24-1.45q-.41-1.27-.47-2.42l.47-.48Z"/>
    <path class="cls-11" d="M22.06,56.46c.47.16.93.32,1.41.48l-1.88,2.9q-3.13-.71-3.97-1.99c-.09-.3-.17-.6-.26-.91.43.1.85.2,1.29.3,1.64.19,2.03,0,3.41-.78Z"/>
    <path class="cls-47" d="M82.77,51.63h.94c.33,1,.65,2.01.97,3.02.18.56.36,1.12.55,1.7.34,1.47.42,2.12-.1,3.49l-.47-.97c-.47.16-.93.32-1.41.48.1-.51.19-1.02.29-1.54.18-1.89-.02-2.59-.76-4.26v-1.93Z"/>
    <path class="cls-82" d="M19.71,83.03h.47v6.76c-.62-.32-1.24-.64-1.88-.97v-3.86c.47-.16.93-.32,1.41-.48v-1.45Z"/>
    <path class="cls-75" d="M74.77,72.89l1.88.48q-.35,2.78-1.41,3.86c-.47.32-.93.64-1.41.97.07-.7.14-1.41.21-2.11.04-.39.08-.78.12-1.19q.15-1.05.62-2.01Z"/>
    <path class="cls-12" d="M72.42,39.08v.97c-.83.41-1.67.81-2.5,1.21q-.7.34-1.41.68-1.27.53-2.68.53.47-1.45,1.26-2.01,3.25-1.64,5.33-1.37Z"/>
    <path class="cls-90" d="M63.01,73.37c.47.16.93.32,1.41.48v4.35h-.94c-.16.32-.31.64-.47.97-.55-1.78-.54-3.46-.47-5.31.16-.16.31-.32.47-.48Z"/>
    <path class="cls-16" d="M23.94,50.18c.62.48,1.24.96,1.88,1.45-2.02.32-4.04.64-6.12.97-.16-.64-.31-1.28-.47-1.93,1.47-.76,3.1-.74,4.71-.48Z"/>
    <path class="cls-10" d="M57.83,52.12c.16.48.31.96.47,1.45-.45.49-.9.97-1.35,1.45-.25.27-.5.54-.76.82q-.71.63-1.65.63c-.18-1.62-.15-2.22.85-3.53q1.03-.82,2.44-.82Z"/>
    <path class="cls-28" d="M79.01,12.99h1.41c.03.69.04,1.39.06,2.08.01.39.02.77.03,1.17q-.09,1.09-1.03,2.54-.47-.48-.5-1.96c0-.47.02-.94.03-1.42h-.94c.31-.8.62-1.59.94-2.42Z"/>
    <path class="cls-39" d="M79.01,15.89v6.28c-.62-.32-1.24-.64-1.88-.97h1.41c-.16-.96-.31-1.91-.47-2.9q-1.16.72-2.35,1.45c.26-1.88,1.25-3.86,3.29-3.86Z"/>
    <path class="cls-96" d="M92.18,35.69c.97-.03,1.94-.04,2.91-.06.54-.01,1.08-.02,1.64-.03,1.53.09,2.55.39,3.92,1.06v.97c-1.06-.04-2.12-.09-3.18-.15q-.88-.04-1.79-.08c-1.64-.25-2.32-.55-3.51-1.7Z"/>
    <path class="cls-9" d="M74.77,43.42v1.45q-.89.88-2.06,1.78c-.38.3-.76.6-1.16.91q-1.02.69-1.96.69c.64-1.52,1.35-2.44,2.59-3.5.29-.25.57-.5.87-.76q.78-.57,1.72-.57Z"/>
    <path class="cls-35" d="M62.53,77.23h.47c.16,2.07.31,4.14.47,6.28h-.94c-.16.32-.31.64-.47.97-.48-2.8-.45-4.57.47-7.25Z"/>
    <path class="cls-93" d="M57.83,77.72c.8.62,1.59,1.26,2.35,1.93v.97h.94v.97h-.94l-.47.97c-.93-1.43-1.86-2.87-2.82-4.35l.94-.48Z"/>
    <path class="cls-91" d="M27.24,75.78h2.35c-.51,1.82-.9,3.13-2.35,4.35q-.53-3.26,0-4.35Z"/>
    <path class="cls-94" d="M63.95,19.27h.47v7.73h-.47c-.16-.96-.31-1.91-.47-2.9h-1.41c.52-1.68,1.07-3.27,1.88-4.83Z"/>
    <path class="cls-65" d="M66.3,27.48c.62.32,1.24.64,1.88.97-2.03,1.75-3.32,2.48-5.97,2.45q-.57,0-1.15-.01t-.88-.02c.16-.32.31-.64.47-.97q.94-.18,2.09-.27,1.6-.12,3.09-.69c.16-.48.31-.96.47-1.45Z"/>
    <path class="cls-67" d="M62.53,17.82c.47,1.45.62,2.36.47,3.86q-.65.88-1.41,1.45h-.94c.24-2.12.72-3.54,1.88-5.31Z"/>
    <path class="cls-61" d="M32.89,91.24h.47c.16,1.59.31,3.19.47,4.83-2.24-.21-3.26-.64-4.71-2.42,1.09.32,2.17.64,3.29.97.16-1.12.31-2.23.47-3.38Z"/>
    <path class="cls-69" d="M18.77,88.34l.94.97c.31-.16.62-.32.94-.48v2.9h-.94c-.16.32-.31.64-.47.97-.76-1.24-.96-1.78-.76-3.26.1-.36.19-.72.29-1.09Z"/>
    <path class="cls-56" d="M58.3,29.41c.78.16,1.55.32,2.35.48q-.82,1.87-1.88,2.42c-.16.48-.31.96-.47,1.45h-.94q.41-3.26.94-4.35Z"/>
    <path class="cls-54" d="M24.41,71.92l.47.97q-.37.83-.91,1.75c-.32.54-.64,1.08-.97,1.63-.47-.48-.93-.96-1.41-1.45.59-1.8,1.24-2.02,2.82-2.9Z"/>
    <path class="cls-49" d="M48.42,57.91c.47.16.93.32,1.41.48-.16.64-.31,1.28-.47,1.93q-.85.3-1.88.48c-.47-.32-.93-.64-1.41-.97q1.09-1,2.35-1.93Z"/>
    <path class="cls-20" d="M63.01,97.52q1.21.6,2.35,1.45c.16.48.31.96.47,1.45q-2.1-.48-4.24-.97c.16-.48.31-.96.47-1.45.31-.16.62-.32.94-.48Z"/>
    <path class="cls-22" d="M19.71,77.72c.84,2.59-.1,4.76-.94,7.25h-.47c.21-2.55.51-4.84,1.41-7.25Z"/>
    <path class="cls-74" d="M81.83,48.25h.94q.61,3.59,0,5.31c-.47-.16-.93-.32-1.41-.48.16-1.59.31-3.19.47-4.83Z"/>
    <path class="cls-64" d="M72.42,23.62c.47.32.93.64,1.41.97-1.09,1.28-2.17,2.55-3.29,3.86-.62-.16-1.24-.32-1.88-.48.23-.19.46-.38.7-.58.3-.26.6-.51.91-.78.3-.25.6-.5.91-.76q.89-.78,1.24-2.22Z"/>
    <path class="cls-51" d="M36.65,72.4c.31.48.62.96.94,1.45-.31.64-.62,1.28-.94,1.93h-1.41q-.29-.91-.47-1.93.94-.97,1.88-1.45Z"/>
    <path class="cls-55" d="M34.3,58.88h.47v5.8c-.62.16-1.24.32-1.88.48.05-.68.11-1.37.18-2.05.03-.38.07-.76.1-1.15.2-1.18.56-2.03,1.14-3.07Z"/>
    <path class="cls-18" d="M26.3,57.91q1.24.63,2.35,1.45v.97c-.78.16-1.55.32-2.35.48-.31-.8-.62-1.59-.94-2.42l.94-.48Z"/>
    <path class="cls-89" d="M67.24,12.03l1.88.97c-.27.13-.54.26-.82.39-1.07.58-1.99,1.25-2.94,2.02l-.94-.97c.93-.8,1.86-1.59,2.82-2.42Z"/>
    <path class="cls-45" d="M75.71,76.27c1.11,1.14,1.17,1.83,1.41,3.38-.62.48-1.24.96-1.88,1.45.16-1.59.31-3.19.47-4.83Z"/>
    <path class="cls-92" d="M72.89,42.94c.47.16.93.32,1.41.48q-1.86,1.67-3.76,3.38c-.16-.48-.31-.96-.47-1.45q2.07-1.93,2.82-2.42Z"/>
    <path class="cls-19" d="M62.06,84.48h.47v5.31c-.47-.32-.93-.64-1.41-.97.23-1.51.47-2.9.94-4.35Z"/>
    <path class="cls-24" d="M64.42,74.82h.47q.06,3.68-.47,5.31h-.94c-.16.32-.31.64-.47.97.16-.96.31-1.91.47-2.9h.94v-3.38Z"/>
    <path class="cls-33" d="M40.42,67.57c-.56,1.63-1.07,2.73-2.35,3.86.16-.8.31-1.59.47-2.42l-.94-.48q1.76-.97,2.82-.97Z"/>
    <path class="cls-13" d="M26.3,50.67c.47.16.93.32,1.41.48v1.45c-1.86-.16-3.73-.32-5.65-.48v-.48c.97-.11,1.93-.22,2.9-.33q.87-.07,1.34-.64Z"/>
    <path class="cls-78" d="M26.3,84.96h.47c.03.69.04,1.39.06,2.08.01.39.02.77.03,1.17q-.09,1.09-1.03,2.54h-.94c.15-.33.29-.66.44-1,.56-1.6.78-3.12.97-4.8Z"/>
    <path class="cls-31" d="M79.95,82.06l.94.48v2.9h-.94c-.31.32-.62.64-.94.97.28-1.46.58-2.91.94-4.35Z"/>
    <path class="cls-81" d="M73.83,44.87q0,1.45-1.06,2.78c-.43.36-.85.72-1.29,1.09-.62-.16-1.24-.32-1.88-.48,1.4-1.12,2.8-2.23,4.24-3.38Z"/>
    <path class="cls-36" d="M54.06,54.05l.94.97c-.31.8-.62,1.59-.94,2.42-.47-.32-.93-.64-1.41-.97v-1.45c.47-.32.93-.64,1.41-.97Z"/>
    <path class="cls-68" d="M51.24,97.04h2.35v1.45h-2.82c.16-.48.31-.96.47-1.45Z"/>
    <path class="cls-62" d="M60.18,89.79q.94.97.94,2.42c-.78.32-1.55.64-2.35.97.47-1.12.93-2.23,1.41-3.38Z"/>
    <path class="cls-5" d="M63.01,73.37c.47.16.93.32,1.41.48v.97h-.94c-.16.8-.31,1.59-.47,2.42h-.47c-.02-1.13-.02-2.25,0-3.38.16-.16.31-.32.47-.48Z"/>
    <path class="cls-37" d="M79.95,13.96h.47q.12,3.2-.94,4.83-.47-.48-.56-1.6c.09-1.34.37-2.09,1.03-3.23Z"/>
  </g>
</svg>