<?xml version="1.0" encoding="UTF-8"?>
<svg id="Layer_2" data-name="Layer 2" xmlns="http://www.w3.org/2000/svg" viewBox="0 0 120.11 120.22">
  <defs>
    <style>
      .cls-1 {
        fill: #af9f89;
      }

      .cls-2 {
        fill: #b9ac94;
      }

      .cls-3 {
        fill: #d5c7ae;
      }

      .cls-4 {
        fill: #604932;
      }

      .cls-5 {
        fill: #b9ad95;
      }

      .cls-6 {
        fill: #a5977f;
      }

      .cls-7 {
        fill: #ede4cc;
      }

      .cls-8 {
        fill: #a1907b;
      }

      .cls-9 {
        fill: #b0a28b;
      }

      .cls-10 {
        fill: #897862;
      }

      .cls-11 {
        fill: #b6a791;
      }

      .cls-12 {
        fill: #b1a189;
      }

      .cls-13 {
        fill: #c4b59e;
      }

      .cls-14 {
        fill: #604d38;
      }

      .cls-15 {
        fill: #e1d4bc;
      }

      .cls-16 {
        fill: #ccc2ae;
      }

      .cls-17 {
        fill: #9aaa87;
      }

      .cls-18 {
        fill: #5c4933;
      }

      .cls-19 {
        fill: #d5c8af;
      }

      .cls-20 {
        fill: #c3b59f;
      }

      .cls-21 {
        fill: #cdc1a9;
      }

      .cls-22 {
        fill: #55412a;
      }

      .cls-23 {
        fill: #b1a28a;
      }

      .cls-24 {
        fill: #412915;
      }

      .cls-25 {
        fill: #cfc3ab;
      }

      .cls-26 {
        fill: #806f57;
      }

      .cls-27 {
        fill: #ab9b84;
      }

      .cls-28 {
        fill: #eae1c8;
      }

      .cls-29 {
        fill: #c6b89f;
      }

      .cls-30 {
        fill: #cabda7;
      }

      .cls-31 {
        fill: #c0b39e;
      }

      .cls-32 {
        fill: #dfd4bb;
      }

      .cls-33 {
        fill: #e0d6bf;
      }

      .cls-34 {
        fill: #c1b59d;
      }

      .cls-35 {
        fill: #675441;
      }

      .cls-36 {
        fill: #d0c4ac;
      }

      .cls-37 {
        fill: #cec0a9;
      }

      .cls-38 {
        fill: #cabca6;
      }

      .cls-39 {
        fill: #bdb099;
      }

      .cls-40 {
        fill: #4c3a26;
      }

      .cls-41 {
        fill: #523f29;
      }

      .cls-42 {
        fill: #aa967f;
      }

      .cls-43 {
        fill: #b8aa93;
      }

      .cls-44 {
        fill: #644e38;
      }

      .cls-45 {
        fill: #cdbfa8;
      }

      .cls-46 {
        fill: #b4a891;
      }

      .cls-47 {
        fill: #dbceb7;
      }

      .cls-48 {
        fill: #c4b59f;
      }

      .cls-49 {
        fill: #98ab8a;
      }

      .cls-50 {
        fill: #c5b9a3;
      }

      .cls-51 {
        fill: #c6baa3;
      }

      .cls-52 {
        fill: #e5dbc3;
      }

      .cls-53 {
        fill: #bfb39c;
      }

      .cls-54 {
        fill: #d4c6ab;
      }

      .cls-55 {
        fill: #4c3924;
      }

      .cls-56 {
        fill: #d8c9b0;
      }

      .cls-57 {
        fill: #b0a089;
      }

      .cls-58 {
        fill: #472e1c;
      }

      .cls-59 {
        fill: #ab9b82;
      }

      .cls-60 {
        fill: #b4a58d;
      }

      .cls-61 {
        fill: #f0e4cb;
      }

      .cls-62 {
        fill: #d6ccb7;
      }

      .cls-63 {
        fill: #44331c;
      }

      .cls-64 {
        fill: #c9bba3;
      }

      .cls-65 {
        fill: #c8b9a2;
      }

      .cls-66 {
        fill: #f0eedf;
      }

      .cls-67 {
        fill: #bdaf9a;
      }

      .cls-68 {
        fill: #cec1a9;
      }

      .cls-69 {
        fill: #d8ccb7;
      }

      .cls-70 {
        fill: #bfb199;
      }

      .cls-71 {
        fill: #bdaf98;
      }
    </style>
  </defs>
  <g id="Layer_1-2" data-name="Layer 1">
    <g>
      <rect class="cls-66" x=".09" y=".15" width="119.87" height="119.87" rx="20" ry="20"/>
      <path d="M99.96,120.03c-15.23.02-62.03.07-76.5.09C10.9,121.23.24,112.99,0,100.02c0-10.32.06-60.36.05-69.55.12-4.02-.33-9.96.32-13.9.83-4.57,3.28-8.84,6.86-11.82C10.81,1.77,15.44.1,20.09.08l55.64-.04s13.91,0,13.91,0c4.03.13,9.95-.33,13.91.34,9.36,1.55,16.64,10.3,16.53,19.78-.01,15.23-.04,62.03-.07,76.5,1.08,12.52-7.13,23.15-20.06,23.38h0ZM99.96,120.01c12.85-.25,21.07-10.88,19.94-23.35-.03-14.2-.05-61.55-.07-76.5.11-9.36-7.08-18.02-16.33-19.55-3.89-.65-9.85-.21-13.87-.34,0,0-13.91,0-13.91,0l-55.64-.04c-4.62.02-9.22,1.66-12.77,4.62C3.76,7.81,1.31,12.04.48,16.59c-.66,3.9-.22,9.85-.35,13.88.02,8.9.03,59.52.05,69.55.24,12.81,10.84,20.99,23.27,19.9,14.2.01,61.55.07,76.5.09h0Z"/>
    </g>
    <path class="cls-24" d="M76.19,14.39c.15.02.3.05.45.07.81.15,1.54.39,2.3.75.39.16.76.25,1.16.34.87.21,1.56.62,2.31,1.15.13.09.26.18.4.28,2.33,1.69,3.78,4,4.96,6.85q.26.73.84,1.11c.43.13.86.24,1.29.34.23.05.46.11.69.16q.26.06.53.12v.42c.19.01.39.02.58.03.73.04,1.46.08,2.18.12.31.02.63.04.94.05q5.48.3,6.18,1.18c1.03,2.27.8,4.9.44,7.36-.02.14-.04.29-.06.43-.16.96-.43,1.79-.78,2.67-.22.63-.44,1.27-.67,1.9-.22.58-.48,1.1-.77,1.64q-.08.26-.16.52c-.26.68-.63,1.05-1.1,1.56-.19.26-.37.53-.56.79-1.1,1.48-2.55,2.61-4.09,3.37-.14.07-.28.14-.43.21-2.24,1.03-4.6,1.31-6.98,1.49-1.17.1-2.12.29-3.03,1.21-.87,1.81-.73,4.14-.74,6.16,0,.5-.01,1-.02,1.5,0,.32,0,.64,0,.96q0,.22-.01.45,0,.47.11,1.12c.43.4.72.59,1.26.7.97.36,1.69,1.89,2.19,2.86.53,1.52.39,3.36.31,4.97-.06.14-.12.27-.18.42h-.36v.62h-.54q-.06.17-.11.35c-.35.68-.77,1.04-1.32,1.52h-.36v.42c-.59.14-1.18.27-1.79.42q0,.27,0,.55c.02,5.3-.03,10.6-.09,15.9q0,.25,0,.51c-.03,2.11-.05,4.23-.08,6.34q.29.04.59.09c1.53.28,2.89,1.45,3.85,2.84.29.54.38,1.02.39,1.65h.36c.22.93.23,1.82.25,2.78,0,.17.01.35.02.53.01.87,0,1.49-.48,2.18-1.11,1.2-1.91,1.25-3.38,1.24q-.29,0-.59,0c-.41,0-.82,0-1.23,0-.62,0-1.25,0-1.87,0-.4,0-.8,0-1.2,0q-.28,0-.56,0c-1.56-.02-2.93-.07-4.1-1.38q-.22-.24-.44-.48-.92-1.19-.92-1.95c-.18-.07-.35-.14-.54-.21q-.14-.42-.25-1c-.04-.22-.09-.45-.13-.68q-.04-.19-.07-.39c-.17-.86-.36-1.72-.54-2.58-.04-.18-.08-.35-.11-.53-.16-.73-.31-1.45-.5-2.17-.32-1.39-.52-2.81-.74-4.22-.04-.23-.08-.47-.11-.71q-.05-.32-.1-.64c-.12-.64-.29-1.24-.48-1.86-.1-.58-.18-1.15-.26-1.73-.1-.57-.27-1.06-.46-1.6-.28-1.24-.47-2.47-.36-3.75q.28-.52.72-.83c.62-.09,1.04-.15,1.59.23.27.53.32,1.03.38,1.64h.36c.02.15.04.31.07.46.03.2.06.41.09.62.03.2.06.4.09.61q.1.59.28,1.1c.24.7.38,1.42.52,2.16.06.32.13.63.19.95.03.16.06.32.1.49.09.46.19.92.28,1.38.36,1.72.67,3.43.92,5.18.14.75.33,1.44.54,2.17.24.84.42,1.69.61,2.55.08.35.15.69.23,1.04.03.15.07.3.1.46.08.35.18.69.27,1.03q.51.23,1.07.42c.11.07.23.14.35.22.4.22.67.26,1.11.27.14,0,.29,0,.43.01.15,0,.31,0,.46,0,.16,0,.32,0,.48.01.5.01,1.01.02,1.51.03.34,0,.68.02,1.03.02.84.02,1.67.04,2.51.05-.05-.44-.09-.87-.14-1.31-.03-.24-.05-.48-.08-.73-.14-.68-.25-.95-.69-1.41-.94-.68-2.05-.9-3.13-1.16q-.61-.18-.97-.6c-.19-.63-.2-1.23-.2-1.89,0-.21,0-.43,0-.65,0-.23,0-.47,0-.71q0-.37,0-.75c0-.54,0-1.07,0-1.61,0-.85,0-1.69,0-2.54,0-.14,0-.29,0-.43,0-.29,0-.58,0-.88,0-1.97-.01-3.94-.01-5.92,0-1.33,0-2.66,0-3.99,0-.7,0-1.41,0-2.11,0-.78,0-1.57,0-2.35,0-.23,0-.47,0-.71,0-.58-.02-1.11-.12-1.68q-.41-.46-.89-.62-.3-.38-.56-.79c-.09-.13-.17-.27-.26-.41-.66-1.2-.88-2.05-.85-3.46q0-.22,0-.45c.01-1.57.3-2.87.95-4.26q-.22-.01-.44-.02c-3.08-.21-6.09-.87-8.95-2.27-.53-.24-1.06-.42-1.61-.61-1.1-.38-2.11-.88-3.14-1.47-.14-.08-.29-.16-.44-.24-1.28-.72-2.47-1.59-3.68-2.47-.16-.11-.32-.22-.49-.33-.51-.37-.88-.84-1.3-1.33q-.56-.5-1.23-.6c-.54.25-.83.65-1.23,1.14-.76.91-1.54,1.75-2.37,2.58-.2.2-.4.41-.6.61-1.18,1.21-2.38,2.38-3.62,3.5-.85.76-1.68,1.55-2.5,2.35-.89.86-1.79,1.71-2.72,2.52-1.57,1.39-3.07,2.88-4.54,4.41-.23.23-.46.46-.7.67-2.79,2.66-4.68,6.49-5.76,10.43-.15.5-.33.98-.51,1.46-.43,1.25-.6,2.46-.7,3.8q-.02.22-.03.45c-.21,3.24.02,7.96,1.82,10.57q.17.54.3,1.09c.04.19.09.37.14.56.03.14.07.28.1.43h.36q.22.31.47.73c.89,1.42,1.72,2.72,3.29,3.02.48.08.95.15,1.43.21v.42h24.7c-.06-.55-.12-1.1-.18-1.66h-.36c-.11-.19-.21-.38-.32-.57-.77-1.33-1.78-1.91-3.08-2.34-.83-.11-1.66-.12-2.49-.12-.43,0-.86,0-1.29-.01q-.28,0-.57,0-.48-.08-.8-.37c-.37-.59-.31-1.15-.3-1.86.13-.8.46-1.31.88-1.95.47-.79.72-1.66,1-2.56.09-.25.19-.5.28-.75.34-1.05.36-2.09.38-3.2,0-.2.01-.4.02-.61.01-.49.03-.98.04-1.47h-.36c-.04-.27-.08-.53-.12-.81-.4-2.02-1.22-3.47-2.56-4.81-.1-.1-.2-.2-.3-.3-1.38-1.27-3.1-1.66-4.8-1.96-.69-.13-1.21-.25-1.7-.86q-.1-.45-.1-.94c0-.16,0-.32-.01-.49q.11-.45.48-.81c.65-.32,1.21-.35,1.9-.34.13,0,.25,0,.38,0,1.03.03,1.93.26,2.89.7.14.05.28.1.42.16q.4.15,1.01.47c.06.21.12.41.18.62q.19.08.38.17c.7.34,1.15.88,1.7,1.48.1.11.2.22.31.34.28.31.56.61.83.92.1.11.19.21.29.32.33.41.43.82.6,1.34.11.24.22.48.34.73.89,2.11,1.16,3.92,1.17,6.26,0,.22,0,.43,0,.66-.02,2.32-.54,4.39-1.34,6.51q.24-.02.49-.04c2.39.02,4.57,1.38,6.29,3.23.66.97.85,2.07,1.09,3.26.06.07.12.14.18.21.04.54.06,1.06.07,1.6,0,.15.01.29.02.45.01.83-.05,1.34-.51,2-.69.77-1.18.76-2.1.77-.23,0-.45,0-.69,0-.25,0-.5,0-.75,0-.26,0-.53,0-.79,0-.87,0-1.74,0-2.61,0-.3,0-.6,0-.9,0-1.41,0-2.82,0-4.23,0-1.62,0-3.25,0-4.87.02-1.26,0-2.51,0-3.77.01-.75,0-1.5,0-2.25,0-.71,0-1.41,0-2.12,0-.26,0-.52,0-.77,0-2.2.02-4.21-.38-6.04-1.86-.1-.08-.2-.15-.31-.23-.99-.77-1.72-1.59-2.28-2.82-.28-.59-.6-1.15-.91-1.71q-.17-.35-.17-.77h-.36c-.42-1.31-.82-2.63-1.14-3.97q-.08-.39-.29-.6c-.1-.64-.18-1.29-.27-1.94q-.04-.54-.27-.77c0-.21.01-.43.02-.65-.07-.63-.18-.79-.61-1.2-.51-.37-1.03-.72-1.56-1.07-.89-.64-1.63-1.39-2.38-2.22-.12-.13-.24-.26-.36-.4-.23-.26-.47-.52-.7-.78-.26-.29-.52-.57-.78-.85-1.84-2.03-3.34-4.62-4.18-7.4-.07-.23-.15-.46-.23-.69-.08-.25-.16-.5-.24-.76-.08-.24-.15-.47-.23-.72-.45-1.72-.41-3.47-.41-5.25,0-.25,0-.5,0-.75,0-3.66.56-7.28,2.37-10.34.09-.17.18-.33.28-.51.5-.91,1-1.68,1.69-2.41q.16-.19.33-.39c.59-.67.95-1.03,1.77-1.23q.58.16,1.02.57c.38.84.35,1.35.28,2.29-.06.07-.12.14-.18.21-.67,4.61-.47,9.57,1.48,13.69q.31.66.49,1.29h.36c.1.21.2.43.3.65.39.8.86,1.45,1.39,2.12.08.11.17.22.25.33.5.64.92,1.02,1.64,1.27.06-.19.13-.38.19-.57.64-1.72,1.46-3.29,2.55-4.66.3-.38.55-.77.8-1.19,1.04-1.64,2.35-2.98,3.73-4.21.47-.44.88-.93,1.31-1.43.35-.39.71-.77,1.07-1.16.09-.1.18-.2.28-.3q1.47-1.57,2.14-1.87c.58-.28.96-.67,1.44-1.15.78-.77,1.56-1.52,2.37-2.24.1-.09.2-.17.3-.26.54-.48,1.08-.94,1.63-1.4.5-.43.87-.89,1.25-1.47.36-.46.77-.83,1.19-1.22,1.09-1.01,2.05-2.13,3.02-3.29.12-.14.25-.29.38-.43.44-.52.85-1.06,1.25-1.61.23-.31.46-.61.7-.91.11-.15.23-.29.35-.44.1-.13.21-.26.32-.4q.28-.38.23-.99-.42-.43-.89-.83c-.48-.48-.67-.92-.89-1.6-.06-.18-.12-.37-.18-.56-.06-.18-.12-.36-.18-.55-.05-.16-.1-.31-.16-.48-1.25-3.79-.45-7.9.7-11.59h.36c.02-.11.03-.23.05-.35.2-1.23.56-2.23,1.08-3.32.07-.15.14-.3.21-.45.45-.97.97-1.86,1.53-2.75.09-.18.18-.37.28-.56.28-.53.59-.88.97-1.31.19-.25.38-.51.57-.77.23-.3.45-.6.68-.9.11-.15.23-.3.34-.45,1.08-1.33,2.3-2.3,3.62-3.26.3-.22.59-.44.88-.67,1.42-1.05,2.84-1.47,4.46-1.86q.17-.05.34-.11c2.21-.57,4.89-.19,7.11.18Z"/>
    <path class="cls-28" d="M71.83,17.38c.2,0,.4,0,.6,0,1.37.03,2.67.13,4.01.47q.32.08.66.17c.56.15,1.12.3,1.67.46v.42c.11.01.22.02.33.03.14.02.29.03.44.05q.21.02.43.04.4.09.94.5v.42q.18.06.36.12c1.52.85,2.57,2.38,3.24,4.14.09.23.18.45.27.69q.24.68.44,1.37t.49.77c.13.06.26.13.39.2.13.17.25.34.38.52.52.52.64.6,1.27.73.16.03.32.07.48.1.18.04.36.07.55.11.21.04.42.09.63.13.69.14,1.38.28,2.07.42.24.05.48.1.73.14.59.12,1.17.23,1.76.35.02.17.04.34.06.51q.04.33.09.68c.03.22.06.44.08.67.25,1.25.89,2.13,1.81,2.81.67.34,1.17.46,1.89.53-.09,1.38-.4,2.49-.89,3.75-.06.15-.12.3-.18.46-.95,2.23-2.56,4.07-4.48,5.16-.12.07-.25.14-.37.21-.5.27-.86.41-1.42.41v.42c-.65.23-1.27.24-1.95.27-1.25.07-2.46.28-3.69.53-.16.03-.33.07-.5.1-1.5.33-3.05.7-3.98,2.24-.32.72-.5,1.44-.66,2.22l-.1.44c-.08.35-.15.71-.23,1.06-1.47-.09-2.87-.2-4.3-.62-.16-.04-.32-.08-.49-.12-1.24-.31-2.46-.69-3.67-1.1-.15-.05-.3-.1-.45-.15-.92-.32-1.72-.74-2.55-1.31-.34-.23-.68-.4-1.05-.56-.57-.3-.79-.52-1.1-1.13.12-.13.24-.27.36-.4,2.8-3.28,4.26-6.7,4.83-11.25h.36c.01-1.11.02-2.22.03-3.33,0-.38,0-.76.01-1.13,0-.54,0-1.09.01-1.63,0-.17,0-.34,0-.51,0-.69-.02-1.21-.29-1.82-.42-.42-.82-.42-1.36-.44-.6.21-.88.62-1.28,1.17q-.13.66-.11,1.37c0,.27,0,.53-.01.81,0,.28,0,.56,0,.84-.02,3.51-.2,7.03-1.82,10.09q-.22.42-.34.92c-.3.72-.75,1.12-1.29,1.59-.1.09-.21.18-.32.28-1.37,1.16-2.63,1.79-4.34,1.58-.18-.02-.35-.03-.53-.05-1.25-.17-2.06-.47-2.87-1.61q-.89-1.4-.89-2.29h-.36c-.81-2.83.07-7.12,1-9.81q.26-.6.62-.81c.11-.33.21-.67.3-1.01.65-2.16,1.84-3.91,3.1-5.64.13-.18.25-.35.39-.53,1.51-2.03,3.88-4.77,6.29-5.08h.66v-.42c1.28-.62,2.43-.72,3.8-.69Z"/>
    <path class="cls-49" d="M58.57,48.36q.5.09.86.3c.3.03.6.05.9.07.18,0,.35.02.53.03q.28.01.56.02t.56.03c.46.02.92.04,1.38.06q.09.31.18.62.63.26,1.25.42v.42c.18.05.36.1.54.16.75.25,1.4.64,2.09,1.06,1.58.95,3.18,1.54,4.89,2.11.2.07.41.14.61.21,1.87.63,3.55,1.08,5.5,1.2q.51.05.69.26c.02.32.02.65.02.98q0,.29,0,.6,0,.31,0,.63c0,.21,0,.41,0,.63,0,.51,0,1.03,0,1.54q-1.72.01-2.55-.08c-.14-.01-.28-.03-.43-.04q-.42-.09-.83-.29c-.65-.28-1.31-.33-2-.39-1.96-.22-3.73-.8-5.55-1.69-.52-.24-1.06-.41-1.6-.58-1.05-.36-1.9-.9-2.83-1.57-.47-.32-.91-.55-1.41-.76-1.62-.71-2.97-1.93-4.29-3.2q-.34-.34-.72-.54c.11-1.1.69-2.02,1.64-2.17Z"/>
    <path class="cls-52" d="M19.16,64.48h.36c.18.62.21,1.1.24,1.75.09,1.38.38,2.64.73,3.96.06.22.11.44.17.66.25.95.5,1.87.83,2.79h.36c.18.35.35.71.51,1.07,1.22,2.5,3.07,5.28,5.39,6.42-.02.29-.04.57-.07.86-.01.16-.02.32-.04.48q-.07.53-.25,1.12c-.2.74-.25,1.41-.29,2.19-.01.26-.03.52-.04.79,0,.2-.02.39-.03.59-.82-.1-1.36-.52-1.99-1.11-.1-.09-.2-.18-.31-.28-1.79-1.67-3.96-4.07-4.5-6.73h-.36c-.17-.55-.34-1.09-.5-1.64-.05-.15-.09-.3-.14-.46-.15-.48-.29-.96-.43-1.44-.05-.16-.1-.33-.15-.49-.4-1.38-.47-2.66-.46-4.11,0-.23,0-.45,0-.69.03-1.95.21-3.97.97-5.74Z"/>
    <path class="cls-17" d="M80.72,63.74c.83.26,1.57.92,2.02,1.77.3.91.27,1.86,0,2.79q-.44,1.12-.91,1.32-1.83.3-2.57-.2c-.44-.43-.79-.8-1.04-1.4-.06-1.44-.04-2.61.83-3.73.59-.42.97-.6,1.66-.55Z"/>
    <path class="cls-58" d="M80.38,27.44v.42c.11.02.21.03.32.05.53.21.67.4.93.99.1,1.16.04,1.92-.54,2.91-.67.57-1.16.71-1.98.72-.18,0-.37,0-.55.01-.63-.13-.83-.37-1.22-.94q-.13-.36-.18-.83c-.03-.26-.06-.52-.09-.78.02-.97.37-1.55.93-2.24.74-.57,1.53-.44,2.38-.31Z"/>
    <path class="cls-11" d="M34.2,102.14c.44.24.72.43,1.07.83.86.35,1.59.44,2.51.42l.18.21c.31.02.63.03.94.03.2,0,.41,0,.62,0,.23,0,.45,0,.68,0,.24,0,.47,0,.71,0,.65,0,1.3.01,1.94.01.68,0,1.35.01,2.03.02,1.28.01,2.56.02,3.85.03,1.46.01,2.92.02,4.38.03,3,.02,6.01.05,9.01.07v-1.25c.32.64.36.88.36,1.66h-24.7v-.42q-.31.02-.63.04c-.82,0-1.52-.19-2.24-.66q-.45-.56-.72-1.04Z"/>
    <path class="cls-54" d="M77.15,71.97q.87.39,1.07.62c.02.33.03.67.03,1,0,.22,0,.43,0,.66,0,.24,0,.48,0,.73,0,.25,0,.5,0,.76,0,.69,0,1.38.01,2.08,0,.72,0,1.45.01,2.17,0,1.37.02,2.74.02,4.11,0,1.56.02,3.12.03,4.68.02,3.21.04,6.41.06,9.62-.12-.07-.24-.14-.36-.21v-.42h-.36c0-2,0-3.99,0-5.99,0-.93,0-1.85,0-2.78,0-.89,0-1.79,0-2.68,0-.34,0-.68,0-1.02,0-.48,0-.96,0-1.43,0-.27,0-.54,0-.82q.02-.66.2-1.28c.02-.29.03-.59.03-.88,0-.18,0-.35,0-.53,0-.19,0-.38,0-.58,0-.2,0-.39,0-.59,0-.41,0-.83,0-1.24,0-.63.01-1.27.02-1.9,0-.4,0-.8,0-1.21,0-.19,0-.38,0-.57q0-1.07-.45-1.98c-.12-.1-.23-.19-.35-.29Z"/>
    <path class="cls-55" d="M74.29,51.37c.35.03.7.06,1.05.09q.29.03.59.05.5.07.86.27c.5.06,1,.09,1.5.13q.47.08,1.01.5c-.06.27-.12.55-.18.83-1.5.07-2.72.05-4.12-.62v-.42c-.18-.14-.35-.27-.54-.42l-.18-.42Z"/>
    <path class="cls-61" d="M81.45,79.67h.18c.16,2.55.2,5.1.21,7.66,0,.35,0,.69,0,1.04,0,.49,0,.99,0,1.48,0,.15,0,.3,0,.45,0,.98-.14,1.77-.4,2.69h-.18c0-1.46,0-2.92,0-4.39,0-.5,0-.99,0-1.49,0-.72,0-1.44,0-2.15,0-.22,0-.44,0-.66,0-1.55.08-3.08.2-4.63Z"/>
    <path class="cls-8" d="M31.33,80.08c.34.79.05,1.7-.17,2.51-.06.2-.13.4-.19.61-.07.23-.13.46-.2.7-.05.18-.1.36-.16.55h-.36c-.06,2.4-.12,4.81-.18,7.28-.37-.65-.4-.8-.41-1.55,0-.18,0-.36,0-.55,0-.19,0-.39,0-.58,0-.2,0-.4,0-.6.04-3.05.68-5.56,1.65-8.38Z"/>
    <path class="cls-57" d="M74.11,62.4c.81-.02,1.54-.02,2.33.21-.1.7-.19,1.06-.54,1.66-.2,1-.22,1.99-.22,3.02,0,.15,0,.31-.01.46,0,1.02.15,1.65.59,2.55v.42h-.36c-.98-2.09-.98-4.69-.45-6.96.09-.32.17-.63.27-.95-.53-.07-1.06-.14-1.61-.21v-.21Z"/>
    <path class="cls-43" d="M92.01,48.45c-.71.38-1.37.52-2.14.63q-.18.03-.35.05c-.37.06-.74.11-1.11.16-.37.05-.75.11-1.12.16-.34.05-.67.1-1.01.15q-.51.06-.88.3c-.77.21-1.54.31-2.33.42.53-.71.88-.95,1.68-1.08.19-.03.38-.06.58-.09.81-.1,1.63-.15,2.44-.21.87-.1,1.72-.29,2.58-.51.61-.15,1.08-.25,1.67.01Z"/>
    <path class="cls-5" d="M82.88,50.33v.62q.01.24.02.48-.02.56-.2,1.12c-.24.93-.2,1.78-.18,2.75,0,.36,0,.71,0,1.07-.06.07-.12.14-.18.21-.02.29-.02.59-.02.89,0,.18,0,.36,0,.54,0,.19,0,.37,0,.57,0,.19,0,.38,0,.57,0,.47,0,.93,0,1.4.14.06.29.11.44.17.15.08.3.16.46.25.06.21.12.41.18.62-.53-.23-.95-.46-1.43-.83-.05-.53-.07-1.02-.07-1.55,0-.16,0-.31,0-.47,0-.33,0-.66,0-.99,0-.5,0-1,0-1.5q0-4.57.95-5.89Z"/>
    <path class="cls-70" d="M22.92,56.15q.26.23.54.62.07.59.06,1.25c0,.22,0,.44,0,.66q-.05.59-.41,1.21-.04.45-.01.92.03.87-.08,1.33c-.1.53-.11,1-.11,1.54,0,.2,0,.41,0,.62,0,.21,0,.42,0,.64,0,.21,0,.43,0,.65,0,.53,0,1.06,0,1.59h-.18c-.14-.87-.2-1.7-.2-2.59,0-.25,0-.5,0-.76q0-.39,0-.79c0-.26,0-.52,0-.78q0-3.59.38-4.03c.01-.35.02-.7.01-1.05q0-.29,0-.58c0-.15,0-.3,0-.45Z"/>
    <path class="cls-60" d="M54.96,53.03q.39.07.72.21-.17.15-.35.31c-.6.57-1.17,1.16-1.75,1.76-1.43,1.49-2.89,2.93-4.35,4.38l-.36-.21q1.87-1.99,2.67-2.8c.63-.63,1.24-1.28,1.86-1.94.09-.1.18-.2.28-.3.36-.38.71-.76,1.05-1.18.08-.08.15-.16.23-.24Z"/>
    <path class="cls-21" d="M70.65,13.65c.23,0,.45,0,.69,0,.24,0,.47,0,.72,0,.24,0,.47,0,.72,0,.23,0,.45,0,.69,0,.21,0,.41,0,.63,0,.56.05.95.2,1.46.47.4.09.81.17,1.22.23q.31.05.63.11c.16.03.32.05.48.08v.21c-.83.04-1.57-.02-2.39-.21-1.25-.24-2.48-.25-3.75-.25-.2,0-.4,0-.61,0-1.05,0-2.06.06-3.09.25.89-.69,1.55-.89,2.62-.89Z"/>
    <path class="cls-9" d="M54.42,83.41c.65.76.88,1.75.93,2.81-.01.17-.02.34-.03.52h.36c.01.72.02,1.43.02,2.15q0,.3,0,.62c0,.2,0,.39,0,.59,0,.18,0,.36,0,.54q-.04.47-.4,1.1,0-.2,0-.4-.04-3.36-.74-6.59-.15-.5-.15-1.34Z"/>
    <path class="cls-50" d="M53.17,31.39h.36c-.09,1.12-.28,2.12-.59,3.19-.35,1.52-.33,3.05-.32,4.62,0,.21,0,.42,0,.64,0,.52,0,1.03,0,1.55q-.36-.42-.4-.84c0-.17,0-.35,0-.53,0-.19,0-.39,0-.58q0-.31,0-.62t0-.63q.04-4,.74-5.33.13-.77.18-1.46Z"/>
    <path class="cls-6" d="M72.86,50.74c2.16.23,4.33.48,6.44,1.04.06-.14.12-.27.18-.42v.83c-1.47-.09-2.87-.19-4.3-.62-.42-.11-.84-.23-1.26-.34-.35-.1-.71-.19-1.06-.29v-.21Z"/>
    <path class="cls-13" d="M64.62,100.89l.36.21v.62h.36c.39.68.4.82.35,1.6,0,.19-.02.37-.03.56-.01.19-.02.39-.03.59-.01.2-.02.39-.03.59-.03.48-.05.97-.08,1.45h-.36c-.04.13-.08.27-.12.4q-.23.43-.7.59c-.14.02-.28.03-.43.05q.21-.19.43-.38.5-.44.83-1.08c.04-.54.06-1.05.06-1.59q0-.22,0-.45c-.02-1.16-.2-2.09-.59-3.16Z"/>
    <path class="cls-29" d="M69.1,80.92c.55.22.71.41,1.03,1,.21.64.27,1.03.22,1.7l.36.21c.07.41.12.83.18,1.25.06.21.13.41.19.62.18.66.2,1.19.17,1.87-.41-.47-.43-.66-.54-1.3-.1-.58-.21-1.09-.38-1.65-.17-.64-.18-1.17-.16-1.83h-.36c-.08-.23-.17-.46-.26-.7-.15-.39-.29-.79-.46-1.17Z"/>
    <path class="cls-23" d="M36.7,70.93l.36.21c-.08.09-.17.19-.26.28-.62.7-1.09,1.34-1.53,2.22l-.54.21c-.13.27-.25.55-.36.83-.21.33-.43.66-.65.99-.11.17-.23.33-.34.5-.09.13-.17.25-.26.38,0-.84.35-1.24.78-1.87.08-.12.16-.24.24-.36.8-1.18,1.67-2.29,2.56-3.39Z"/>
    <path class="cls-41" d="M74.29,51.37c.71.07,1.42.14,2.15.21-.18.14-.35.27-.54.42q.53.1,1.07.21v.62c-.65-.07-1.3-.14-1.97-.21v-.42c-.18-.14-.35-.27-.54-.42l-.18-.42Z"/>
    <path class="cls-65" d="M58.54,86.33l.36.21c-.03.83-.05,1.66-.08,2.48,0,.23-.01.46-.02.7q-.09,2.74-.26,3.89c-.18.14-.35.27-.54.42q.04-.22.07-.45c.25-1.61.36-3.18.4-4.8,0-.24.01-.47.02-.72.02-.58.03-1.15.05-1.73Z"/>
    <path class="cls-10" d="M63.01,44.71l.36.21c-1.07.88-1.93.99-3.22.83-.44-.1-.83-.24-1.25-.42v-.21c.21,0,.41,0,.63.01.28,0,.55,0,.83.01.14,0,.27,0,.41.01.83,0,1.46-.12,2.25-.45Z"/>
    <path class="cls-39" d="M98.45,42.42l.18.42c-.87,1.75-1.92,3.04-3.58,3.75.51-.61,1.04-1.18,1.6-1.73.72-.72,1.27-1.52,1.8-2.43Z"/>
    <path class="cls-12" d="M47.08,56.57l.36.21c-1.19,1.11-2.39,2.22-3.58,3.33l-.36-.21c.61-.75,1.23-1.31,1.97-1.87.06-.14.12-.27.18-.42q.29-.22.63-.43t.81-.61Z"/>
    <path class="cls-51" d="M68.2,44.29q.14.36.18.83-.31.47-.75.95c-.14.16-.29.32-.43.48-.37.38-.74.73-1.14,1.07l-.18-.42c.12-.13.24-.27.36-.4.69-.8,1.33-1.66,1.97-2.51Z"/>
    <path class="cls-64" d="M57.64,94.44c.12.21.24.41.36.62-.12.27-.24.55-.36.83.21-.04.43-.09.65-.13.7-.11,1.2.01,1.86.34v.42l.54.21c-1.14-.18-2.27-.4-3.4-.62l.36-1.66Z"/>
    <path class="cls-27" d="M67.49,85.49q.36.21.55.79c.25,1.1.29,2.24.35,3.37l-.18-.42h-.36c-.12-1.25-.24-2.5-.36-3.75Z"/>
    <path class="cls-19" d="M55.38,53.07c.1.05.2.11.3.17-.11.1-.23.21-.35.31-.74.7-1.45,1.44-2.16,2.18,0-.88.33-1.1.85-1.72q.24-.28.48-.58.46-.41.88-.37Z"/>
    <path class="cls-25" d="M31.33,80.08c.34.79.05,1.7-.17,2.51-.06.2-.13.4-.19.61-.07.23-.13.46-.2.7-.05.18-.1.36-.16.55h-.18c-.06-1.28.1-2.16.54-3.33q.11-.31.21-.62c.05-.14.1-.27.15-.42Z"/>
    <path class="cls-48" d="M26.68,75.92c.41.23.78.47,1.16.75q.47.35,1.16.29c-.06.34-.12.69-.18,1.04-.94-.3-1.52-1.04-2.15-1.87v-.21Z"/>
    <path class="cls-46" d="M95.05,46.58q0,.42-.27.85c-.6.54-1.16.55-1.88.61-.3.07-.6.13-.89.21.69-.69,1.5-1.04,2.33-1.46q.36-.21.72-.21Z"/>
    <path class="cls-7" d="M53.17,31.39h.36c-.08,1.33-.38,2.34-.89,3.54h-.18q.13-1.61.54-2.08c.07-.48.13-.97.18-1.46Z"/>
    <path class="cls-15" d="M101.68,29.52h.18c.02.78.03,1.56.03,2.34q0,.33.01.67c0,.21,0,.43,0,.65,0,.2,0,.39,0,.59q-.06.53-.6,1.37c.12-1.85.24-3.71.36-5.62Z"/>
    <path class="cls-33" d="M22.92,56.15q.54.62.61,1.21c0,.22,0,.44,0,.66,0,.22,0,.44,0,.66q-.07.59-.61,1.21v-3.75Z"/>
    <path class="cls-31" d="M82.7,96.73h.89v.42q.2.02.4.04c.64.22.84.59,1.21,1.21l-.18.42c-.15-.15-.3-.31-.46-.47-.58-.57-1.2-.98-1.87-1.4v-.21Z"/>
    <path class="cls-69" d="M46.55,78.63c.47.06.93.12,1.4.18.13.02.26.03.4.05.66.09,1.04.17,1.6.6h-2.15v-.42c-.41-.07-.83-.14-1.25-.21v-.21Z"/>
    <path class="cls-26" d="M40.46,62.6l.36.21c-.54.8-.98,1.44-1.79,1.87l-.36-.21c.59-.62,1.18-1.24,1.79-1.87Z"/>
    <path class="cls-22" d="M70.53,50.12c.77.21,1.54.41,2.33.62q-.18.31-.36.62c-.26-.09-.52-.18-.78-.27-.15-.05-.29-.1-.44-.15q-.39-.2-.75-.82Z"/>
    <path class="cls-1" d="M80.91,32.02v.42c-.59.46-.78.46-1.47.44-.16,0-.32,0-.49-.01-.12,0-.25,0-.37-.01-.06-.14-.12-.27-.18-.42q.19-.02.38-.04c.16-.02.33-.03.49-.05.16-.02.32-.03.49-.05.43-.07.71-.27,1.14-.27Z"/>
    <path class="cls-47" d="M34.02,68.64c.18.07.35.14.54.21-.53.62-1.06,1.24-1.61,1.87l-.18-.62,1.25-1.46Z"/>
    <path class="cls-4" d="M19.88,56.78c.06.21.12.41.18.62-.47.48-.95.96-1.43,1.46,0-.82.25-1.06.72-1.66.18-.14.35-.27.54-.42Z"/>
    <path class="cls-38" d="M64.62,100.89l.36.21v.62h.36c.41.71.39,1.04.36,1.87-.7-.87-.88-1.57-1.07-2.71Z"/>
    <path class="cls-63" d="M75.9,59.48c1.09-.02,2.14.05,3.22.21v.21q-2.27.32-3.22-.21v-.21Z"/>
    <path class="cls-2" d="M62.48,21.82l.36.21c-.2.27-.39.55-.59.82-.11.15-.22.3-.33.46q-.33.38-.86.59c.3-.89.85-1.43,1.43-2.08Z"/>
    <path class="cls-71" d="M64.62,19.95l.36.21c-.4.74-.73.97-1.43,1.25-.24.14-.48.27-.72.42.51-.83,1.04-1.34,1.79-1.87Z"/>
    <path class="cls-67" d="M60.69,96.73h1.25c.06.21.12.41.18.62h.36v.42c-.27-.09-.53-.19-.79-.29-.15-.05-.29-.11-.45-.16q-.37-.18-.55-.59Z"/>
    <path class="cls-37" d="M55.14,90.9h.18c.09,1.26-.17,2.03-.72,3.12h-.18c-.07-.91.13-1.32.54-2.08q.13-.56.18-1.04Z"/>
    <path class="cls-20" d="M44.76,63.23l.36.21c-.35.48-.71.96-1.07,1.46-.24-.07-.47-.14-.72-.21.47-.48.95-.96,1.43-1.46Z"/>
    <path class="cls-68" d="M53.53,49.29q0,.62-.31,1.03c-.13.14-.27.28-.4.43-.13.15-.27.31-.4.47-.1.12-.21.24-.31.36l-.36-.42.54-.21c.06-.21.12-.41.18-.62h.36c.06-.21.12-.41.18-.62.18-.14.35-.27.54-.42Z"/>
    <path class="cls-36" d="M101.14,35.55l.36.21q-.29,1.61-.89,2.08c.1-.82.25-1.53.54-2.29Z"/>
    <path class="cls-35" d="M58.54,21.61l.18.83c-.47.48-.95.96-1.43,1.46q0-.62.43-1.14c.16-.17.31-.34.47-.52.12-.21.24-.41.36-.62Z"/>
    <path class="cls-32" d="M47.8,74.67v.42c.24.07.47.14.72.21h-1.97v-.42q.54-.21,1.25-.21Z"/>
    <path class="cls-34" d="M100.42,37.84c.12.21.24.41.36.62-.17.72-.41,1.18-.89,1.66.1-.82.25-1.53.54-2.29Z"/>
    <path class="cls-59" d="M73.75,100.68l.36.21q.11.64.18,1.25c.18.07.35.14.54.21q.12.43.18.83-.54-.21-.75-.62c-.06-.17-.12-.34-.18-.51-.06-.17-.12-.33-.19-.51q-.14-.44-.14-.86Z"/>
    <path class="cls-56" d="M59.79,100.27c.97.07,1.35.67,1.97,1.46l-.18.42c-.5-.46-.99-.92-1.43-1.46l-.36-.42Z"/>
    <path class="cls-42" d="M19.16,64.48h.36c.23.8.19,1.45.18,2.29h-.18c-.06-.41-.12-.82-.18-1.25q-.18.1-.36.21c.06-.41.12-.82.18-1.25Z"/>
    <path class="cls-53" d="M99.71,40.13c.12.21.24.41.36.62-.23.36-.47.7-.72,1.04h-.36c.2-.62.4-1.11.72-1.66Z"/>
    <path class="cls-30" d="M52.81,81.33c.2.19.4.38.6.57.11.11.22.21.34.32.32.37.49.7.67,1.19-.24-.19-.47-.38-.7-.57-.13-.11-.26-.21-.4-.32-.37-.39-.44-.62-.51-1.19Z"/>
    <path class="cls-14" d="M32.94,70.51c0,.76-.16,1.05-.54,1.66q-.38.24-.72.42c.18-.31.35-.62.53-.92.1-.17.2-.34.3-.52q.25-.43.43-.64Z"/>
    <path class="cls-18" d="M54.24,48.66l.36.42c-.47.48-.95.96-1.43,1.46q0-.62.44-1.17c.15-.16.3-.33.46-.49l.18-.21Z"/>
    <path class="cls-40" d="M77.87,51.99l1.43.21c-.06.14-.12.27-.18.42h-1.61c.12-.21.24-.41.36-.62Z"/>
    <path class="cls-45" d="M31.87,71.76c0,.91-.38,1.2-.89,1.87-.06-.21-.12-.41-.18-.62.12-.07.24-.14.36-.21.06-.14.12-.27.18-.42q.18-.42.54-.62Z"/>
    <path class="cls-3" d="M67.85,87.37c.46.8.46,1.34.54,2.29-.06-.14-.12-.27-.18-.42h-.36v-1.87Z"/>
    <path class="cls-44" d="M27.75,81.33c.19.71.23,1.34.18,2.08-.18.14-.35.27-.54.42.03-.3.05-.6.08-.9.01-.17.03-.33.04-.5q.06-.47.24-1.09Z"/>
    <path class="cls-62" d="M53.17,31.39h.36q-.13,1.59-.54,2.29-.02-1.59.18-2.29Z"/>
    <path class="cls-16" d="M54.42,28.69q.18.42.08.87c-.05.17-.1.34-.16.51-.05.17-.1.34-.16.52-.04.13-.08.26-.12.4-.17-.71-.18-1.16,0-1.87l.36-.42Z"/>
  </g>
</svg>