<?xml version="1.0" encoding="UTF-8"?>
<svg id="Layer_2" data-name="Layer 2" xmlns="http://www.w3.org/2000/svg" viewBox="0 0 120.11 120.22">
  <defs>
    <style>
      .cls-1 {
        fill: #b9aa94;
      }

      .cls-2 {
        fill: #a8b6a1;
      }

      .cls-3 {
        fill: #85a18e;
      }

      .cls-4 {
        fill: #c4b79e;
      }

      .cls-5 {
        fill: #e2ddc4;
      }

      .cls-6 {
        fill: #baad96;
      }

      .cls-7 {
        fill: #644f3a;
      }

      .cls-8 {
        fill: #442b19;
      }

      .cls-9 {
        fill: #59422c;
      }

      .cls-10 {
        fill: #a8ab93;
      }

      .cls-11 {
        fill: #a1a993;
      }

      .cls-12 {
        fill: #cfc3ac;
      }

      .cls-13 {
        fill: #727a65;
      }

      .cls-14 {
        fill: #e2dcc2;
      }

      .cls-15 {
        fill: #bdc4ac;
      }

      .cls-16 {
        fill: #bbab92;
      }

      .cls-17 {
        fill: #ebe2c8;
      }

      .cls-18 {
        fill: #afa18c;
      }

      .cls-19 {
        fill: #b7a791;
      }

      .cls-20 {
        fill: #d1d1b6;
      }

      .cls-21 {
        fill: #beb29e;
      }

      .cls-22 {
        fill: #beaf98;
      }

      .cls-23 {
        fill: #bfb29f;
      }

      .cls-24 {
        fill: #a0b49a;
      }

      .cls-25 {
        fill: #bdad97;
      }

      .cls-26 {
        fill: #cfc2ab;
      }

      .cls-27 {
        fill: #beb09b;
      }

      .cls-28 {
        fill: #ced3b7;
      }

      .cls-29 {
        fill: #cbbea5;
      }

      .cls-30 {
        fill: #74614d;
      }

      .cls-31 {
        fill: #bdb099;
      }

      .cls-32 {
        fill: #6e5942;
      }

      .cls-33 {
        fill: #c0b39a;
      }

      .cls-34 {
        fill: #757f69;
      }

      .cls-35 {
        fill: #7d9d88;
      }

      .cls-36 {
        fill: #51513f;
      }

      .cls-37 {
        fill: #d3c8ac;
      }

      .cls-38 {
        fill: #d3c8b1;
      }

      .cls-39 {
        fill: #88937d;
      }

      .cls-40 {
        fill: #a89781;
      }

      .cls-41 {
        fill: #d7d6bd;
      }

      .cls-42 {
        fill: #6b5641;
      }

      .cls-43 {
        fill: #57412c;
      }

      .cls-44 {
        fill: #9e8f79;
      }

      .cls-45 {
        fill: #b3a28b;
      }

      .cls-46 {
        fill: #60513c;
      }

      .cls-47 {
        fill: #c6c0a7;
      }

      .cls-48 {
        fill: #432815;
      }

      .cls-49 {
        fill: #5b4733;
      }

      .cls-50 {
        fill: #614c38;
      }

      .cls-51 {
        fill: #473422;
      }

      .cls-52 {
        fill: #7e9b85;
      }

      .cls-53 {
        fill: #c8bba6;
      }

      .cls-54 {
        fill: #432814;
      }

      .cls-55 {
        fill: #b2a38b;
      }

      .cls-56 {
        fill: #f0eedf;
      }

      .cls-57 {
        fill: #b8c0a7;
      }

      .cls-58 {
        fill: #c0b4a0;
      }

      .cls-59 {
        fill: #ccbfa5;
      }

      .cls-60 {
        fill: #837561;
      }

      .cls-61 {
        fill: #d5dbbf;
      }
    </style>
  </defs>
  <g id="Layer_1-2" data-name="Layer 1">
    <g>
      <rect class="cls-56" x=".09" y=".15" width="119.87" height="119.87" rx="20" ry="20"/>
      <path d="M99.96,120.03c-15.23.02-62.03.07-76.5.09C10.9,121.23.24,112.99,0,100.02c0-10.32.06-60.36.05-69.55.12-4.02-.33-9.96.32-13.9.83-4.57,3.28-8.84,6.86-11.82C10.81,1.77,15.44.1,20.09.08c0,0,55.64-.04,55.64-.04,0,0,13.91,0,13.91,0,4.03.13,9.95-.33,13.91.34,9.36,1.55,16.64,10.3,16.53,19.78-.01,15.23-.04,62.03-.07,76.5,1.08,12.52-7.13,23.15-20.06,23.38h0ZM99.96,120.01c12.85-.25,21.07-10.88,19.94-23.35-.03-14.2-.05-61.55-.07-76.5.11-9.36-7.08-18.02-16.33-19.55-3.89-.65-9.85-.21-13.87-.34,0,0-13.91,0-13.91,0,0,0-55.64-.04-55.64-.04-4.62.02-9.22,1.66-12.77,4.62C3.76,7.81,1.31,12.04.48,16.59c-.66,3.9-.22,9.85-.35,13.88.02,8.9.03,59.52.05,69.55.24,12.81,10.84,20.99,23.27,19.9,14.2.01,61.55.07,76.5.09h0Z"/>
    </g>
    <path class="cls-17" d="M55.01,19.85c.46,0,.92,0,1.39,0,2.57,0,4.95.42,7.45,1.32.22.08.44.15.67.23,2.19.75,4.39,1.65,6.3,3.43.42.34.75.49,1.21.67.75.35,1.07.81,1.54,1.71.33.56.68.97,1.08,1.41,1.6,1.81,3.37,3.99,4.03,6.86.45.2.88.35,1.35.49,1.66.52,3.22,1.21,4.77,2.26.57.35,1.16.62,1.75.9.89.42,1.7.85,2.48,1.63.06.17.11.33.17.5q.35.16.69.25v.5q.28.07.57.14c1.41.51,2.58,1.87,3.57,3.37.25.3.51.6.77.89,2.87,3.32,5.68,6.88,7.85,11.21.32.64.66,1.22,1.03,1.81q1.06,1.74,1.04,2.94c-.04.49-.1.98-.16,1.47h-.34c-.05.18-.09.37-.14.55-1.02,3.46-3.17,6.36-4.98,8.98-.09.13-.18.26-.28.4-1.35,1.95-2.72,3.75-4.26,5.37-.16.19-.32.37-.49.57q-4.97,5.71-7.1,5.71c-.03.15-.07.31-.11.47-.35.77-.71.82-1.32,1.05-.59.23-1.1.43-1.62.86-.69.45-1.33.58-2.08.75-.94.22-1.85.57-2.77.9-.37.13-.74.27-1.11.4-.16.06-.32.12-.49.18-.98.31-1.92.44-2.92.43-.22,0-.44,0-.67,0-.23,0-.46,0-.69,0-.24,0-.47,0-.71,0-.57,0-1.15,0-1.72-.01q-.08.23-.15.47c-.79,2.22-2.61,4.74-4.21,5.62-.15.06-.3.12-.46.19v.5c-.11.06-.22.12-.33.18-1.15.65-2.26,1.33-3.29,2.33-.45.14-.89.26-1.35.36-.94.22-1.86.48-2.78.82-.97.31-1.91.4-2.9.41-.14,0-.27,0-.41,0q-.97-.02-1.36-.58c-.15-1.95.06-3.87.34-5.77h.34c0-.14,0-.29,0-.43.08-1.94.51-3.56,1.03-5.34h.34v-2.76c-.26-.17-.53-.34-.8-.52-.89-.64-1.37-1.34-1.96-2.49-.11.08-.23.17-.34.25-.4.01-.8.01-1.21,0v-.5c-.12-.07-.25-.13-.37-.2-.52-.32-.96-.72-1.43-1.17-.52-.49-1.01-.93-1.56-1.33-.41-.3-.64-.59-.95-1.07-.17-.08-.34-.17-.52-.25l-.52-.75c-.29-.25-.57-.5-.86-.75q-.48-.52-.86-1v-.5c-.12-.02-.24-.03-.37-.05-.52-.22-.8-.53-1.2-1.05-1.2-1.5-2.51-2.81-3.82-4.08-.1-.12-.2-.23-.3-.35v-.5c-.77.58-1.29,1.38-1.86,2.31-3.55,5.64-7.16,11.28-12.1,14.26-.16.1-.31.19-.48.29-1.25.74-2.24,1.02-3.59,1.04-.15,0-.3.01-.45.02q-1.08.02-1.53-.55c-.24-.82-.22-1.43-.16-2.31q.12-.34.24-.69c.3-.88.45-1.71.61-2.66.06-.36.12-.71.18-1.07.03-.18.06-.36.09-.55.14-.87.29-1.75.45-2.62.06-.33.11-.66.17-.99l.68-3.97h.34q.02-.3.04-.61c.42-2.91,1.72-5.76,3.17-7.81.37-.55.54-.94.75-1.62-.27-.44-.55-.88-.82-1.32-.15-.24-.3-.49-.46-.74-.27-.43-.55-.84-.84-1.24-.4-.62-.42-1.14-.47-1.97h-.34q-.06-.23-.12-.46c-.29-1.09-.59-2.12-.99-3.13-.55-1.53-.76-3.21-1.01-4.89-.03-.22-.07-.45-.1-.67-.03-.2-.06-.4-.09-.61q-.1-.6-.45-1.28c-.12-.58-.24-1.17-.34-1.76-.06-.25-.11-.5-.17-.75-.01-.52-.01-1.04-.01-1.55,0-.27,0-.55,0-.83,0-.21,0-.42,0-.63h-.34q-.13-2.24.32-3.17c1.36-.87,3.06-.32,4.42.38.42.25.84.51,1.26.78.28.18.56.36.84.53.13.08.26.16.39.25.4.25.81.49,1.21.72v.5c.15.06.3.12.46.19.61.34.98.72,1.48,1.33.17.21.33.41.5.62.16.2.32.41.49.62.13.16.26.32.4.49,1.01,1.29,1.97,2.66,2.92,4.03.13.19.27.38.4.57.74,1.07,1.36,2.15,1.92,3.44.3.68.65,1.27,1.02,1.87.32.53.63,1.09.93,1.65.69-.13,1.04-.39,1.55-1.08.94-1.28,1.96-2.37,3.01-3.47.14-.14.27-.29.41-.43.41-.43.82-.86,1.23-1.29.12-.12.23-.24.35-.37.51-.53,1.02-1.06,1.53-1.59.32-.33.63-.66.95-1,1.45-1.54,3.03-2.78,4.58-4.07.23-.2.47-.39.7-.59.17-.14.33-.28.5-.42q-.21-.35-.42-.71c-.49-.83-.97-1.67-1.45-2.51-.13-.23-.27-.47-.41-.71q-.3-.59-.3-1.09h-.34c-.25-1-.49-2-.74-3-.08-.34-.16-.67-.25-1.01-.47-1.92-.88-3.72-.91-5.78,0-.17,0-.33-.01-.5-.01-.57-.02-1.14-.03-1.71,0-.18,0-.37-.01-.56,0-1.13.07-1.88.57-2.75.54-.24,1-.39,1.55-.5.16-.04.32-.08.49-.13,1.67-.4,3.3-.45,4.98-.44Z"/>
    <path class="cls-48" d="M55.01,19.85c.46,0,.92,0,1.39,0,2.57,0,4.95.42,7.45,1.32.22.08.44.15.67.23,2.19.75,4.39,1.65,6.3,3.43.42.34.75.49,1.21.67.75.35,1.07.81,1.54,1.71.33.56.68.97,1.08,1.41,1.6,1.81,3.37,3.99,4.03,6.86.45.2.88.35,1.35.49,1.66.52,3.22,1.21,4.77,2.26.57.35,1.16.62,1.75.9.89.42,1.7.85,2.48,1.63.06.17.11.33.17.5q.35.16.69.25v.5q.28.07.57.14c1.41.51,2.58,1.87,3.57,3.37.25.3.51.6.77.89,2.87,3.32,5.68,6.88,7.85,11.21.32.64.66,1.22,1.03,1.81q1.06,1.74,1.04,2.94c-.04.49-.1.98-.16,1.47h-.34c-.05.18-.09.37-.14.55-1.02,3.46-3.17,6.36-4.98,8.98-.09.13-.18.26-.28.4-1.35,1.95-2.72,3.75-4.26,5.37-.16.19-.32.37-.49.57q-4.97,5.71-7.1,5.71c-.03.15-.07.31-.11.47-.35.77-.71.82-1.32,1.05-.59.23-1.1.43-1.62.86-.69.45-1.33.58-2.08.75-.94.22-1.85.57-2.77.9-.37.13-.74.27-1.11.4-.16.06-.32.12-.49.18-.98.31-1.92.44-2.92.43-.22,0-.44,0-.67,0-.23,0-.46,0-.69,0-.24,0-.47,0-.71,0-.57,0-1.15,0-1.72-.01q-.08.23-.15.47c-.79,2.22-2.61,4.74-4.21,5.62-.15.06-.3.12-.46.19v.5c-.11.06-.22.12-.33.18-1.15.65-2.26,1.33-3.29,2.33-.45.14-.89.26-1.35.36-.94.22-1.86.48-2.78.82-.97.31-1.91.4-2.9.41-.14,0-.27,0-.41,0q-.97-.02-1.36-.58c-.15-1.95.06-3.87.34-5.77h.34c0-.14,0-.29,0-.43.08-1.94.51-3.56,1.03-5.34h.34c.02-.18.04-.35.07-.53.79-5.35,3.79-9.61,6.84-12.54.51-.47.96-.8,1.55-.99.06-.17.11-.33.17-.5,1.08-.68,2.27-.86,3.44-1q.19-.03.38-.06.37-.03,1.01.06c.54.73.67,1.1.79,2.17q-.1.85-.47,1.26c-.51.36-.92.48-1.48.57-.98.21-1.76.59-2.63,1.27q-.2.16-.41.32c-3.35,2.77-5.91,6.98-7.01,12.37-.05.28-.11.57-.16.86-.17.69-.35,1.38-.53,2.07-.16.73-.25,1.44-.33,2.2.12-.03.23-.06.36-.09.53-.14,1.06-.27,1.59-.41q.28-.07.56-.15c.18-.05.35-.09.54-.14.16-.04.33-.08.5-.13q.42-.09.94-.09v-.5q.18-.07.36-.14c.16-.06.31-.13.47-.19.15-.06.31-.12.47-.19.45-.25.62-.49.95-.99.31-.26.62-.51.93-.75,2-1.67,3.49-3.72,4.76-6.53.16-.3.32-.6.48-.89.41-.84.58-1.7.76-2.68.14-.75.32-1.48.5-2.21.26-1.1.41-2.1.43-3.26.09-.67.25-1.01.58-1.49q.41-.13.86-.13.22,0,.45,0,.41.13.72.56c.63,1.75.18,4.13-.16,5.94-.18.78-.38,1.46-.67,2.17h-.34c-.06.58-.11,1.16-.17,1.76,5.28-.23,10.5-2.01,15.03-6.06q.32-.21,1.01-.21v-.5q.29-.29.71-.63c1.2-1.02,2.31-2.19,3.43-3.39.1-.11.2-.22.31-.33,1.01-1.1,2-2.19,2.87-3.53.3-.44.61-.83.93-1.22,1.37-1.72,2.5-3.73,3.53-5.88q.29-.58.6-.96t.2-.95c-.21-.87-.55-1.53-.94-2.25-.08-.15-.16-.3-.25-.45-1.54-2.75-3.34-5.21-5.18-7.52-.1-.12-.19-.24-.29-.37-1.18-1.49-2.37-2.9-3.68-4.15-.16-.15-.32-.3-.48-.46-.91-.86-1.82-1.63-2.8-2.3-.22-.16-.44-.32-.66-.49-.7-.51-1.41-.98-2.13-1.45-.31-.2-.62-.42-.92-.64-1.11-.79-2.24-1.3-3.44-1.75-.63-.24-1.24-.5-1.84-.84-.6-.34-1.18-.52-1.82-.64-.19-.04-.37-.07-.56-.11-1.91-.31-3.82-.42-5.74-.42-.13,0-.25,0-.38,0-1.73,0-3.39.08-5.08.69-.41.15-.83.27-1.24.4-1.66.53-3.2,1.19-4.76,2.16-.75.43-1.49.67-2.29.83v.5c-.75.61-1.38.88-2.24,1v.5c-.46.17-.91.33-1.38.5v.5c-.19.12-.38.24-.58.36-.33.2-.65.41-.97.64-.06.25-.11.5-.17.75-.28.19-.57.38-.86.55-1.22.71-2.28,1.71-3.35,2.82-.15.15-.3.31-.46.47-1.34,1.38-2.64,2.83-3.94,4.3-.72.8-1.44,1.59-2.17,2.38-.62.67-1.22,1.37-1.82,2.1-.49.56-.68.69-1.31.86-1.11-.34-1.74-1.31-2.39-2.6-.07-.14-.14-.28-.22-.43-.33-.64-.65-1.28-.98-1.92-1.34-2.65-2.75-5.03-4.4-7.27-.13-.18-.26-.35-.39-.54-.79-1.04-1.64-1.92-2.52-2.8-.12-.14-.24-.28-.37-.43v-.5c-.11-.02-.23-.04-.34-.06-.68-.25-1.3-.65-1.9-1.19-.06-.17-.11-.33-.17-.5q-.44-.23-.96-.41c-.17-.07-.35-.13-.53-.2-.13-.05-.27-.1-.41-.15.04.17.07.35.11.52.22,1.14.43,2.23.5,3.41.06.95.23,1.71.47,2.58.14.53.21,1.05.28,1.61.16,1.14.49,2.07.86,3.09.23.69.32,1.33.36,2.09h.34c.24.48.47.97.69,1.47.82,1.79,1.76,3.61,3.06,4.69q.39.36.56,1.27c-.03.81-.15,1.07-.55,1.66-.5.58-1.01,1.14-1.52,1.7-1.4,1.76-2.23,3.81-2.93,6.28q-.12.3-.25.6c-.73,1.81-1.02,3.95-1.33,5.98-.03.18-.06.37-.09.56-.19,1.3-.31,2.59-.4,3.91.83-.3,1.54-.71,2.29-1.3q.29-.2.64-.2v-.5c.39-.35.78-.68,1.17-1,1.27-1.06,2.26-2.28,3.31-3.77.23-.29.46-.58.69-.86q1.6-2.03,2.93-4.41h.34c.04-.14.07-.27.11-.41.33-.83.8-1.4,1.28-2.04.2-.27.41-.53.61-.8q.15-.2.3-.39c.25-.33.48-.68.72-1.03q.89-1.3,1.53-1.46c.88.08,1.22.43,1.83,1.36.34.39.68.78,1.02,1.16.2.22.4.45.61.67.1.11.2.23.31.34.46.51.91,1.03,1.37,1.54q3.31,3.92,7.04,6.82v.5c.12.06.23.12.36.19,1.02.63,1.97,1.41,2.75,2.57q.06.83,0,1.51h-.34c-.05.16-.1.31-.15.47q-.19.53-.54,1.04c-1.01.24-1.61-.42-2.41-1.21-.24-.23-.47-.45-.71-.68-.11-.11-.23-.22-.34-.33-.44-.4-.9-.72-1.36-1.05-.18-.25-.35-.5-.52-.75-.17-.08-.34-.17-.52-.25l-.52-.75c-.29-.25-.57-.5-.86-.75q-.48-.52-.86-1v-.5c-.12-.02-.24-.03-.37-.05-.52-.22-.8-.53-1.2-1.05-1.2-1.5-2.51-2.81-3.82-4.08-.1-.12-.2-.23-.3-.35v-.5c-.77.58-1.29,1.38-1.86,2.31-3.55,5.64-7.16,11.28-12.1,14.26-.16.1-.31.19-.48.29-1.25.74-2.24,1.02-3.59,1.04-.15,0-.3.01-.45.02q-1.08.02-1.53-.55c-.24-.82-.22-1.43-.16-2.31q.12-.34.24-.69c.3-.88.45-1.71.61-2.66.06-.36.12-.71.18-1.07.03-.18.06-.36.09-.55.14-.87.29-1.75.45-2.62.06-.33.11-.66.17-.99l.68-3.97h.34q.02-.3.04-.61c.42-2.91,1.72-5.76,3.17-7.81.37-.55.54-.94.75-1.62-.27-.44-.55-.88-.82-1.32-.15-.24-.3-.49-.46-.74-.27-.43-.55-.84-.84-1.24-.4-.62-.42-1.14-.47-1.97h-.34q-.06-.23-.12-.46c-.29-1.09-.59-2.12-.99-3.13-.55-1.53-.76-3.21-1.01-4.89-.03-.22-.07-.45-.1-.67-.03-.2-.06-.4-.09-.61q-.1-.6-.45-1.28c-.12-.58-.24-1.17-.34-1.76-.06-.25-.11-.5-.17-.75-.01-.52-.01-1.04-.01-1.55,0-.27,0-.55,0-.83,0-.21,0-.42,0-.63h-.34q-.13-2.24.32-3.17c1.36-.87,3.06-.32,4.42.38.42.25.84.51,1.26.78.28.18.56.36.84.53.13.08.26.16.39.25.4.25.81.49,1.21.72v.5c.15.06.3.12.46.19.61.34.98.72,1.48,1.33.17.21.33.41.5.62.16.2.32.41.49.62.13.16.26.32.4.49,1.01,1.29,1.97,2.66,2.92,4.03.13.19.27.38.4.57.74,1.07,1.36,2.15,1.92,3.44.3.68.65,1.27,1.02,1.87.32.53.63,1.09.93,1.65.69-.13,1.04-.39,1.55-1.08.94-1.28,1.96-2.37,3.01-3.47.14-.14.27-.29.41-.43.41-.43.82-.86,1.23-1.29.12-.12.23-.24.35-.37.51-.53,1.02-1.06,1.53-1.59.32-.33.63-.66.95-1,1.45-1.54,3.03-2.78,4.58-4.07.23-.2.47-.39.7-.59.17-.14.33-.28.5-.42q-.21-.35-.42-.71c-.49-.83-.97-1.67-1.45-2.51-.13-.23-.27-.47-.41-.71q-.3-.59-.3-1.09h-.34c-.25-1-.49-2-.74-3-.08-.34-.16-.67-.25-1.01-.47-1.92-.88-3.72-.91-5.78,0-.17,0-.33-.01-.5-.01-.57-.02-1.14-.03-1.71,0-.18,0-.37-.01-.56,0-1.13.07-1.88.57-2.75.54-.24,1-.39,1.55-.5.16-.04.32-.08.49-.13,1.67-.4,3.3-.45,4.98-.44Z"/>
    <path class="cls-35" d="M55.45,24.09c.48,0,.97-.01,1.45-.02,2.07-.02,3.91.37,5.91,1.12.41.12.81.23,1.22.35,2.08.64,4.12,1.79,6.02,3.17v.5c.12.06.25.13.38.2,1.53.96,2.97,2.84,4.11,4.57v.5c-.16,0-.33.01-.49.02-.62.02-1.24.05-1.86.07-.27.01-.53.02-.8.03q-3.47.08-6.91.72c-.11.03-.23.06-.34.1-.84.25-1.66.56-2.48.92-.43.15-.82.16-1.26.14v.5c-.12.05-.23.1-.36.15-.53.23-1.06.46-1.59.69-.18.08-.37.16-.56.24-.18.08-.35.16-.54.24-.16.07-.33.14-.5.22q-.46.21-.94.72c-1.06-.04-1.51-.79-2.22-1.84q-1.92-2.97-1.92-4.43c-.17-.08-.34-.17-.52-.25q-.15-.47-.28-1.08c-.05-.22-.09-.45-.14-.68q-.07-.36-.14-.72c-.05-.24-.09-.48-.14-.73-.3-1.64-.46-3.13-.34-4.83,1.74-.57,3.45-.6,5.22-.6Z"/>
    <path class="cls-52" d="M67.63,73.27q.21-.01.42-.03c.74,0,1.05.02,1.64.72.12.22.24.44.37.67q.76,1.2,1.72,2.01l-.17.25c-.02.32-.04.63-.05.96-.09,1.26-.34,2.38-.63,3.57-.16.67-.28,1.33-.39,2.02-.32,1.57-.99,2.73-1.68,4q-.15.31-.31.64c-1.23,2.44-3.1,4.7-5.03,5.89h-.34q-.09.37-.17.75-.85.25-1.72.5v.5c-.52.17-1.04.34-1.56.5-.15.05-.29.1-.44.15-.85.27-1.61.41-2.48.36.06-1.36.21-2.53.56-3.79q.15-.52.28-1.29c1.09-5.27,3.74-9.92,7.06-12.6.3-.22.59-.43.89-.64.2-.14.39-.29.59-.44.72-.37,1.43-.53,2.19-.68.49-.13.9-.34,1.36-.63q-.08-1.56-.69-2.76c-.51-.04-.94-.03-1.44.05-.13.01-.26.03-.39.04-.66.08-1.31.19-1.95.41.45-1.31,1.54-1.1,2.4-1.11Z"/>
    <path class="cls-54" d="M81.45,46.93q.33.09.76.47c.38.93.32,1.56.26,2.64l-.17.75c-.17.08-.34.17-.52.25q-.21.58-.38,1.27c-.06.23-.12.46-.18.7q-.07.27-.13.54h-.34c-.02.19-.04.38-.06.57-.03.25-.06.49-.09.75-.03.24-.06.49-.08.74q-.11.7-.28,1.18c-1.36,4.16-.16,10.66.81,14.75.25.89.53,1.66.92,2.44.42.97.42,2.05.35,3.17q-.27.61-.69,1-1.03.18-1.54-.35-.18-.41-.18-.91h-.34c-.06-.23-.13-.47-.19-.71-.24-.82-.52-1.57-.83-2.34-1.36-3.58-1.62-7.48-1.61-11.5,0-.32,0-.64,0-.96,0-2.77.1-5.45.92-7.98q.41-1.27.68-2.62h.34c.01-.18.03-.35.04-.53.16-.9.44-1.48.82-2.23.1-.2.2-.39.3-.6.5-.52.84-.55,1.44-.5Z"/>
    <path class="cls-5" d="M55.45,24.09c.48,0,.97-.01,1.45-.02,2.07-.02,3.91.37,5.91,1.12.41.12.81.23,1.22.35,2.08.64,4.12,1.79,6.02,3.17v.5c.12.06.25.13.38.2,1.53.96,2.97,2.84,4.11,4.57v.5c-1.03.18-1.58-.39-2.39-1.22-.12-.12-.24-.23-.36-.35-.3-.3-.58-.61-.87-.94v-.5c-.1-.04-.2-.08-.3-.12-1.44-.6-2.86-1.33-4.21-2.26-.88-.55-1.83-.77-2.77-1.04q-.27-.08-.55-.16c-2.11-.61-4.2-.73-6.35-.74-.4,0-.79-.01-1.19-.02-1.35-.01-2.56.08-3.86.67-.45.17-.83.19-1.29.16-.33-.97-.18-2.19-.17-3.26,1.74-.57,3.45-.6,5.22-.6Z"/>
    <path class="cls-14" d="M70.4,80.66h.34c.15,2.77-.76,4.69-1.9,6.78q-.15.31-.31.64c-1.23,2.44-3.1,4.7-5.03,5.89h-.34c-.06.25-.11.5-.17.75l-1.72.5v.5c-.52.17-1.04.34-1.56.5-.15.05-.29.1-.44.15-.85.27-1.61.41-2.48.36.06-.41.11-.83.17-1.26h.34q.07-.26.14-.52c.23-.84.48-1.67.72-2.49.21,0,.43-.02.65-.03,1.93-.1,3.59-.41,5.39-1.48v-.5c.28-.28.57-.54.86-.78,2.12-1.91,3.56-4.82,4.83-7.88.16-.38.34-.75.51-1.12Z"/>
    <path class="cls-8" d="M90.92,55.31c.19.43.37.86.53,1.31q.18.51.51,1.2c.14.99.16,1.9-.23,2.77-.18.3-.37.59-.57.87q-.29.39-.42,1.13c-.46.22-.73.29-1.21.28q-.18,0-.36,0c-.83-.08-1.17-.7-1.71-1.54q-.18-.22-.37-.45c-.52-.89-.43-1.71-.4-2.83.14-1.35.62-1.84,1.32-2.71.87-.51,2.01-.52,2.9-.03Z"/>
    <path class="cls-24" d="M53.85,80.66c.59.11,1.06.37,1.6.74.77.52,1.54.8,2.37,1.02q-.12.25-.23.5c-.77,1.69-1.34,3.38-1.84,5.28-.21-.62-.18-1.07-.17-1.76-.09-.06-.18-.11-.27-.17-.89-.59-1.44-1.13-1.97-2.34q.01-.6.17-1.26c.06-.36.12-.72.18-1.08.05-.31.11-.61.16-.93Z"/>
    <path class="cls-61" d="M70.4,80.66h.34c.15,2.77-.76,4.69-1.9,6.78-.2.39-.4.78-.6,1.18-.14.28-.29.55-.43.83-.11-.25-.23-.5-.34-.75l.17-.5q-.64.28-1.03,1c-.23-.08-.46-.17-.69-.25.1-.13.19-.27.29-.41,1.45-2.06,2.63-4.24,3.68-6.76.16-.38.34-.75.51-1.12ZM68.5,86.68q-.17.37-.34.75l.52-.25-.17-.5Z"/>
    <path class="cls-55" d="M82.64,88.19v.5c-.11.03-.22.07-.33.1-.14.04-.28.09-.43.13-.14.04-.28.09-.43.13q-.35.09-.53.39c-.24.09-.48.17-.72.24-.15.04-.3.09-.45.13-.16.04-.31.09-.48.14-.15.04-.3.09-.46.14-1.78.51-3.49.68-5.3.76-.23.01-.47.02-.7.03-.57.03-1.14.05-1.71.08v.5h-.34q-.05.2-.11.41c-.32.83-.77,1.45-1.23,2.12q-.13.2-.27.4c-.56.82-1.09,1.41-1.84,1.84-.11-.08-.23-.17-.34-.25.12-.13.23-.26.35-.4q1.97-2.23,3.44-5.13c.13,0,.26,0,.39,0,3.6-.05,6.94-.64,10.4-2.11q.41-.14,1.1-.14Z"/>
    <path class="cls-28" d="M70.4,80.66h.34c.14,2.55-.63,4.61-1.72,6.53h-.17c-.07-1.31.13-2.1.52-3.26l-.34.25c.27-.79.56-1.56.86-2.32.09-.22.18-.45.27-.68.08-.17.16-.34.25-.51Z"/>
    <path class="cls-2" d="M57.99,90.95h.34c.06.33.11.66.17,1,.97.08,1.93.17,2.93.25v.25h-3.28c-.06.41-.11.83-.17,1.26-.2.61-.45,1.17-.69,1.76h-.34l-.17.75c.08-1.61.41-4.11,1.21-5.27Z"/>
    <path class="cls-53" d="M33.67,76.64c0,.95-.14,1.24-.52,2.01-.29.4-.6.78-.91,1.15q-.3.35-.57.76c-.43.61-.94,1-1.49,1.34-.4.34-.48.67-.66,1.27l-.34.5q-.37-.09-.69-.25.22-.27.44-.54c.6-.74,1.2-1.48,1.8-2.22.13-.16.26-.33.4-.5.89-1.11,1.71-2.3,2.53-3.52Z"/>
    <path class="cls-1" d="M101.44,69.62c.06.25.11.5.17.75-.08.1-.15.2-.23.31q-1.96,2.62-3.76,5.48c-.37.55-.72.91-1.19,1.24l-.34-.25c.13-.17.25-.33.38-.5,1.71-2.26,3.34-4.64,4.96-7.03Z"/>
    <path class="cls-59" d="M71.81,90.51q.48.08.83.19v.25h-1.55v.5h-.34c-.04.13-.07.27-.11.41-.32.83-.77,1.45-1.23,2.12-.09.13-.18.27-.27.4-.56.82-1.09,1.41-1.84,1.84l-.34-.25c.11-.13.23-.26.35-.39.85-.97,1.58-1.9,2.26-3.11.67-1.18,1.13-1.97,2.25-1.96Z"/>
    <path class="cls-21" d="M19.19,36.73c1.08.08,2.16.17,3.28.25v.5c.21.05.41.09.63.14,1.2.38,2.26,1.28,3.34,2.12q-.34.25-.81.04c-.19-.11-.38-.22-.58-.33-.2-.12-.4-.23-.61-.35-.48-.29-.95-.6-1.43-.92-1.14-.75-2.41-.87-3.64-.69q-.52.33-.86.75c-.06-.17-.11-.33-.17-.5.11-.07.22-.14.33-.22q.38-.24.53-.78Z"/>
    <path class="cls-47" d="M53.33,80.41h.86q-.17.12-.34.25c0,.23.01.46.02.69-.02.81-.13,1.12-.37,1.82.05.85.32,1.36.69,2.01-.65-.37-.97-.94-1.38-1.76q-.17.12-.34.25c-.4.01-.8.01-1.21,0v-.25q.28-.09.57-.19c.66-.33.8-.5,1.15-1.32h.34v-1.51Z"/>
    <path class="cls-23" d="M62.33,20.01c.16.03.31.06.47.08q.18.04.36.07v.5c.13.03.27.06.4.08,1.08.24,2.04.55,3.04,1.17-.6.3-.98.2-1.58-.05-.92-.36-1.84-.69-2.77-1-.26-.09-.51-.17-.77-.26-.19-.06-.38-.13-.57-.19.6-.58.73-.54,1.41-.41Z"/>
    <path class="cls-6" d="M20.22,74.13h.34c-.32,2.35-.65,4.69-1.03,7.03h-.17q0-3.14.24-4.24c.05-.22.09-.44.14-.66.16-.71.32-1.42.48-2.13Z"/>
    <path class="cls-18" d="M47.64,28.95c.37.82.56,1.62.77,2.54.04.17.08.34.11.51.08.33.15.67.22,1,.14.61.28,1.22.42,1.83.07.3.14.59.2.89h-.34v-.75h-.34c-.02-.16-.04-.32-.06-.49-.03-.21-.06-.41-.09-.63q-.04-.31-.08-.63c-.04-.17-.07-.34-.11-.52-.11-.08-.23-.17-.34-.25-.26-1.13-.4-2.32-.34-3.51Z"/>
    <path class="cls-57" d="M70.23,83.42l.17.5c-.22.61-.44,1.18-.69,1.76-.06.15-.13.3-.19.45-.16.36-.33.71-.5,1.06h-.17c-.1-1.42.15-2.12.69-3.26q.39-.36.69-.5Z"/>
    <path class="cls-50" d="M60.74,77.9l.34.25c-.92,1.54-1.85,2.97-2.93,4.27q0-.75.24-1.18c.11-.15.22-.31.33-.47.12-.17.23-.33.35-.51.12-.17.25-.35.37-.53q.19-.26.37-.53c.31-.44.61-.87.92-1.3Z"/>
    <path class="cls-40" d="M82.64,88.19v.5q-.17.05-.33.1t-.43.13c-.14.04-.28.09-.43.13q-.35.09-.53.39c-1.1.44-2.14.56-3.28.5.5-.39.97-.63,1.52-.83q.24-.08.48-.17.25-.08.5-.17c.16-.06.33-.12.5-.17.7-.24,1.28-.42,2-.42Z"/>
    <path class="cls-49" d="M68.5,87.94c0,1.05-.31,1.66-.78,2.45q-.26.31-.78.56c-.24.41-.47.83-.69,1.26-.23-.08-.46-.17-.69-.25.15-.18.31-.37.47-.56.2-.25.41-.49.61-.74.1-.12.2-.24.31-.37.59-.72,1.09-1.44,1.55-2.35Z"/>
    <path class="cls-16" d="M22.46,79.15h.17v3.51c.23.17.46.33.69.5q-.17.25-.7.27c-.17,0-.33-.01-.51-.02-.04-1.52.05-2.8.34-4.27Z"/>
    <path class="cls-29" d="M27.64,65.1l.34.25c-.08.13-.15.25-.23.39-.1.17-.21.35-.32.52-.11.18-.22.37-.33.55-.27.46-.53.92-.79,1.39-.36.59-.59.89-1.09,1.16.25-1.26.77-1.96,1.4-2.84.1-.14.19-.28.29-.42.24-.34.48-.67.72-1.01Z"/>
    <path class="cls-39" d="M59.02,87.19c.19.69.18.98.01,1.7q-.12.36-.24.73c-.08.24-.16.49-.24.74q-.23.59-.57.84c-.11.25-.23.5-.34.75.11-1,.32-1.87.59-2.81.07-.26.15-.52.23-.8q.22-.66.56-1.17Z"/>
    <path class="cls-22" d="M19.19,81.16c.23.92.11,1.41-.15,2.29-.06.22-.13.44-.19.66-.11.36-.23.71-.35,1.06-.01.39-.01.77-.01,1.16,0,.21,0,.41,0,.62,0,.16,0,.31,0,.48-.11-.08-.23-.17-.34-.25-.04-1.45.02-2.64.34-4.02h.34c.02-.28.05-.57.08-.86q.1-.89.27-1.15Z"/>
    <path class="cls-43" d="M32.29,72.88c.17.08.34.17.52.25-.3.45-.6.89-.91,1.33-.08.13-.17.25-.26.38-.45.66-.9,1.27-1.42,1.8l-.34-.25,2.41-3.51Z"/>
    <path class="cls-4" d="M44.88,53.05l.34.25c-.5,1-1,1.61-1.72,2.26q-.23.23-.47.45c-.13.1-.26.2-.39.3l-.34-.25c.3-.36.6-.72.91-1.08.17-.2.34-.4.51-.61.39-.45.77-.89,1.17-1.32Z"/>
    <path class="cls-33" d="M66.61,96.47c-.3,1.04-.63,1.32-1.31,1.79-.69.37-1.41.56-2.13.72.43-.74.86-.99,1.48-1.3.17-.09.33-.17.51-.26q.43-.19.78-.19v-.5q.34-.25.69-.25Z"/>
    <path class="cls-26" d="M22.29,67.11h.34q-.3,1.44-.69,2.01c-.16.59-.31,1.18-.45,1.79-.04.17-.08.33-.12.5-.1.41-.19.82-.29,1.22h-.17v-2.01c.17-.08.34-.17.52-.25.02-.27.04-.55.05-.83.12-.93.17-1.11.64-1.68.06-.25.11-.5.17-.75Z"/>
    <path class="cls-11" d="M57.47,92.46c.11.25.23.5.34.75.11-.08.23-.17.34-.25-.23.9-.49,1.72-.86,2.51h-.34c-.06.25-.11.5-.17.75.1-1.37.34-2.49.69-3.77Z"/>
    <path class="cls-38" d="M78.33,34.22q.77.5,1.55,1v.5q.51.12,1.03.25c-.78.36-1.49.23-2.24-.25q-.27-.78-.34-1.51Z"/>
    <path class="cls-3" d="M73.16,33.97v.25h-3.28c.06-.17.11-.33.17-.5q.52-.12,1.17-.19.32-.04.65-.07c.56.01.82.08,1.28.51Z"/>
    <path class="cls-20" d="M68.68,85.68h.17c.11,1.26.02,1.85-.52,2.87-.17.3-.34.6-.52.89-.11-.25-.23-.5-.34-.75.33-.61.66-1.21,1.03-1.76v-.75l.17-.5Z"/>
    <path class="cls-37" d="M29.02,62.08h1.03c.11.33.23.66.34,1q-.25.12-.5.24-.51.24-.88.52v-1.76Z"/>
    <path class="cls-27" d="M30.74,80.66l.34.25c-.28.43-.57.85-.86,1.26h-.34q-.07.23-.15.47-.19.53-.54,1.04c-.23-.08-.46-.17-.69-.25.74-.91,1.48-1.82,2.24-2.76Z"/>
    <path class="cls-19" d="M25.74,85.93v.5c-.34.08-.68.17-1.03.25-.06.25-.11.5-.17.75-.59.2-1.12.28-1.72.25.49-.36.98-.7,1.49-1.02q1.15-.74,1.44-.74Z"/>
    <path class="cls-34" d="M62.12,81.66l.34.25q-1.23,2.17-2.07,2.76c.25-.87.59-1.42,1.06-2.07.12-.18.25-.35.38-.54.1-.13.19-.27.29-.4Z"/>
    <path class="cls-25" d="M24.02,61.08c.4.5.8.99,1.21,1.51-.3.88-.59,1.53-1.03,2.26-.17.08-.34.17-.52.25v-.5c.11-.08.23-.17.34-.25.06-.17.11-.33.17-.5q.17-.5.52-.75l-.15-.44-.54-1.57Z"/>
    <path class="cls-44" d="M18.84,41.75c.37.81.48,1.42.64,2.37.05.28.09.57.14.86.08.72.08,1.11-.09,1.79-.4-1.76-.71-3.16-.69-5.02Z"/>
    <path class="cls-46" d="M28.84,61.83h.17q.06,1.35,0,2.01-.34.5-.69.75c-.06-.5-.11-.99-.17-1.51.17-.17.34-.33.52-.5.06-.25.11-.5.17-.75Z"/>
    <path class="cls-36" d="M67.3,34.72v.25c-1.14.62-2.24.55-3.45.5v-.25c1.16-.32,2.26-.57,3.45-.5Z"/>
    <path class="cls-9" d="M98.33,68.36l.17.5c-.18.33-.37.66-.56.99-.1.18-.21.37-.32.56-.35.49-.55.62-1.02.71.55-.96,1.1-1.89,1.72-2.76Z"/>
    <path class="cls-58" d="M81.09,36.23c.86.15,1.73.32,2.59.5v.75c-.94-.14-1.71-.49-2.59-1v-.25Z"/>
    <path class="cls-41" d="M53.33,82.17q.17,1,.24,1.51c.13.61.35,1.01.63,1.51-.64-.42-1.07-.81-1.36-1.76q-.02-.5.23-.94c.09-.1.18-.21.27-.31Z"/>
    <path class="cls-30" d="M50.23,20.67c-.27.12-.55.24-.82.36q-.23.1-.46.2c-.38.16-.75.31-1.13.44.06-.25.11-.5.17-.75q.33-.19.74-.31c.13-.04.27-.09.41-.13.41-.06.7,0,1.09.19Z"/>
    <path class="cls-10" d="M70.23,83.42l.17.5q-.2.66-.52,1.26h-.69q.25-1.17.71-1.58c.11-.06.21-.11.32-.17Z"/>
    <path class="cls-51" d="M28.67,61.83c.06.25.11.5.17.75-.17.17-.34.33-.52.5q-.04.77,0,1.51-.17.12-.34.25c-.25-.96-.07-1.58.17-2.51h.52v-.5Z"/>
    <path class="cls-32" d="M79.71,48.03c0,.86-.12,1.46-.34,2.26-.17.17-.34.33-.52.5.09-1.13.41-1.84.86-2.76Z"/>
    <path class="cls-13" d="M59.02,87.19c.15.61.19.92.05,1.54-.26.55-.49.73-.92.97.23-.9.51-1.7.86-2.51Z"/>
    <path class="cls-42" d="M66.78,90.45l.34.25c-.28.5-.57.99-.86,1.51-.23-.08-.46-.17-.69-.25.4-.5.8-.99,1.21-1.51Z"/>
    <path class="cls-15" d="M70.4,80.66h.34q.02.72,0,1.51c-.11.17-.23.33-.34.5-.06-.17-.11-.33-.17-.5q-.17.12-.34.25.32-1.19.52-1.76Z"/>
    <path class="cls-12" d="M101.44,69.62c.06.25.11.5.17.75q-.51.62-1.03,1.26c.09-.95.38-1.37.86-2.01Z"/>
    <path class="cls-45" d="M26.08,67.36l.17,1c-.34.33-.68.66-1.03,1,.2-.85.39-1.42.86-2.01Z"/>
    <path class="cls-31" d="M44.88,53.05l.34.25c-.28.41-.57.83-.86,1.26-.17-.08-.34-.17-.52-.25.34-.41.68-.83,1.03-1.26Z"/>
    <path class="cls-60" d="M72.12,25.94h.69q.39.63.69,1.26c-.4-.08-.8-.17-1.21-.25l-.17-1Z"/>
    <path class="cls-7" d="M100.4,64.59l.17,1c-.28.33-.57.66-.86,1,0-.98.26-1.28.69-2.01Z"/>
  </g>
</svg>