<?xml version="1.0" encoding="UTF-8"?>
<svg id="Layer_2" data-name="Layer 2" xmlns="http://www.w3.org/2000/svg" viewBox="0 0 120.11 120.22">
  <defs>
    <style>
      .cls-1 {
        fill: #afbc9a;
      }

      .cls-2 {
        fill: #f1e8ce;
      }

      .cls-3 {
        fill: #a4b592;
      }

      .cls-4 {
        fill: #a1ab8c;
      }

      .cls-5 {
        fill: #392813;
      }

      .cls-6 {
        fill: #281504;
      }

      .cls-7 {
        fill: #3d2a13;
      }

      .cls-8 {
        fill: #402e17;
      }

      .cls-9 {
        fill: #352511;
      }

      .cls-10 {
        fill: #3f3019;
      }

      .cls-11 {
        fill: #473420;
      }

      .cls-12 {
        fill: #61543e;
      }

      .cls-13 {
        fill: #3a2a19;
      }

      .cls-14 {
        fill: #2a1c04;
      }

      .cls-15 {
        fill: #301d09;
      }

      .cls-16 {
        fill: #33240f;
      }

      .cls-17 {
        fill: #2d1a07;
      }

      .cls-18 {
        fill: #d1d0b3;
      }

      .cls-19 {
        fill: #402e18;
      }

      .cls-20 {
        fill: #382914;
      }

      .cls-21 {
        fill: #3a2c16;
      }

      .cls-22 {
        fill: #d9d2b4;
      }

      .cls-23 {
        fill: #322810;
      }

      .cls-24 {
        fill: #312110;
      }

      .cls-25 {
        fill: #2f1e0d;
      }

      .cls-26 {
        fill: #c8cbab;
      }

      .cls-27 {
        fill: #afb093;
      }

      .cls-28 {
        fill: #a3ad8c;
      }

      .cls-29 {
        fill: #d9d8bb;
      }

      .cls-30 {
        fill: #2d1c0a;
      }

      .cls-31 {
        fill: #352512;
      }

      .cls-32 {
        fill: #44321c;
      }

      .cls-33 {
        fill: #271603;
      }

      .cls-34 {
        fill: #423019;
      }

      .cls-35 {
        fill: #35210b;
      }

      .cls-36 {
        fill: #a2af8d;
      }

      .cls-37 {
        fill: #382e17;
      }

      .cls-38 {
        fill: #291908;
      }

      .cls-39 {
        fill: #3a2814;
      }

      .cls-40 {
        fill: #a6b695;
      }

      .cls-41 {
        fill: #3a2714;
      }

      .cls-42 {
        fill: #43311b;
      }

      .cls-43 {
        fill: #3c2a16;
      }

      .cls-44 {
        fill: #33200d;
      }

      .cls-45 {
        fill: #e9ddc0;
      }

      .cls-46 {
        fill: #301e09;
      }

      .cls-47 {
        fill: #35230f;
      }

      .cls-48 {
        fill: #291e0b;
      }

      .cls-49 {
        fill: #3c2912;
      }

      .cls-50 {
        fill: #483720;
      }

      .cls-51 {
        fill: #d9d7b9;
      }

      .cls-52 {
        fill: #372a14;
      }

      .cls-53 {
        fill: #2c1c0a;
      }

      .cls-54 {
        fill: #c0c6a6;
      }

      .cls-55 {
        fill: #cfceb2;
      }

      .cls-56 {
        fill: #33250e;
      }

      .cls-57 {
        fill: #dbcfb8;
      }

      .cls-58 {
        fill: #31210f;
      }

      .cls-59 {
        fill: #2c1b08;
      }

      .cls-60 {
        fill: #41301a;
      }

      .cls-61 {
        fill: #241404;
      }

      .cls-62 {
        fill: #b0b595;
      }

      .cls-63 {
        fill: #ece5c8;
      }

      .cls-64 {
        fill: #362511;
      }

      .cls-65 {
        fill: #2d200a;
      }

      .cls-66 {
        fill: #3c2c16;
      }

      .cls-67 {
        fill: #422f1a;
      }

      .cls-68 {
        fill: #43351f;
      }

      .cls-69 {
        fill: #2c1906;
      }

      .cls-70 {
        fill: #473621;
      }

      .cls-71 {
        fill: #382510;
      }

      .cls-72 {
        fill: #2a1907;
      }

      .cls-73 {
        fill: #2b1e07;
      }

      .cls-74 {
        fill: #2f210c;
      }

      .cls-75 {
        fill: #e9dec7;
      }

      .cls-76 {
        fill: #f0eedf;
      }

      .cls-77 {
        fill: #3e2b17;
      }

      .cls-78 {
        fill: #3f2b14;
      }

      .cls-79 {
        fill: #45321c;
      }

      .cls-80 {
        fill: #2d1e07;
      }

      .cls-81 {
        fill: #a0ab8b;
      }

      .cls-82 {
        fill: #3a2911;
      }

      .cls-83 {
        fill: #2e1e0b;
      }

      .cls-84 {
        fill: #2f1e0c;
      }

      .cls-85 {
        fill: #281706;
      }

      .cls-86 {
        fill: #2b1d08;
      }
    </style>
  </defs>
  <g id="Layer_1-2" data-name="Layer 1">
    <g>
      <rect class="cls-76" x=".09" y=".15" width="119.87" height="119.87" rx="20" ry="20"/>
      <path d="M99.96,120.03c-15.23.02-62.03.07-76.5.09C10.9,121.23.24,112.99,0,100.02c0-10.32.06-60.36.05-69.55.12-4.02-.33-9.96.32-13.9.83-4.57,3.28-8.84,6.86-11.82C10.81,1.77,15.44.1,20.09.08l55.64-.04s13.91,0,13.91,0c4.03.13,9.95-.33,13.91.34,9.36,1.55,16.64,10.3,16.53,19.78-.01,15.23-.04,62.03-.07,76.5,1.08,12.52-7.13,23.15-20.06,23.38h0ZM99.96,120.01c12.85-.25,21.07-10.88,19.94-23.35-.03-14.2-.05-61.55-.07-76.5.11-9.36-7.08-18.02-16.33-19.55-3.89-.65-9.85-.21-13.87-.34,0,0-13.91,0-13.91,0l-55.64-.04c-4.62.02-9.22,1.66-12.77,4.62C3.76,7.81,1.31,12.04.48,16.59c-.66,3.9-.22,9.85-.35,13.88.02,8.9.03,59.52.05,69.55.24,12.81,10.84,20.99,23.27,19.9,14.2.01,61.55.07,76.5.09h0Z"/>
    </g>
    <path class="cls-63" d="M40.8,15.69c2.96,1.4,5.24,3.37,7.13,5.9v.97q.76-.33,1.54-.67c7.25-2.83,14.24-1.99,21.53.18q.52.24,1.05.49c.13-.36.25-.72.38-1.09.76-1.52,1.57-2.28,2.93-3.37.4-.33.8-.65,1.21-.99,2.49-1.71,4.73-2.07,7.77-2.02,2.88.4,4.83,1.92,6.79,3.83,2.05,2.91,2.3,5.58,1.9,8.98-.96,3.22-3.38,5.41-6.29,7.28h-1.05c1.08,2.76,2.51,4.96,4.46,7.28,3.86,4.68,5.11,8.09,4.46,14.08-.19.49-.38.98-.57,1.48-.87,2.59.15,4.79,1.09,7.26,2.65,6.93,2.95,16.08-.24,22.89-2.13,3.62-4.8,6.56-8.68,8.66h-1.05c.43.43.87.86,1.31,1.3.89,1.01,1.3,1.57,1.67,2.85-.56,1.84-1.86,2.53-3.51,3.61-3.8,1.17-7.42.48-11.01-.97-.86-.49-1.71-.99-2.57-1.49-3.53-1.79-6.71-1.89-10.67-1.82-.67,0-1.34.01-2.03.02-4.61.13-8.07.75-12.02,2.94-2.89,1.57-6.08,2.27-9.41,1.81-1.6-.43-2.91-.94-4.2-1.94q-.69-1.64-.52-3.4c.76-1.16,1.57-1.94,2.62-2.91-.35-.09-.69-.18-1.05-.27-5.05-2.24-8.04-6.45-9.87-11.22-2.44-7.64-1.26-15.72,2.14-22.92.74-1.96,0-3.5-.67-5.38-.56-6.48.45-10.28,5.05-15.35.41-.44.81-.88,1.23-1.33,1.39-1.67,2.02-3.15,2.64-5.16-.38-.11-.76-.22-1.15-.33-2.82-1.22-4.53-3.26-5.81-5.83-.97-2.84-.87-5.82.44-8.55,2.78-4.47,7.64-6.51,13.03-4.78Z"/>
    <path class="cls-5" d="M40.8,15.69c2.96,1.4,5.24,3.37,7.13,5.9v.97q.76-.33,1.54-.67c7.25-2.83,14.24-1.99,21.53.18q.52.24,1.05.49c.13-.36.25-.72.38-1.09.76-1.52,1.57-2.28,2.93-3.37.4-.33.8-.65,1.21-.99,2.49-1.71,4.73-2.07,7.77-2.02,2.88.4,4.83,1.92,6.79,3.83,2.05,2.91,2.3,5.58,1.9,8.98-.96,3.22-3.38,5.41-6.29,7.28h-1.05c1.08,2.76,2.51,4.96,4.46,7.28,3.86,4.68,5.11,8.09,4.46,14.08-.19.49-.38.98-.57,1.48-.87,2.59.15,4.79,1.09,7.26,2.65,6.93,2.95,16.08-.24,22.89-2.13,3.62-4.8,6.56-8.68,8.66h-1.05c.43.43.87.86,1.31,1.3.89,1.01,1.3,1.57,1.67,2.85-.56,1.84-1.86,2.53-3.51,3.61-3.8,1.17-7.42.48-11.01-.97-.86-.49-1.71-.99-2.57-1.49-3.53-1.79-6.71-1.89-10.67-1.82-.67,0-1.34.01-2.03.02-4.61.13-8.07.75-12.02,2.94-2.89,1.57-6.08,2.27-9.41,1.81-1.6-.43-2.91-.94-4.2-1.94q-.69-1.64-.52-3.4c.76-1.16,1.57-1.94,2.62-2.91-.35-.09-.69-.18-1.05-.27-5.05-2.24-8.04-6.45-9.87-11.22-2.44-7.64-1.26-15.72,2.14-22.92.74-1.96,0-3.5-.67-5.38-.56-6.48.45-10.28,5.05-15.35.41-.44.81-.88,1.23-1.33,1.39-1.67,2.02-3.15,2.64-5.16-.38-.11-.76-.22-1.15-.33-2.82-1.22-4.53-3.26-5.81-5.83-.97-2.84-.87-5.82.44-8.55,2.78-4.47,7.64-6.51,13.03-4.78ZM36.39,17.71c.38.24.76.48,1.15.73,3.58,2.94,4.57,6.12,5.15,10.44h-1.57c-.05-.58-.11-1.16-.16-1.76-.44-3.16-1.82-5.49-4.56-7.46-1.45-.52-2.65-.71-4.2-.49-1.53,1.04-1.96,1.36-2.62,2.91-.45,2.67-.5,5.33.88,7.77,1.84,2.21,3.6,3.46,6.46,4.37-.33,3.92-2.41,7.15-5.28,9.95-2.69,2.68-4.2,5.57-4.42,9.25.21,3.48,1.66,6.1,4.42,8.43,2.89,2.14,5.33,2.6,8.95,2.94v1.46c-3.68.3-7.08-.67-10.06-2.74q-.9-.76-2.01-.66c-.34.84-.68,1.68-1.02,2.52-.19.47-.38.93-.57,1.42-.86,2.36-1.1,4.41-1.07,6.9,0,.52,0,1.04.01,1.57,0,.39.01.78.02,1.19q.52-.48,1.05-.97c.23.25.46.5.69.76.95.97,1.85,1.84,2.98,2.64q1.63-.12,3.15-.49,1.41.91,2.62,1.94c3.37,1.04,6.83.86,10.06-.49.67-.31,1.34-.63,2-.97v-1.94q.03-.53.05-1.08c-.02-1.22-.1-2.14-.58-3.29-1.19-.74-2.29-1.13-3.65-1.53-.35-.14-.7-.27-1.07-.41-.17-.48-.35-.96-.52-1.46.51.15,1.03.31,1.56.47,2.17.58,4.29.72,6.54.81.38.02.77.04,1.16.06.93.05,1.87.09,2.8.13.2-.37.39-.75.6-1.13.27-.49.54-.97.81-1.48l.79-1.47c1.07-1.43,1.79-1.77,3.57-2.23,2.1,1.78,3.38,3.49,4.72,5.82,1.23.03,2.47.05,3.7.06.69.01,1.37.02,2.08.03,2.14-.1,3.73-.45,5.75-1.07v1.46c-3.22,1.35-6.04,1.67-9.57,1.79q-1.52.02-2.49,1.12-.35,1.41,0,2.91c1.92,1.6,3.8,2.19,6.26,2.67,1.1.25,2.05.61,3.08,1.03,2.63.92,5.19,1.14,7.96.67,1.39-.66,2.56-1.39,3.79-2.28q.93-.64,1.98-.64c-.45,1.67-1.02,2.4-2.43,3.55-3.19,1.52-7.21,1.15-10.68.82-1.36-.4-2.51-.88-3.75-1.51-1.38-.62-2.61-.57-4.11-.43-.31.54-.63,1.08-.95,1.64-.82,1.41-1.2,1.79-2.72,2.73-2.93.37-5.46.54-7.93-1.06-.9-1.25-1.55-2.36-2.03-3.79-4.05.7-7.72,1.97-11.54,3.4.65,1.95,1.41,3.63,2.56,5.37.26.4.52.79.78,1.2,1.67,2.33,3.22,3.93,5.81,5.41q.73.42,1.47.86c4,2.09,7.97,2.06,12.46,2.21q.62.02,1.25.05c8.32.31,15.96-.52,22.46-5.86,5.3-5.06,6.37-11.13,6.33-17.94-.21-4.03-1.63-7.99-3.3-11.68-1.37.47-2.57.94-3.79,1.7-1.78.89-3.29,1.08-5.29,1.3-.66.08-1.32.15-1.99.23q-.75.08-1.51.16.26-.72.52-1.46c.33-.04.66-.08,1-.13,4-.61,6.91-1.74,9.68-4.51,2.39-3.32,2.25-6.52,1.9-10.41-.83-2.99-3.18-5.12-5.26-7.44-1.86-2.32-3.66-5.15-3.66-8.09.28-.11.56-.22.84-.34,2.91-1.24,4.49-2.48,6.1-5.09.67-2.32,1.02-4.92-.06-7.16-.64-.89-1.35-1.7-2.17-2.45-1.96-.21-3.01-.06-4.79.76-2.58,2.03-3.62,3.93-4,6.98-.05.66-.1,1.31-.13,1.97h-2.1c1.12-4.59,2.47-8.4,6.82-11.16-2.86-.41-4.5.53-6.75,2.01-1.68,1.37-2.73,2.95-3.74,4.79-2.2-.23-4.15-.62-6.26-1.24-5.96-1.53-11.73-1.14-17.34,1.24-.87.33-1.75.65-2.62.97-.1-.32-.19-.64-.29-.97-1.37-2.65-3.4-4.73-6.06-6.31-1.49-.48-2.56-.61-4.13-.49Z"/>
    <path class="cls-1" d="M60.73,64.14c1.58.76,2.15,1.45,3.09,2.84.27.39.54.77.81,1.17q.6,1.02.6,1.99c1.23-.06,2.47-.12,3.7-.18.69-.03,1.37-.07,2.08-.1,2.07-.2,3.78-.59,5.75-1.17q.26.96.52,1.94c-3.36,1.73-6.33,2.2-10.16,2.34q-1.34-.06-1.9.57-.26,1.42,0,2.91c1.69,1.37,3.56,1.73,5.72,2.17,1.1.26,2.06.63,3.1,1.05,2.63.92,5.2,1.14,7.96.67,1.37-.68,2.53-1.42,3.74-2.32.32-.19.65-.39.98-.59q.78.24,1.57.49c-.43,1.73-1.2,2.73-2.69,3.79-3.32,1.77-7.27,1.45-10.95,1.06-1.36-.39-2.51-.85-3.75-1.48-1.32-.64-2.64-.81-4.11-.95l-.36,1.33c-.85,1.94-1.29,2.55-3.31,3.52-2.96.41-5.41.56-7.93-1.03-1-1.42-1.58-2.67-2.03-4.31-.36.12-.72.25-1.1.37q-8.92,3.02-10.44,3.02c.65,1.16,1.31,2.33,1.97,3.49.18.33.37.65.55.99,1.72,3.03,3.42,5.19,6.62,7.02.49.28.97.56,1.47.86,1.33.69,2.63,1.24,4.07,1.72v.97c-8.32.28-16.91.45-23.6-4.85-.33-.25-.66-.5-1.01-.75-3.88-3.2-6.07-8.23-6.42-12.99-.02-1.16-.01-2.32.02-3.48,0-.4,0-.8.01-1.21.01-.97.03-1.94.05-2.92h.52c.01.42.02.84.03,1.27.68,2.25,2.1,3.27,4.16,4.55q1.48.62,2.56.15,1.11-.15,2.46.76.63.51,1.28,1.03c3.37,1.04,6.83.86,10.06-.49.67-.31,1.34-.63,2-.97q-.26-.72-.52-1.46c-.04-.76-.04-1.52-.03-2.28,0-.39,0-.78.01-1.19,0-.3.01-.6.02-.9-.33-.08-.67-.17-1.01-.25-.43-.12-.87-.24-1.31-.36-.43-.11-.86-.23-1.31-.34q-1.08-.51-1.5-1.53-.06-.45-.11-.92l1.38.21c2.67.36,5.36.47,8.06.62q1.58.14,2.63.62c.12-.41.24-.82.36-1.24.92-2.23,2.55-6.01,5.63-5.23Z"/>
    <path class="cls-63" d="M53.17,79.84c.13.27.27.54.4.82.18.35.36.7.55,1.07q.26.52.53,1.06.61,1.09,2.19,1.92c2.95.37,5.47.55,7.93-1.09.79-1.08,1.5-2.07,2.03-3.28,2.09-.2,3.44.06,5.28.91,3,1.34,6.13,1.65,9.41,2l-2.1.49c-.06.36-.11.71-.17,1.08-1.17,4.49-5.45,7.97-9.49,10.37-4.1,2.09-8.74,3.44-13.41,2.63-7.01-2.43-10.73-6.39-14.13-12.41q-.56-1.18-.56-2.15c1.07-.39,2.14-.77,3.21-1.15.6-.21,1.19-.43,1.81-.65q4.59-1.6,6.52-1.6Z"/>
    <path class="cls-26" d="M93.55,72.56h1.05c.19,7.31-.24,14.1-5.83,19.84-6.5,5.43-14.68,6.2-23,5.95-1.26-.08-2.46-.26-3.68-.55,1.2-1.11,1.82-1.21,3.44-1.58,2.55-.66,4.44-1.69,6.57-3.13q1-.63,2.57-1.12.56-.87,1.05-1.94c.8-1.25,1.62-2.48,2.44-3.72q.77-1.15,1.23-2.59l-2.62-.49v-.49c.41,0,.81-.01,1.23-.02,3.69-.16,6.43-.59,9.26-2.89l.52-.97h1.57c.05-.29.11-.58.16-.88.42-1.23.91-1.69,1.93-2.55,1.22-1.02,1.56-1.38,2.1-2.88Z"/>
    <path class="cls-64" d="M90.4,26.93q.82.55,1.57,1.46c.08,1.62-.23,2.56-1.31,3.84-1.57,1.53-2.68,2.59-4.98,2.96,1.08,2.76,2.51,4.96,4.46,7.28,3.86,4.68,5.11,8.09,4.46,14.08-.19.49-.38.98-.57,1.48-.87,2.59.15,4.79,1.09,7.26,2.65,6.93,2.95,16.08-.24,22.89-2.13,3.62-4.8,6.56-8.68,8.66h-1.05c.69.96,1.38,1.92,2.1,2.91q-.69,1.21-1.57,2.43h-1.57c.17-.64.35-1.28.52-1.94-1.69-1.04-1.82-1.08-3.67-.82-1.93.25-3.86.45-5.8.61-.49.04-.99.08-1.49.12-.36.03-.72.06-1.1.09v-1.46c-.52-.16-1.04-.32-1.57-.49.49-.08.99-.15,1.5-.23,6.61-1.11,12.88-2.55,17.38-7.53,3.91-5.65,5.34-12.31,3.99-18.96-.4-1.59-.88-3.14-1.39-4.71-.43-1.33-.77-2.63-1.03-4q-.53.31-1.07.62c-.47.27-.94.53-1.42.81-.46.26-.92.53-1.4.8-2.13,1.08-3.79,1.23-6.2,1.2q-.7,0-1.42-.01c-.35,0-.71-.01-1.07-.02l.52-1.94c.33-.04.66-.08,1-.13,4.12-.63,7.39-1.78,10.01-4.91,1.9-3.13,1.68-7.3.72-10.69-.94-1.92-2.39-3.44-3.83-5.06-2.13-2.39-4.9-5.66-4.68-8.93.6-1.16,1.17-1.32,2.45-1.78,2.9-1.22,4.04-3.28,5.34-5.89Z"/>
    <path class="cls-82" d="M41.63,97.31c.6.08,1.21.16,1.83.24,2.24.26,4.43.3,6.69.27.4,0,.8,0,1.21,0,1.68,0,3.36-.02,5.04-.03q12.7-.09,16.18.98v1.46c.53-.11,1.05-.22,1.59-.34.7-.14,1.41-.28,2.11-.42.34-.07.69-.15,1.04-.22,2.4-.47,4.36-.5,6.79.01q.52.48,1.05.97-.2,1.03-.52,1.94,1.7-.84,2.1-2.43h1.05q.2,1.06,0,2.43c-2.17,1.96-3.85,2.97-6.88,3.03-3.8-.06-6.66-1.21-9.84-3.07-3.53-1.79-6.71-1.89-10.67-1.82-.67,0-1.34.01-2.03.02-4.61.13-8.07.75-12.02,2.94-2.89,1.57-6.08,2.27-9.41,1.81-1.6-.43-2.93-.93-4.2-1.94q-.52-1.82-.52-3.4,1.57.49,2.62,1.94.08-.45.16-.91.36-1.03,1.93-2,1.19-.09,2.46-.06.64.01,1.28.03.48.02.98.03v-1.46Z"/>
    <path class="cls-31" d="M60.73,64.14c1.58.76,2.15,1.45,3.09,2.84.27.39.54.77.81,1.17q.6,1.02.6,1.99c1.23-.06,2.47-.12,3.7-.18.69-.03,1.37-.07,2.08-.1,2.07-.2,3.78-.59,5.75-1.17q.26.96.52,1.94c-3.36,1.73-6.33,2.2-10.16,2.34q-1.34-.06-1.9.57-.26,1.42,0,2.91c1.69,1.37,3.56,1.73,5.72,2.17,1.1.26,2.06.63,3.1,1.05,2.63.92,5.2,1.14,7.96.67,1.37-.68,2.53-1.42,3.74-2.32.32-.19.65-.39.98-.59q.78.24,1.57.49c-.43,1.73-1.2,2.73-2.69,3.79-3.32,1.77-7.27,1.45-10.95,1.06-1.36-.39-2.51-.85-3.75-1.48-1.32-.64-2.64-.81-4.11-.95l-.36,1.33c-.83,1.89-1.38,2.53-3.31,3.52-1.59.15-3.13.12-4.72,0v-1.46h1.05v-.97q.88-.08,1.77-.15c.63-.11,1.25-.22,1.9-.33q1.19-1.33.95-2.64t-1.25-2.18c-1.04-1.38-.94-2.26-.75-3.91q.32-.57.66-1.15c.48-1.57.18-1.94-.59-3.37-.36-.6-.73-1.2-1.11-1.79-1.18,4.5-1.37,8.98-1.57,13.59h-1.05v-12.13c-1.12,1.69-1.16,3.02-1.11,4.98q.01.78.03,1.59c.01.4.02.8.04,1.21-1.04.48-2.08.96-3.15,1.46.04-.31.09-.62.13-.94.05-.4.11-.8.16-1.22.05-.4.11-.8.17-1.21.02-.33.04-.66.06-1-.97-.9-2.66-.59-3.97-.64-3.25-.18-5.34-.69-8.1-2.28v-1.46l1.38.21c2.67.36,5.36.47,8.06.62q1.58.14,2.63.62c.12-.41.24-.82.36-1.24.92-2.23,2.55-6.01,5.63-5.23Z"/>
    <path class="cls-42" d="M58.94,66.73c.59,1.64.39,2.23,0,3.88-.07.82-.13,1.64-.17,2.47q-.03.68-.07,1.37c-.02.47-.04.93-.06,1.41q-.03.71-.07,1.44c-.06,1.17-.11,2.34-.16,3.5h1.05c-.01-.57-.02-1.14-.04-1.72-.06-4.22-.02-8.22,1.09-12.35,1.51,1.33,2.4,2.54,3.15,4.37q-.43,1.21-1.05,2.43-.26,1.46,0,2.91c.36.4.71.8,1.08,1.21q1.02,1.21,1.02,2.73-.52,1.4-1.44,2.34c-1.49.65-2.26.47-3.8.03v1.94q-1.15.39-2.62.49c-2.14-1.52-3.01-2.94-3.67-5.34-.91.3-1.81.61-2.72.91-.5.17-1.01.34-1.53.51q-1.49.49-2.78,1.06c-3.24,1.04-7.43,1.03-10.65-.04q-2.58-1.41-3.13-3.01c-.05-.29-.11-.59-.16-.89q2.1,0,3.7.97c2.5,1.39,5,1.35,7.83.97,1.66-.52,3.19-1.16,4.72-1.94l-.52-1.46c-.04-.76-.04-1.52-.03-2.28,0-.39,0-.78.01-1.19,0-.3.01-.6.02-.9,1.03-.03,2.05-.05,3.08-.06q.86-.02,1.73-.03,1.48.09,2.53,1.07c-.02,1.32-.3,2.57-.52,3.88.87-.32,1.73-.64,2.62-.97-.06-.38-.12-.75-.19-1.14-.48-3.56-.32-5.53,1.76-8.57Z"/>
    <path class="cls-3" d="M34.23,18.98c2.38.47,3.63,1.76,5.09,3.49,1.46,2.1,1.79,3.9,1.79,6.4l1.57.49-1.57.49q-.99,1.01-1.93,2.21c-.33.4-.65.8-.99,1.22-.25.31-.49.62-.75.94-3.42-.93-5.37-2.07-7.34-4.85-.93-2.59-1.17-5.74-.09-8.33,1.22-1.61,2.14-1.86,4.22-2.05Z"/>
    <path class="cls-40" d="M87.78,19.17c2.39,2.27,2.81,3.89,2.77,6.95-.3,2.63-1.5,4.49-3.49,6.33-1.47.84-2.86,1.33-4.52,1.76-.25-.3-.49-.61-.75-.92-.33-.4-.65-.79-.99-1.2-.32-.39-.64-.79-.98-1.19q-.95-1.15-2.53-2.02h1.57c.02-.63.04-1.26.07-1.91.32-2.74,1.63-4.8,3.61-6.83,1.8-1.01,3.14-1.25,5.24-.97Z"/>
    <path class="cls-16" d="M24.85,85.66q1.23.12,2.62.49.7.88,1.25,2c2.55,4.6,6.46,7.04,11.73,8.62q1.18.54,1.61,1.57c.03.3.06.6.1.91-.36-.01-.72-.02-1.09-.03-.47,0-.95-.02-1.43-.03-.47-.01-.94-.02-1.42-.03q-1.43,0-2.87,1.07l-.52,1.46c.35.16.69.32,1.05.49q-.98-.09-2.1-.49-.66-1.24-1.05-2.43l2.1-2.43c-.35-.09-.69-.18-1.05-.27-4.16-1.85-7.06-5.07-8.91-8.95v-1.94Z"/>
    <path class="cls-43" d="M56.84,54.6c.52.32,1.04.64,1.57.97q1.33.16,2.62,0c.35-.32.69-.64,1.05-.97h1.57c-.17.8-.35,1.6-.52,2.43-.69.16-1.38.32-2.1.49.35.96.69,1.92,1.05,2.91q1.77.16,3.67,0,.97-.92,1.57-1.94h1.05c-.15,1.66-.42,2.32-1.67,3.55-1.75.97-2.61,1.05-4.62.82-.47-.18-.93-.36-1.41-.55-.4-.14-.8-.28-1.21-.42-.52.32-1.04.64-1.57.97-1.57.23-2.65.26-4.05-.48q-.87-.62-2.24-1.95v-1.94c1.29.56,2.12.99,3.15,1.94q1.62.08,3.15,0c.35-.96.69-1.92,1.05-2.91q-1.3-.48-2.62-.97l.52-1.94Z"/>
    <path class="cls-2" d="M60.51,66.73c1.57,1.24,2.41,2.59,3.15,4.37q-.43,1.21-1.05,2.43-.26,1.46,0,2.91c.36.4.71.8,1.08,1.21q1.02,1.21,1.02,2.73c-.6,1.59-1.04,2.07-2.62,2.85h-1.57c-.5-1.56-.59-2.96-.59-4.58,0-.51,0-1.01,0-1.53,0-.53,0-1.05,0-1.59,0-.52,0-1.04,0-1.58,0-2.46.02-4.8.6-7.21Z"/>
    <path class="cls-71" d="M48.78,40.77q1.25.24,2.2.73c.99,1.54.84,3.13.62,4.85-.53,1.36-.7,1.78-2.1,2.43q-2.71.21-4.13-.49c-.96-1.57-.98-3.13-.59-4.85,1.22-1.55,1.94-2.31,4-2.67Z"/>
    <path class="cls-47" d="M71.2,40.73c1.71.34,2.46,1.07,3.5,2.35.79,1.32.77,2.28.5,3.75q-.59,1.15-1.57,1.94c-1.86.29-2.78.21-4.39-.7-1.22-1.78-1.31-3.55-.85-5.61.93-1.08,1.35-1.41,2.82-1.73Z"/>
    <path class="cls-30" d="M32.72,77.9c1.19.55,2.32,1.1,3.44,1.76,2.9,1.07,5.92,1.22,8.88.23.79-.35,1.57-.7,2.35-1.07,1.43-.58,2.67-.58,4.2-.43v.97c.35.16.69.32,1.05.49-5.26,2.32-9.8,3.78-15.73,2.91-1.66-.57-3.01-1.19-4.2-2.43q-.4-1.02-.52-1.94l.52-.49Z"/>
    <path class="cls-56" d="M86.73,94.89c-.21.44-.41.88-.62,1.33q-.63,1.56.29,2.73c.28.26.56.52.85.79q-.69,1.21-1.57,2.43h-1.57c.17-.64.35-1.28.52-1.94-1.69-1.04-1.82-1.08-3.67-.82-1.93.25-3.86.45-5.8.61q-.74.06-1.49.12c-.36.03-.72.06-1.1.09v-1.46l-1.57-.49c.49-.08.99-.15,1.5-.23,4.08-.69,7.63-1.56,11.41-3.22q1.25-.43,2.83.05Z"/>
    <path class="cls-10" d="M39.54,15.28v.49c-1.04.16-2.08.32-3.15.49.26.22.52.44.79.67q.79.79.79,1.76c.39.34.78.68,1.18,1.03,2.27,2.2,3.66,4.37,3.67,7.46-.04.56-.09,1.12-.13,1.7h-1.57c-.12-.43-.24-.85-.37-1.3q-1.15-4.35-4.35-7.44c-1.91-.46-3.81-.76-5.77-.97.17-.3.35-.6.52-.91q.6-.99.52-2c2.55-1.26,5.06-1.06,7.87-.97Z"/>
    <path class="cls-36" d="M67.23,72.46c.57.01,1.14.02,1.73.03.57,0,1.15.02,1.74.03.44.01.88.02,1.34.03q.15,4.16-1.05,5.82c-2.01.18-3.08.03-4.92-.79q-1.38-1.15-1.64-2.67c.35-1.87.72-2.33,2.79-2.46Z"/>
    <path class="cls-28" d="M47.93,72.56c1.03-.03,2.05-.05,3.08-.06q.86-.02,1.73-.03,1.48.09,2.53,1.07-.07,1.7-.52,3.4c-1.6,1.25-3.74,1.24-5.77,1.46-1.12-1.56-1.17-1.95-1.11-3.73,0-.39.02-.78.03-1.19.01-.3.02-.6.04-.9Z"/>
    <path class="cls-18" d="M48.45,48.77l-.52.97c-2.55.17-4.19.1-6.49-.97-2.57-1.14-4.85-1.47-7.67-.97-1.2.53-2.23,1.12-3.31,1.85q-.89.58-2.46,1.06c.52-1.44,1.04-2.88,1.57-4.37,6.9-1.16,12.57-.24,18.88,2.43Z"/>
    <path class="cls-81" d="M84.11,99.26l1.05.97q-.1,1-.52,1.94c-3.37,1.04-6.83.86-10.06-.49-.67-.31-1.34-.63-2-.97,3.47-1.78,7.69-2.37,11.54-1.46Z"/>
    <path class="cls-4" d="M41.11,99.26c.55.08,1.1.17,1.67.25,1.54.23,3.08.47,4.62.72-2.43,1.83-4.5,2.56-7.64,2.55-.49,0-.97,0-1.48,0-1.4-.13-2.27-.44-3.47-1.1q.16-.91.52-1.94c2.08-1.28,3.44-.86,5.77-.49Z"/>
    <path class="cls-51" d="M89.01,46.54c1.45.81,1.9,1.26,2.44,2.72-.35.32-.69.64-1.05.97q-.49-.47-.98-.94c-2.17-1.95-4.29-1.64-7.2-1.63-2.13.17-3.61.75-5.48,1.66-1.41.6-2.64.58-4.17.43.24-.21.48-.42.72-.64q.96-.87,1.9-2.28v.97q.38-.21.77-.42c4.02-1.95,8.79-2.48,13.04-.84Z"/>
    <path class="cls-25" d="M86.73,77.41c.52.16,1.04.32,1.57.49-.44,1.78-1.23,2.73-2.79,3.79-2.9,1.59-6.02,1.27-9.28,1.06l.52-1.46-1.05-.49c.4,0,.8,0,1.21,0,3.7-.13,5.94-.65,8.84-2.82.32-.19.64-.38.96-.57Z"/>
    <path class="cls-17" d="M93.55,68.19q2.56,1.82,3.15,2.91c.04.74.06,1.48.05,2.22q0,.65,0,1.32c0,.45,0,.91-.01,1.38,0,.46,0,.92,0,1.39,0,1.13-.01,2.27-.03,3.4-.35-.48-.69-.96-1.05-1.46-.35.32-.69.64-1.05.97-.03-.51-.06-1.02-.1-1.55-.23-3.54-.48-7.07-.95-10.59Z"/>
    <path class="cls-53" d="M83.06,15.77v.97c.35.16.69.32,1.05.49-.39.12-.77.25-1.17.37-.51.17-1.02.33-1.55.51-.5.16-1.01.33-1.53.49-1.49.56-2.77,1.26-4.14,2.02h-1.05c-.71.47-1.42.95-2.1,1.46.71-2.72,2.95-4.18,5.24-5.82,1.69-.78,3.38-.51,5.24-.49Z"/>
    <path class="cls-66" d="M32.19,99.74c.52.16,1.04.32,1.57.49.17.48.35.96.52,1.46,2.42.32,4.85.64,7.34.97-.35.32-.69.64-1.05.97l1.57.97c-2.04.95-4.29.74-6.43.17-1.16-.45-2.05-.87-3.01-1.63q-.52-1.82-.52-3.4Z"/>
    <path class="cls-19" d="M88.3,62.85c.17.48.35.96.52,1.46-2.6,1.54-4.4,2.01-7.47,1.97-.47,0-.94,0-1.42-.01-.35,0-.71-.01-1.07-.02.17-.64.35-1.28.52-1.94.35-.06.71-.12,1.07-.18q.7-.12,1.42-.25c.46-.08.92-.16,1.4-.24q1.35-.25,2.47-.86.98-.42,2.55.06Z"/>
    <path class="cls-57" d="M58.94,66.73c.59,1.65.38,2.22,0,3.88-.04,1-.06,2-.05,3,0,.56,0,1.12,0,1.7,0,.58,0,1.16.01,1.76,0,.59,0,1.18,0,1.79,0,1.46.01,2.91.03,4.37q-1.57-.97-1.84-1.89c-.11-1.31-.19-2.62-.26-3.94-.03-.56-.07-1.12-.1-1.7-.12-3.59.1-5.94,2.2-8.98Z"/>
    <path class="cls-35" d="M24.85,69.65h1.05c-.17,3.84-.35,7.69-.52,11.65h-1.57c-.03-1.3-.05-2.61-.07-3.91,0-.37-.02-.73-.03-1.11-.02-2.4.31-4.35,1.14-6.63Z"/>
    <path class="cls-44" d="M64.71,80.33c.52.16,1.04.32,1.57.49-.14,1.6-.43,2.33-1.57,3.55-2.13,1.11-3.9.99-6.29.82v-1.46h1.05v-.97c.57-.04,1.15-.08,1.74-.12q1.95-.19,2.95-1.37c.18-.31.37-.62.56-.94Z"/>
    <path class="cls-45" d="M60.51,66.73c1.57,1.24,2.41,2.59,3.15,4.37-.46,2.02-1.39,2.73-3.15,3.88q-.7-5.59,0-8.25Z"/>
    <path class="cls-44" d="M89.88,45.38l1.05.49v.97h1.05c.17-.32.35-.64.52-.97,1.2,1.47,1.59,2.17,1.44,4.03-.13.59-.26,1.18-.39,1.79-.1.72-.2,1.44-.29,2.15q-.11.86-.23,1.73h-.52c-.06-.37-.11-.74-.17-1.12-.53-3.17-1.26-6.06-2.45-9.07Z"/>
    <path class="cls-58" d="M59.46,67.22h.52c-.17,4.49-.35,8.97-.52,13.59h-1.05c-.03-1.63-.05-3.26-.07-4.88,0-.46-.02-.92-.03-1.39-.02-2.64.19-4.82,1.14-7.32Z"/>
    <path class="cls-7" d="M90.93,91c.35.48.69.96,1.05,1.46-.75.64-1.51,1.28-2.26,1.91-.42.35-.84.71-1.27,1.08q-1.19.9-2.76,1.38c.1-.3.19-.6.29-.91q.35-1.05-.29-2c1.71-1.08,3.37-2.11,5.24-2.91Z"/>
    <path class="cls-49" d="M51.6,78.38v.97c.35.16.69.32,1.05.49q-5.16,2.06-7.7,1.58c-.4-.2-.8-.4-1.21-.61,2.67-1.65,4.6-2.64,7.87-2.43Z"/>
    <path class="cls-70" d="M42.68,69.16q.68.11,1.38.21c3.19.43,6.42.56,9.64.76v.49q-2.34.24-4.72.49v.49c-2.04.41-3.26.65-5.21-.12-.36-.28-.71-.56-1.08-.85v-1.46Z"/>
    <path class="cls-52" d="M39.01,21.59c1.59.43,2.42.67,3.31,2,.47,1.82.43,3.41.36,5.28h-1.57c-.35-1.03-.7-2.06-1.05-3.09-.19-.57-.39-1.15-.59-1.74q-.46-1.48-.46-2.45Z"/>
    <path class="cls-74" d="M31.15,16.74l1.05.97c-.35.32-.69.64-1.05.97.35.32.69.64,1.05.97-1.01,1.18-1.99,2.33-3.15,3.4h-1.05q-.39-.79-.52-1.94c1.02-1.66,2.13-3.09,3.67-4.37Z"/>
    <path class="cls-8" d="M25.9,80.81c.35,1.6.69,3.2,1.05,4.85-.87.16-1.73.32-2.62.49-.69-1.76-1.05-2.96-1.05-4.85q2.03-.49,2.62-.49Z"/>
    <path class="cls-11" d="M94.07,49.75h.52v6.8c-.87-.16-1.73-.32-2.62-.49v-4.85q.52.24,1.05.49l1.05-1.94Z"/>
    <path class="cls-83" d="M34.82,15.77c.92-.04,1.84-.07,2.75-.09.51-.02,1.02-.03,1.55-.05,1.66.16,2.34.57,3.56,1.6-.17.32-.35.64-.52.97-2.25-.32-4.5-.64-6.82-.97-.17-.48-.35-.96-.52-1.46Z"/>
    <path class="cls-23" d="M86.73,18.19l1.05.97c-.64.13-1.28.26-1.93.39-1.86.42-3.27,1.06-4.88,2.03h-1.05c.18-1.23.44-1.85,1.34-2.79,1.92-.91,3.33-.77,5.47-.61Z"/>
    <path class="cls-78" d="M24.85,64.79h1.57c.35.48.69.96,1.05,1.46q-.46,1.55-1.05,2.91h-2.1c.17-1.44.35-2.88.52-4.37Z"/>
    <path class="cls-41" d="M86.73,77.41c.52.16,1.04.32,1.57.49q-.29,1.15-1.05,2.43-1.9.64-3.67.97c-.17-.48-.35-.96-.52-1.46.57-.42,1.15-.83,1.74-1.24.32-.23.64-.46.98-.7.32-.16.63-.32.96-.48Z"/>
    <path class="cls-38" d="M79.39,64.31h4.2v.97c.52.16,1.04.32,1.57.49-1.32.61-2.26.53-3.74.52-.48,0-.95,0-1.45-.01-.37,0-.73-.01-1.11-.02l.52-1.94Z"/>
    <path class="cls-62" d="M72.57,100.23h4.72c-.17.48-.35.96-.52,1.46,1.56.16,3.11.32,4.72.49v.49c-3.51.24-5.8-.45-8.91-1.94v-.49Z"/>
    <path class="cls-75" d="M57.36,76.44c1.15,1.59,1.23,2.34,1.38,4.22.04.48.08.96.12,1.46q.04.55.08,1.12-1.57-.97-1.86-2.09c-.04-.43-.07-.86-.11-1.3-.04-.43-.08-.86-.12-1.3q0-1.12.52-2.09Z"/>
    <path class="cls-50" d="M69.95,78.38l1.05.49q.33,1.24.52,2.43-2.34-.48-4.72-.97c-.17.32-.35.64-.52.97-.52-.32-1.04-.64-1.57-.97.17-.48.35-.96.52-1.46v.97h3.67v-.97l1.05-.49Z"/>
    <path class="cls-48" d="M37.96,96.83h3.15c.35.8.69,1.6,1.05,2.43q-3.54-.36-4.72-1.46l.52-.97Z"/>
    <path class="cls-12" d="M59.46,72.07h.52c.17,3.52.35,7.05.52,10.68h-1.05v.97c-.35-.16-.69-.32-1.05-.49q.12-.46.24-.93c.38-2,.47-3.99.58-6.02.02-.41.05-.81.07-1.23.06-1,.11-1.99.16-2.99Z"/>
    <path class="cls-68" d="M77.29,24.5l2.1.97c-.17,1.12-.35,2.24-.52,3.4h-2.1c.17-1.44.35-2.88.52-4.37Z"/>
    <path class="cls-60" d="M80.44,15.28h5.24q0,1.46-.52,2.91-1.56-.24-3.15-.49c.35-.64.69-1.28,1.05-1.94h-2.62v-.49Z"/>
    <path class="cls-86" d="M84.63,97.8q2.03.85,2.62,1.94-.66,1.27-1.57,2.43h-1.57c.11-.29.22-.58.33-.88q.36-1.2-.85-2.52c.35-.16.69-.32,1.05-.49v-.49Z"/>
    <path class="cls-84" d="M34.29,36.15h2.1c-.17.96-.35,1.92-.52,2.91-.32.07-.65.14-.98.21q-1.13.24-2.16.76.98-3.34,1.57-3.88Z"/>
    <path class="cls-77" d="M75.72,68.68c.52.16,1.04.32,1.57.49-.17.64-.35,1.28-.52,1.94q-.95.33-2.1.49-.92-.7-1.57-1.46,1.57-.97,2.62-1.46Z"/>
    <path class="cls-67" d="M94.6,65.28c1.2,1.67,1.33,2.88,1.57,4.85-.69-.32-1.38-.64-2.1-.97v-.97c-.35-.16-.69-.32-1.05-.49.52-.8,1.04-1.6,1.57-2.43Z"/>
    <path class="cls-55" d="M48.45,48.77l-.52.97h-4.2c-.17-.64-.35-1.28-.52-1.94,2.19-.68,3.22.09,5.24.97Z"/>
    <path class="cls-72" d="M84.63,35.18q1.05.97,1.08,2.61c-.01.58-.02,1.16-.03,1.76q.22,1.12.52,1.94c-1.23-1.03-2-1.97-2.62-3.4v-1.46h1.05v-1.46Z"/>
    <path class="cls-71" d="M86.73,99.74h1.05c.2,1.63.16,2.23-.95,3.55q-1.15.82-2.72.82c.79-1.51,1.62-2.97,2.62-4.37Z"/>
    <path class="cls-34" d="M95.65,78.87c.75,1.14,1.09,1.69.85,3.03-.11.28-.22.56-.33.85-.35-.32-.69-.64-1.05-.97-.17.8-.35,1.6-.52,2.43h-1.05c.05-.71.1-1.42.16-2.12.03-.39.06-.79.09-1.19q.27-1.05,1.84-2.02Z"/>
    <path class="cls-20" d="M32.72,77.9c1.29.56,2.12.99,3.15,1.94l-1.57,1.46c-.69-.48-1.38-.96-2.1-1.46l.52-1.94Z"/>
    <path class="cls-15" d="M25.9,56.54h2.1c.03.71.05,1.42.07,2.12.01.39.02.79.04,1.19q-.1,1.05-1.15,2.02c-.63-1.88-1.05-3.36-1.05-5.34Z"/>
    <path class="cls-61" d="M75.72,80.81q3.93.3,6.29,1.94h-5.77c.17-.48.35-.96.52-1.46l-1.05-.49Z"/>
    <path class="cls-24" d="M51.6,58.48c1.66.66,2.09.97,3.15,2.43q-.52.72-1.05,1.46-1.05-.85-2.1-1.94v-1.94Z"/>
    <path class="cls-6" d="M92.5,49.26h1.57c-.35,2.08-.69,4.16-1.05,6.31h-.52c-.1-.96-.2-1.92-.29-2.88-.05-.53-.11-1.07-.17-1.62-.02-.44-.04-.87-.06-1.32l.52-.49Z"/>
    <path class="cls-37" d="M41.63,97.31l4.2.49c-1.54,1.21-2.72,1.68-4.72,1.94.17-.8.35-1.6.52-2.43Z"/>
    <path class="cls-54" d="M68.38,96.34c-.9,1.02-1.32,1.43-2.76,1.6-.42-.02-.84-.03-1.27-.05-.42-.01-.85-.03-1.28-.04-.32-.02-.64-.03-.98-.05,1.77-1.64,3.93-2.19,6.29-1.46Z"/>
    <path class="cls-85" d="M67.33,58.48h1.05q-.13,1.15-.52,2.43-1.08.64-2.1.97c0-1.71.37-2.15,1.57-3.4Z"/>
    <path class="cls-32" d="M58.94,58h2.1v1.46h-1.57v2.43q-.52.24-1.05.49c-.54-1.35-.55-1.88-.03-3.28.18-.36.37-.72.56-1.09Z"/>
    <path class="cls-29" d="M33.24,45.86h6.29v.49c-.87.16-1.73.32-2.62.49v.49c-1.21-.16-2.42-.32-3.67-.49v-.97Z"/>
    <path class="cls-80" d="M43.73,103.14l.52.97c-2,.71-3.3.21-5.24-.49v-.49c1.75-.4,3.02-.62,4.72,0Z"/>
    <path class="cls-73" d="M80.44,97.31l-.52,1.94c-1.54-.3-2.81-.77-4.2-1.46,1.68-.52,2.97-.52,4.72-.49Z"/>
    <path class="cls-79" d="M90.93,91c.35.48.69.96,1.05,1.46-.87.64-1.73,1.28-2.62,1.94v-1.46c-.52-.16-1.04-.32-1.57-.49.42-.15.84-.3,1.28-.46q1.29-.4,1.87-1Z"/>
    <path class="cls-59" d="M56.84,73.04h.52v3.4c-1.04.48-2.08.96-3.15,1.46l.52-1.46h1.05q-.03-.57-.07-1.15.07-1.27,1.11-2.24Z"/>
    <path class="cls-21" d="M56.32,71.59c.35.48.69.96,1.05,1.46q-.72,1.79-1.57,3.4c-.35-.16-.69-.32-1.05-.49v-2.91c.52-.16,1.04-.32,1.57-.49v-.97Z"/>
    <path class="cls-69" d="M24.85,69.65h1.05c-.17,2.08-.35,4.16-.52,6.31h-.52c-.1-.96-.2-1.92-.29-2.88-.05-.53-.11-1.07-.17-1.62-.02-.44-.04-.87-.06-1.32l.52-.49Z"/>
    <path class="cls-39" d="M56.84,68.19c.52.16,1.04.32,1.57.49-.35.64-.69,1.28-1.05,1.94-.52-.16-1.04-.32-1.57-.49l1.05-1.94ZM54.74,69.65c.35.32.69.64,1.05.97h-1.05v-.97Z"/>
    <path class="cls-9" d="M83.06,63.82q1.25-.09,2.62,0c.35.48.69.96,1.05,1.46q-1.57.49-3.67.49v-1.94Z"/>
    <path class="cls-46" d="M25.9,63.34h2.1c-.17.8-.35,1.6-.52,2.43h-1.57q-.29-.94-.52-1.94l.52-.49Z"/>
    <path class="cls-22" d="M88.83,46.83l2.1.49q.33.91.52,1.94c-.35.32-.69.64-1.05.97-.69-.8-1.38-1.6-2.1-2.43l.52-.97Z"/>
    <path class="cls-65" d="M80.96,19.17q1.08.21,2.1.49c-.68.67-1.38,1.31-2.1,1.94h-1.05q.46-1.88,1.05-2.43Z"/>
    <path class="cls-27" d="M43.21,100.23h4.2q-.92.76-2.1,1.46-1.18-.15-2.1-.49v-.97Z"/>
    <path class="cls-14" d="M47.93,98.29l-2.1.49v.97h-3.15c1.42-1.85,2.95-1.58,5.24-1.46Z"/>
    <path class="cls-72" d="M63.13,74.02c1.23,1.03,1.94,2,2.62,3.4-.87-.16-1.73-.32-2.62-.49v-2.91Z"/>
    <path class="cls-13" d="M77.82,16.25h1.05c-.17.48-.35.96-.52,1.46-.17-.48-.35-.96-.52-1.46ZM77.29,17.71c.69.32,1.38.64,2.1.97q-1.3.72-2.62,1.46c.17-.8.35-1.6.52-2.43Z"/>
    <path class="cls-33" d="M34.82,15.77h4.72c-.52.16-1.04.32-1.57.49v.97h-2.62c-.17-.48-.35-.96-.52-1.46Z"/>
  </g>
</svg>