<?xml version="1.0" encoding="UTF-8"?>
<svg id="Layer_1" xmlns="http://www.w3.org/2000/svg" version="1.1" viewBox="0 0 138 28.4">
  <!-- Generator: Adobe Illustrator 30.3.0, SVG Export Plug-In . SVG Version: 2.1.3 Build 182)  -->
  <defs>
    <style>
      .st0 {
        fill: #f0ebd8;
      }

      .st1 {
        fill: #412915;
      }
    </style>
  </defs>
  <path class="st0" d="M.9,0q.1,0,.3,0t.3,0c.3,0,.6,0,1,0,.2,0,.5,0,.7,0,.5,0,1,0,1.4,0,.6,0,1.2,0,1.8,0,.5,0,.9,0,1.4,0,.2,0,.4,0,.7,0,2.7,0,5.2.6,7.2,3.2,1.7,2.3,1.9,5,1.8,8.1,0,1-.3,1.9-.6,2.8,0,.1,0,.3-.1.4-.3,1-.9,1.8-1.5,2.5,0,0-.1.2-.2.3-1.5,1.8-3.7,2.4-5.7,2.4q-.2,0-.4,0c-.4,0-.8,0-1.2,0-.3,0-.5,0-.8,0-.7,0-1.3,0-2,0,0,.1,0,.2,0,.3,0,1,0,2,0,3,0,.5,0,1,0,1.5,0,.6,0,1.2,0,1.8,0,.2,0,.4,0,.6,0,.2,0,.3,0,.5,0,.2,0,.3,0,.5q0,.3-.1.5c-.3,0-.7,0-1,0-.1,0-.2,0-.3,0-.2,0-.4,0-.7,0-.3,0-.7,0-1,0-.2,0-.4,0-.6,0q-.2,0-.3,0-.7,0-.8-.2c0-.4,0-.7,0-1.1,0-.1,0-.2,0-.3,0-.4,0-.8,0-1.2,0-.3,0-.5,0-.8,0-.7,0-1.5,0-2.2,0-.6,0-1.2,0-1.9,0-1.5,0-2.9,0-4.4,0-1.5,0-3,0-4.5,0-1.3,0-2.6,0-3.9,0-.8,0-1.6,0-2.3,0-.7,0-1.5,0-2.2,0-.3,0-.5,0-.8,0-.4,0-.7,0-1.1,0-.1,0-.2,0-.3C0,.2.2,0,.9,0Z"/>
  <path class="st0" d="M108.6,8.9c.4.4.7.9,1,1.4.3-.2.6-.4.8-.8,1.1-1.5,2.5-2,4.1-2,1.6,0,3,.6,4.2,2,1.6,2.2,1.6,4.8,1.6,7.6,0,.3,0,.6,0,.9,0,.6,0,1.3,0,1.9,0,.8,0,1.7,0,2.5,0,.6,0,1.3,0,1.9,0,.3,0,.6,0,.9,0,.4,0,.9,0,1.3,0,.1,0,.3,0,.4q0,.9-.1,1c-.3,0-.6,0-1,0q-.1,0-.3,0c-.2,0-.4,0-.6,0-.3,0-.6,0-1,0-.2,0-.4,0-.6,0,0,0-.2,0-.3,0q-.7,0-.8-.2c0-.4,0-.8,0-1.1,0-.1,0-.2,0-.4,0-.3,0-.5,0-.8,0-.4,0-.8,0-1.2,0-1.2,0-2.4,0-3.5,0-.7,0-1.4,0-2.2,0-.3,0-.5,0-.8,0-.4,0-.8,0-1.2,0-.1,0-.2,0-.3,0-1-.2-1.7-.6-2.5-.6-.6-1.1-.8-1.8-.8-.7.1-1.3.4-1.8,1.1-.4.9-.5,1.6-.5,2.6q0,.2,0,.4c0,.3,0,.5,0,.8,0,.4,0,.8,0,1.2,0,1.2,0,2.3,0,3.5,0,.7,0,1.4,0,2.1,0,.3,0,.5,0,.8,0,.4,0,.8,0,1.1,0,.1,0,.2,0,.3q0,.8-.3,1.1c-.3,0-.6,0-1,0,0,0-.2,0-.3,0-.2,0-.4,0-.6,0-.3,0-.6,0-.9,0-.2,0-.4,0-.6,0,0,0-.2,0-.3,0q-.6,0-.8-.2c0-.4,0-.8,0-1.1,0-.1,0-.2,0-.4,0-.3,0-.5,0-.8,0-.4,0-.8,0-1.2,0-1.2,0-2.4,0-3.5,0-.7,0-1.4,0-2.2,0-.3,0-.5,0-.8,0-.4,0-.8,0-1.2,0-.1,0-.2,0-.3,0-1-.2-1.7-.6-2.6-.5-.6-1-.8-1.7-.9-.7,0-1.3.3-1.8.8-.6,1-.7,1.8-.7,3,0,.1,0,.2,0,.4,0,.3,0,.5,0,.8,0,.4,0,.8,0,1.2,0,1.2,0,2.3,0,3.5,0,.7,0,1.4,0,2.1,0,.3,0,.5,0,.8,0,.4,0,.8,0,1.1,0,.1,0,.2,0,.3q0,.8-.3,1.1c-.3,0-.6,0-.9,0,0,0-.2,0-.3,0-.2,0-.4,0-.6,0-.3,0-.6,0-.9,0-.2,0-.4,0-.6,0q-.1,0-.3,0t-.9-.3,0-.8c0-.2,0-.3,0-.5,0-.2,0-.4,0-.6,0-.2,0-.4,0-.6,0-.5,0-1.1,0-1.6,0-.6,0-1.1,0-1.7,0-.9,0-1.8,0-2.8,0-1.1,0-2.1,0-3.2,0-1,0-2.1,0-3.1,0-.4,0-.9,0-1.3,0-.5,0-1,0-1.5,0-.3,0-.6,0-.8,0-.2,0-.3,0-.5q0-.2,0-.4,0-.3.1-.5c.3,0,.6,0,1,0,0,0,.2,0,.3,0,.2,0,.4,0,.6,0,.3,0,.6,0,1,0,.2,0,.4,0,.6,0,0,0,.2,0,.3,0q.7,0,.8.2c0,.2,0,.5,0,.7,0,.1,0,.3,0,.4,0,.1,0,.2,0,.3,0,0,0-.1.1-.2,1.8-2.6,5.1-2.6,7.2-.6Z"/>
  <path class="st0" d="M29.3,8.7c.2.2.3.4.5.5,0,0,.2,0,.2-.1,0-.3,0-.5,0-.8,0-.3,0-.3,0-.4,0,0,0,0,0,0,.3,0,.6,0,.9,0,.6,0,1.2,0,1.9,0,.5,0,1,0,1.4,0s.1,0,.1.2c0,3.8,0,7.5,0,11.3,0,2.1,0,4.3,0,6.4,0,.6,0,1.2,0,1.8,0,.3,0,.3,0,.4,0,0,0,0,0,0-.6,0-1.2,0-1.8,0-.6,0-1.2,0-1.8,0-.6,0-.6,0-.7-.1s0,0,0-.1c0-.4,0-.9,0-1.3,0-.2-.2-.2-.2,0-1.9,1.9-3.8,2.2-6.2,1.9-3.8-1-6.2-5.5-6.1-10.2,0-3.2.8-6.1,2.7-8.3,2.4-2.6,6.4-3.5,9.1-.9Z"/>
  <path class="st0" d="M38.1,8.2h4.6q.4,1.1.5,1.6c0,.1,0,.2,0,.3,0,.1,0,.2,0,.3q0,.2,0,.3c.2.7.3,1.3.5,2,.3,1.4.7,2.9,1,4.3,0,.2.1.5.2.7.1.6.3,1.1.4,1.7,0,0,0-.2,0-.2.3-1.6.7-3.1,1.1-4.7.2-.9.4-1.7.6-2.6q.8-3.5,1-3.8c.3,0,.6,0,.9,0,0,0,.2,0,.3,0,.3,0,.6,0,.8,0,.2,0,.4,0,.6,0,.5,0,.9,0,1.4,0q.4,1.2.5,1.8c0,.1,0,.2,0,.3,0,.1,0,.2,0,.4,0,.3.1.5.2.8,0,.1,0,.3,0,.4.1.5.2,1,.4,1.5.1.5.2,1,.3,1.4,0,.2.1.5.2.7.3,1.3.6,2.6.8,3.9.4-1,.6-2,.8-3,0-.4.2-.8.3-1.1,0,0,0-.2,0-.3.2-.8.4-1.6.6-2.5.3-1,.5-2,.7-3,0-.1,0-.2,0-.4q0-.2,0-.3t.3-.6c.3,0,.7,0,1,0q.2,0,.3,0c.3,0,.7,0,1,0,.2,0,.4,0,.7,0,.5,0,1.1,0,1.6,0,0,.8-.2,1.6-.5,2.4q0,.2-.1.4c0,.3-.2.6-.2.9-.2.8-.4,1.6-.7,2.3,0,.2,0,.3-.1.5-.5,1.9-1,3.8-1.5,5.7q-1.2,4.3-1.7,6.3c0,.2,0,.3-.1.5,0,.1,0,.3-.1.4,0,.1,0,.2-.1.4q0,.3-.2.4c-.3,0-.6,0-.9,0,0,0-.2,0-.3,0-.2,0-.4,0-.6,0-.3,0-.6,0-.8,0-.2,0-.4,0-.5,0,0,0-.2,0-.3,0q-.6,0-.9-.3c0-.3-.2-.6-.2-.9,0,0,0-.2,0-.3,0-.2,0-.4-.1-.6,0-.4-.2-.9-.3-1.3,0-.2-.1-.5-.2-.7-.3-1.3-.6-2.6-.9-3.9,0-.3-.1-.5-.2-.8,0-.4-.2-.7-.3-1.1,0-.1,0-.2,0-.3-.1-.5-.2-.8-.4-1.2,0,.1,0,.3,0,.4-.3,1.2-.5,2.3-.8,3.5-.4,1.7-.8,3.3-1.1,5q-.5,2.2-.8,2.5c-.3,0-.6,0-.9,0,0,0-.2,0-.3,0-.2,0-.4,0-.5,0-.3,0-.5,0-.8,0-.2,0-.3,0-.5,0,0,0-.2,0-.2,0q-.2,0-.6,0c-.4-.5-.5-1.3-.7-2,0-.1,0-.3-.1-.4,0-.3-.1-.6-.2-.9-.2-.8-.4-1.5-.6-2.3,0-.2,0-.3-.1-.5-.4-1.5-.8-3.1-1.3-4.6-.2-.7-.4-1.4-.6-2.2,0-.1,0-.3-.1-.4-.1-.4-.2-.8-.3-1.2q0-.2-.1-.4c-.2-.7-.4-1.5-.6-2.2,0-.2-.1-.4-.2-.7,0-.3-.2-.6-.2-.9,0-.2,0-.3-.1-.5q0-.4,0-1Z"/>
  <path class="st0" d="M91.6,9.9c1.4,1.7,2.5,4,2.6,6.5,0,.5,0,.9,0,1.4,0,.2,0,.3,0,.5,0,2.7-.8,5.1-2.3,7.1-1.7,2.1-3.8,3-6.1,3-.1,0-.3,0-.4,0-1.2,0-2.3-.3-3.4-1.1,0,0-.2-.1-.2-.2-.6-.4-1.1-.8-1.5-1.3q-.1-.1-.3-.3c-1.5-1.6-2.3-4.3-2.5-6.7-.1-2.8.4-5.6,1.8-7.8.3-.3.5-.7.8-1,0,0,.1-.2.2-.3,3-3.7,8.2-3.1,11.2.2Z"/>
  <path class="st0" d="M135,9.4c1.6,1.8,2.6,4.2,2.9,6.9q.1,2.1,0,3c-.3.4-.5.3-.9.3,0,0-.2,0-.3,0-.1,0-.2,0-.3,0-.3,0-.7,0-1,0-.2,0-.5,0-.7,0-.6,0-1.3,0-1.9,0-.6,0-1.3,0-1.9,0-1.3,0-2.5,0-3.8,0,0,.2,0,.5.2.7,0,.1,0,.3,0,.4.3,1.1,1,1.9,1.8,2.4,1,.5,2.4.5,3.4,0,.6-.4,1.2-.9,1.6-1.6,1.1.3,2.2,1.6,3.2,2.5-.1,1-.6,1.6-1.2,2.2-1.6,1.5-3.3,2.2-5.3,2.2-.1,0-.2,0-.4,0-2.2,0-4.2-.9-5.8-2.8-1.8-2.5-2.4-5.4-2.3-8.7,0-2.7,1.2-5.1,2.6-7,2.9-3.2,7.3-3.4,10.3-.4Z"/>
  <path class="st0" d="M74.2,9.2c.5.6,1,1.2,1.4,2q0,.4,0,.7c-.4.3-.8.6-1.3.9-.1,0-.3.2-.4.3-.2.1-.4.3-.6.4-.1,0-.2.2-.4.3-.4.2-.5.2-.9,0q-.2-.2-.3-.5c-.5-.8-1-1.1-1.8-1.2q-1.1,0-2,.6c-.1.4,0,.7,0,1.2.5.9,1.8,1.1,2.7,1.4q4.1,1.6,5,3.8c0,0,0,.2.1.3,0,.2.1.3.2.5.4,1.5.2,3.3-.3,4.7-.8,1.9-2.2,2.9-3.8,3.4-.8.2-1.5.3-2.3.3-.1,0-.3,0-.4,0-2,0-3.8-.8-5.3-2.5q-.3-.4-.5-.8c0-.1-.2-.3-.2-.4-.2-.4-.3-.8-.3-1.3.7-.6,1.4-1,2.1-1.5.1,0,.2-.1.3-.2q.1,0,.3-.2c0,0,.2-.1.3-.2.3-.1.4-.1.7,0q.2.2.3.5c.5.9,1.1,1.3,2,1.6q.4,0,.8,0c.1,0,.3,0,.4,0,.5,0,.9-.3,1.3-.7.2-.5.1-.8,0-1.3-.6-.7-1.3-.9-2-1.2-.2,0-.4-.1-.6-.2q-.2,0-.3-.1c-1.8-.6-3.5-1.3-4.5-3.3-.4-1-.6-1.9-.5-3.1,0-.1,0-.2,0-.4,0-1.6.5-2.7,1.4-3.9,2.6-2.9,6.9-2.7,9.6-.1Z"/>
  <path class="st1" d="M87.9,13.5c1,1,1.6,2.1,1.7,3.8,0,1.7-.2,3.1-1.1,4.4-.8.9-1.7,1.3-2.8,1.3-1,0-1.8-.6-2.6-1.5-.7-1.1-.9-2.2-.9-3.5,0-.1,0-.2,0-.4,0-1.5.4-2.6,1.2-3.7,1.3-1.4,2.9-1.5,4.4-.5Z"/>
  <path class="st1" d="M5,5.7q1.2,0,2.4,0c.2,0,.5,0,.8,0,.2,0,.4,0,.6,0,.1,0,.2,0,.3,0,1.1,0,2,.4,2.7,1.4.7,1,.7,2,.7,3.2,0,.7-.2,1.2-.5,1.8,0,0,0,.2-.1.3-.4.6-.8.9-1.3,1.2,0,0-.2,0-.3.2-.5.2-1,.2-1.5.2,0,0-.2,0-.3,0-.4,0-.7,0-1.1,0-.8,0-1.6,0-2.4,0V5.7Z"/>
  <path class="st1" d="M26.2,17.2c.5.4.8,1,1.1,1.6.3.6.7,1.2,1.1,1.7.4.6.5,1.2.5,2,0,.6-.2.8-.6,1.2-.7.5-1.2.4-2,.3,0,0-.2,0-.2,0-.6-.2-1.2,0-1.8,0-.8.2-1.4.2-2.1-.2-.5-.5-.6-.9-.7-1.7,0-1,.4-1.5,1-2.2.3-.5.5-.9.8-1.4.8-1.4,1.7-2.1,3.1-1.3Z"/>
  <path class="st1" d="M131.8,12.5c.7.6,1.4,1.4,1.6,2.5v.9h-6.4c.1-1.6.4-2.1,1.3-3.1,1-1,2.4-1,3.5-.3Z"/>
  <path class="st1" d="M23.4,11.2c.4,0,.5,0,.9.4.6.8.7,1.5.8,2.5,0,.8-.2,1.2-.6,1.7-.4.3-.6.3-1,.2-.6-.3-.8-1-1.1-1.7q-.1-1.8.2-2.4t.9-.7Z"/>
  <path class="st1" d="M27.5,11.2c.3.3.5.6.7,1,0,1.1.1,2.3-.5,3.2-.3.4-.6.6-1,.7-.5-.1-.6-.4-.9-.8-.3-.7-.3-1.5-.2-2.3.3-1.2.9-2.1,1.9-1.7Z"/>
  <path class="st1" d="M29.8,14.7c.3.3.5.4.7.9,0,1,0,1.8-.4,2.7-.4.5-.7.8-1.2.9-.4,0-.6-.3-.9-.7-.3-.7-.2-1.6,0-2.3.4-1,1-1.6,1.8-1.4Z"/>
  <path class="st1" d="M21.5,14.7c.6.4,1,1,1.2,1.9,0,.6,0,1.1-.1,1.7q-.4.6-.7.7c-.5,0-.7,0-1.1-.4-.5-.7-.8-1.3-.8-2.3,0-.5.1-.8.4-1.2,0,0,0-.2.1-.3.3-.3.6-.2,1-.2Z"/>
  <path class="st1" d="M5.2,13.2c.1,0,.2.2.3.3q.3,0,.5,0c0,0,.2,0,.3,0,0,0,.1,0,.2,0h0c-.5.1-1,.1-1.6.1l.2-.6Z"/>
</svg>