<?xml version="1.0" encoding="UTF-8"?>
<svg id="Layer_2" data-name="Layer 2" xmlns="http://www.w3.org/2000/svg" viewBox="0 0 120.11 120.22">
  <defs>
    <style>
      .cls-1 {
        fill: #eae2c9;
      }

      .cls-2 {
        fill: #bb8e72;
      }

      .cls-3 {
        fill: #ca9c81;
      }

      .cls-4 {
        fill: #705c46;
      }

      .cls-5 {
        fill: #aea08b;
      }

      .cls-6 {
        fill: #e7dec3;
      }

      .cls-7 {
        fill: #442b1a;
      }

      .cls-8 {
        fill: #a5957f;
      }

      .cls-9 {
        fill: #d1c5ad;
      }

      .cls-10 {
        fill: #c3b59f;
      }

      .cls-11 {
        fill: #c0b29a;
      }

      .cls-12 {
        fill: #735e4b;
      }

      .cls-13 {
        fill: #e9e0c7;
      }

      .cls-14 {
        fill: #cd7957;
      }

      .cls-15 {
        fill: #c2b29a;
      }

      .cls-16 {
        fill: #78634c;
      }

      .cls-17 {
        fill: #76614b;
      }

      .cls-18 {
        fill: #b2a28b;
      }

      .cls-19 {
        fill: #422715;
      }

      .cls-20 {
        fill: #9f8e78;
      }

      .cls-21 {
        fill: #816d57;
      }

      .cls-22 {
        fill: #c3b69d;
      }

      .cls-23 {
        fill: #86725c;
      }

      .cls-24 {
        fill: #d0c2ad;
      }

      .cls-25 {
        fill: #e8dfc6;
      }

      .cls-26 {
        fill: #74604e;
      }

      .cls-27 {
        fill: #deb19a;
      }

      .cls-28 {
        fill: #dacfb9;
      }

      .cls-29 {
        fill: #e9e1c8;
      }

      .cls-30 {
        fill: #e7dbc1;
      }

      .cls-31 {
        fill: #d1c2ac;
      }

      .cls-32 {
        fill: #725c46;
      }

      .cls-33 {
        fill: #c28970;
      }

      .cls-34 {
        fill: #b4a690;
      }

      .cls-35 {
        fill: #cabca4;
      }

      .cls-36 {
        fill: #bfb19a;
      }

      .cls-37 {
        fill: #baaa94;
      }

      .cls-38 {
        fill: #c6b8a0;
      }

      .cls-39 {
        fill: #b2a28c;
      }

      .cls-40 {
        fill: #b0a38e;
      }

      .cls-41 {
        fill: #b8aa97;
      }

      .cls-42 {
        fill: #d8a182;
      }

      .cls-43 {
        fill: #6e553e;
      }

      .cls-44 {
        fill: #6d573f;
      }

      .cls-45 {
        fill: #725d47;
      }

      .cls-46 {
        fill: #a5947f;
      }

      .cls-47 {
        fill: #c0b39d;
      }

      .cls-48 {
        fill: #998870;
      }

      .cls-49 {
        fill: #bfaf97;
      }

      .cls-50 {
        fill: #b0a08a;
      }

      .cls-51 {
        fill: #705a42;
      }

      .cls-52 {
        fill: #b4a58e;
      }

      .cls-53 {
        fill: #705d48;
      }

      .cls-54 {
        fill: #e3d6bd;
      }

      .cls-55 {
        fill: #baaa92;
      }

      .cls-56 {
        fill: #c2b49d;
      }

      .cls-57 {
        fill: #9a8871;
      }

      .cls-58 {
        fill: #cbbda4;
      }

      .cls-59 {
        fill: #bdb09a;
      }

      .cls-60 {
        fill: #93816b;
      }

      .cls-61 {
        fill: #dcd0b8;
      }

      .cls-62 {
        fill: #705a45;
      }

      .cls-63 {
        fill: #baa992;
      }

      .cls-64 {
        fill: #c5866f;
      }

      .cls-65 {
        fill: #755f49;
      }

      .cls-66 {
        fill: #79644e;
      }

      .cls-67 {
        fill: #e9cdb2;
      }

      .cls-68 {
        fill: #c3b69f;
      }

      .cls-69 {
        fill: #b2a38c;
      }

      .cls-70 {
        fill: #baad99;
      }

      .cls-71 {
        fill: #cd805d;
      }

      .cls-72 {
        fill: #d19171;
      }

      .cls-73 {
        fill: #f0eedf;
      }

      .cls-74 {
        fill: #c8967f;
      }

      .cls-75 {
        fill: #654f3a;
      }

      .cls-76 {
        fill: #8a755f;
      }

      .cls-77 {
        fill: #baa991;
      }

      .cls-78 {
        fill: #624d37;
      }

      .cls-79 {
        fill: #b8aa94;
      }
    </style>
  </defs>
  <g id="Layer_1-2" data-name="Layer 1">
    <g>
      <rect class="cls-73" x=".09" y=".15" width="119.87" height="119.87" rx="20" ry="20"/>
      <path d="M99.96,120.03c-15.23.02-62.03.07-76.5.09C10.9,121.23.24,112.99,0,100.02c0-10.32.06-60.36.05-69.55.12-4.02-.33-9.96.32-13.9.83-4.57,3.28-8.84,6.86-11.82C10.81,1.77,15.44.1,20.09.08l55.64-.04s13.91,0,13.91,0c4.03.13,9.95-.33,13.91.34,9.36,1.55,16.64,10.3,16.53,19.78-.01,15.23-.04,62.03-.07,76.5,1.08,12.52-7.13,23.15-20.06,23.38h0ZM99.96,120.01c12.85-.25,21.07-10.88,19.94-23.35-.03-14.2-.05-61.55-.07-76.5.11-9.36-7.08-18.02-16.33-19.55-3.89-.65-9.85-.21-13.87-.34,0,0-13.91,0-13.91,0l-55.64-.04c-4.62.02-9.22,1.66-12.77,4.62C3.76,7.81,1.31,12.04.48,16.59c-.66,3.9-.22,9.85-.35,13.88.02,8.9.03,59.52.05,69.55.24,12.81,10.84,20.99,23.27,19.9,14.2.01,61.55.07,76.5.09h0Z"/>
    </g>
    <path class="cls-19" d="M66.03,23.93v.5q.26.03.53.07c.73.19,1.23.54,1.88,1.06.88.68,1.61,1.1,2.61,1.13v.75c.14.07.28.13.42.2.15.1.29.2.44.3.06.25.11.5.17.75q.28.11.56.22c.76.33.98.7,1.52,1.53.26.3.52.6.78.89,1.74,1.99,3.32,4.19,4.76,6.62.16.26.31.51.47.76.97,1.59,1.78,3.2,2.5,5.05.42.9.86,1.55,1.59,1.88.1.02.19.04.29.06v.5h1.39q.03-.26.06-.53c.51-3.13,2.24-7.13,3.93-9.24.3-.26.6-.51.91-.74.59-.45,1.16-.91,1.71-1.44,1.31-1.19,2.57-1.45,4.09-1.41q.25,0,.51,0c1.72.05,3.34.21,4.91,1.32.44.23.87.46,1.31.69.54.4.87.93,1.29,1.57.32.41.63.82.95,1.22.72.95,1.31,1.83,1.82,3.04v.5h.35c.74,2.6.92,6.37.17,9.01-.77,2.3-1.7,4.18-2.94,6.01-.11.17-.22.34-.33.52-2.54,3.92-6.13,6.16-9.61,7.69-1.68.75-3.23,1.7-4.52,3.47q-.21.28-.42.56-.49.72-.88,1.54c.04.82.33,1.46.62,2.16q.42,1.04.42,1.6h.35c.33,2.31.38,4.59.39,6.95q0,.43,0,.87c-.01,5.94-2.25,11.26-5.07,15.46-.7.94-1.46,1.73-2.25,2.5-.13.13-.26.27-.39.4-1.74,1.72-3.73,1.95-5.79,1.5-1.08-.42-1.94-1.44-2.66-2.65-.55-2.06-.13-4.67.26-6.73.08-.55.1-1.02.11-1.58,0-.2,0-.4,0-.6q0-.31,0-.63c0-.21,0-.42,0-.64,0-1.46-.06-2.88-.19-4.33h-.35c-.06-.58-.11-1.16-.17-1.75q-.22.16-.44.33c-.59.42-1.2.8-1.81,1.17-.19.14-.38.28-.57.42q-.47.33-.81.33v.5c-.25.13-.5.25-.75.38-.14.07-.28.14-.42.21q-.39.16-.91.16v.5c-.17.08-.33.16-.51.24-.23.11-.46.22-.68.32-.12.06-.24.11-.36.17-.65.31-1.29.65-1.92,1.05-1.06.63-2.16.9-3.28,1.22-.26.08-.51.16-.77.25-.26.09-.53.17-.79.25q-.17.05-.35.11c-5.22,1.58-10.74.66-15.94-.61v-.5h-1.56q-.07.27-.14.54c-.95,3.17-3.02,6-5.06,7.72h-.35c-.06.25-.11.5-.17.75q-.33.26-.75.49-.24.13-.48.26t-.5.26c-.16.08-.31.16-.48.24-3.66,1.81-7.48,2.34-11.17.24-.49-.37-.73-.8-1-1.48-.55-3.82.85-7.92,2.25-11.01q.28-.6.52-1h.35c.01-.18.03-.36.04-.55.17-.88.43-1.26.88-1.89.14-.19.27-.39.41-.59.39-.46.61-.63,1.1-.72.06-.41.11-.83.17-1.25q-.15-.13-.3-.26-.19-.17-.38-.34-.19-.17-.38-.33-.32-.32-.49-.82-.3-.26-.65-.5c-.12-.08-.23-.17-.35-.25q-.39-.26-.81-.48c-.46-.29-.78-.63-1.17-1.1-.5-.58-.99-1.08-1.56-1.5-2.4-1.85-4.6-4.78-6.19-7.93q-.12-.21-.24-.42c-.69-1.38-.61-3.21-.45-4.83q.21-.48.52-.75.39-.08.8-.06c.14,0,.28,0,.42.01q.34.05.51.3c2.12.79,5.34,1.77,7.36.13.55-.79.63-1.82.78-2.88.11-.53.22-1.05.34-1.58.18-.85.36-1.69.54-2.54.3-1.42.6-2.79,1.03-4.14.07-.24.14-.48.21-.73.41-1.4.91-2.74,1.39-4.09q.14-.4.29-.81,1.58-4.4,2.61-5.89c.05-.2.11-.4.17-.61.2-.72.43-1.07.82-1.59.46-.64.9-1.28,1.31-1.99.54-.9,1.1-1.76,1.68-2.61q.12-.19.25-.38c.56-.82,1.14-1.42,1.82-2.01.37-.32.72-.67,1.08-1.03,2.28-2.28,4.54-4.09,7.24-5.1.47-.17.91-.38,1.37-.61,5.52-2.68,12.77-1.96,18.22.66Z"/>
    <path class="cls-13" d="M69.15,31.19c.82.12,1.29.41,1.94,1.13q.25.27.5.55c1.28,1.45,2.52,2.94,3.71,4.52.23.3.47.6.71.89.84.98,1.46,2.09,2.1,3.34.1.19.2.38.3.57.26.51.53,1.02.79,1.53q.14.26.29.52.23.48.2,1.15c-.19,1.04-.41,2.06-.65,3.08-.04.2-.09.39-.13.59-.26,1.1-.54,2.13-.93,3.16-.6-.16-1.06-.5-1.56-1v-.5c-.11-.05-.22-.09-.34-.14-.7-.29-1.38-.58-2.05-1.02-1.88-1.15-4.57-.93-6.45.16-.86.73-1.57,1.7-2.25,2.75-.09.13-.17.26-.26.39-.7,1.09-1.26,2.27-1.82,3.52-.82,1.82-1.74,3.54-3.24,4.24-1.63.46-3.08.17-4.55-.89v-.5c-.51-.25-1.03-.5-1.56-.75v-.5h-.35v-.5c-.17-.03-.34-.05-.51-.08-.51-.1-.94-.29-1.42-.55-.87-.42-1.66-.49-2.56-.46-.15,0-.3,0-.46,0-2.67.09-4.64,1.84-6.48,4.59-1.4,2.37-2.57,5.78-2.97,8.84-.03.22-.06.44-.09.67-.02.17-.04.33-.06.5-1-.12-1.73-.55-2.62-1.22-.12-.09-.24-.18-.36-.27-.51-.38-1-.76-1.49-1.19q-.4-.37-.95-.59t-.65-.74c-.17-.1-.34-.2-.52-.3-.88-.52-1.57-1.37-2.31-2.22-.14-.16-.28-.32-.43-.48q-1.01-1.16-1.43-1.75c.05-1.8.37-3.42.75-5.13.05-.25.1-.5.16-.76.05-.24.1-.47.16-.72.05-.22.09-.43.14-.65q.19-.5.53-.7c.39-.05.67.03,1.04.2v.5c.1.03.2.06.3.09.13.04.27.08.41.13.13.04.26.08.4.12q.46.16.99.42c.89.37,1.81.31,2.73.3.18,0,.36,0,.54,0,3.27-.01,6.05-1.92,8.43-5.18,1.56-2.44,2.95-5.54,3.81-8.62q.25-.79.66-1.04c.47,0,.87.08,1.32.25v.5c1.91.28,3.8.3,5.72.25.18,0,.36,0,.55-.01,1.48-.11,3.19-.76,4.5-1.78.44-.29.71-.33,1.18-.21q.38.51.75,1.22.2.37.41.76c.13.26.27.51.41.78.25.46.5.92.76,1.38.11.2.22.4.33.6q.29.52.6.94.22.34.22.84c.64.07,1.26.11,1.91,0,.43-.62.49-.99.58-1.83-.09-.96-.47-1.44-.93-2.09-.17-.26-.35-.53-.52-.79q-.13-.2-.26-.4c-.37-.57-.72-1.15-1.06-1.75-.11-.19-.22-.38-.34-.58-.29-.7-.35-1.01-.24-1.82q.39-.6.92-1.24c1.2-1.48,2.13-3.19,3.06-5.02Z"/>
    <path class="cls-25" d="M81.79,48.96c.29.08.57.17.87.25.06.25.11.5.17.75.8.17,1.6.33,2.42.5q-.15,3.44-.35,4.01h-.35c-.02.23-.04.46-.05.7-.22,2.12-.61,3.85-1.42,5.66-.43,1.07-.69,2.22-.95,3.4h-.35q-.07.33-.14.67c-.63,2.55-1.99,4.74-3.15,6.84-.1.19-.21.38-.31.57-.82,1.43-1.79,2.56-2.8,3.68-.17.2-.35.39-.53.59-1.23,1.35-2.53,2.46-3.89,3.54-.16.13-.33.26-.5.39-.65.5-1.25.95-1.95,1.27q-.21.1-.42.21c-.06.25-.11.5-.17.75q-.44.27-1.01.51c-.21.09-.41.18-.63.27-.22.09-.44.18-.66.27-.22.09-.43.18-.65.28q-1.75.73-2.6.68v.5c-.37.27-.66.34-1.08.43-.15.03-.29.06-.45.1-.15.03-.31.07-.47.1q-.22.05-.45.1c-.46.1-.91.19-1.37.28-.13.03-.26.05-.4.08-1.41.24-2.83.22-4.25.22q-.2,0-.41,0c-3.11,0-6.11-.36-9.15-1.3q-.3-.09-.61-.18c-.85-.26-1.65-.57-2.46-1.05-1.06-.63-2.15-1.04-3.25-1.45-.91-.36-1.56-.78-2.34-1.57q-.41-.19-.83-.3c-1.21-.43-2.24-1.3-3.32-2.16-.73-.58-1.48-1.08-2.25-1.54v-.5c-.12-.02-.24-.04-.36-.06-.74-.27-1.44-.76-1.97-1.57-.31-.43-.58-.59-.98-.82-.91-.56-1.68-1.3-2.48-2.12-.14-.14-.29-.29-.44-.44q-2.78-2.81-3.82-4.51v-.5c.13,0,.25,0,.38.01.58.02,1.17.03,1.75.04q.3,0,.6.02c1.32.02,2.42-.23,3.67-.82.44-.18.74-.25,1.21-.25q.31.5.69,1.25c.55.63,1.14,1.19,1.73,1.75.14.14.29.28.44.42,1.98,1.86,3.94,3.57,6.21,4.57.15.09.3.18.45.27.06.25.11.5.17.75.41.2.8.35,1.21.5.31.12.61.25.91.38l.98.4c.58.24,1.16.48,1.74.72v.5c.19-.02.38-.04.57-.06.62,0,1.05.17,1.61.52,1.44.83,3.01.97,4.54,1.22q.38.08.9.33c.52.03,1.03.04,1.55.04.15,0,.31,0,.47,0,.33,0,.66,0,.99,0,.49,0,.99,0,1.48,0,1.65,0,3.24-.07,4.87-.45.47-.1.91-.13,1.39-.11v-.5c.19-.04.38-.09.58-.13,1.45-.34,2.74-.75,4.09-1.62.32-.18.65-.35.97-.52,1.07-.56,2.13-1.12,3.18-1.74v-.5c.32-.31.65-.6.99-.88,1.74-1.5,3.34-3.24,4.73-5.38.14-.2.27-.39.42-.6,1.83-2.67,3.27-5.8,4.43-9.17h.35c.02-.22.04-.44.05-.67q.12-.83.36-1.4c.32-.77.5-1.52.7-2.37.34-1.39.71-2.73,1.14-4.07Z"/>
    <path class="cls-25" d="M74.42,53.87q.44.35.62,1.1.42.29.87.5l.35.25c.04.97-.07,1.63-.35,2.5h-.35c-.04.18-.09.36-.13.54-1.86,6.22-6.41,10.18-10.43,12.97-.18.14-.36.27-.54.41-.48.33-.9.53-1.42.7q-.27.09-.54.19c-.2.07-.4.14-.61.21-.24.08-.48.17-.72.25-1.31.46-2.61.87-3.94,1.15q-.36.05-.54.35c-.44.03-.87.05-1.31.05q-.2,0-.41,0c-.44,0-.88,0-1.32,0-.15,0-.3,0-.45,0q-8.04-.01-11.23-2.32c.02-.57.05-1.15.08-1.72.01-.32.03-.64.04-.97q.05-.82.23-1.32h.35c.01-.15.02-.3.03-.46.27-2.7,1.46-4.86,2.91-6.55,1.59-1.38,3.02-1.86,4.87-1.35.71.27,1.27.51,1.88,1.1v.5c.12.05.25.09.37.14q.24.09.48.19c.16.06.32.12.48.18.13.08.26.16.4.24.06.25.11.5.17.75q.45.24.99.39c.55.18,1.07.35,1.6.63.63.28,1.18.3,1.84.29.22,0,.44,0,.67,0,.58-.06.96-.22,1.48-.57.18-.05.36-.09.54-.14,2.07-.84,3.59-4.18,4.72-6.62,2.16-4.67,4.77-5.55,8.32-3.6Z"/>
    <path class="cls-13" d="M97.53,36.9c.17,0,.33,0,.5,0q1.22.01,1.42.3c.26.05.53.11.79.16,1.05.29,1.58,1.03,2.33,2.1.25.31.5.62.76.92.47.57.72,1.03.97,1.83.09.13.19.27.28.41.08.11.16.23.24.34v.5h.35c.37,1.75.4,3.98-.09,5.68-.14.37-.28.73-.43,1.08-.09.22-.18.43-.28.65-1.2,2.59-3.02,4.87-4.92,6.36h-.35q-.09.37-.17.75c-.41.24-.81.44-1.23.63-.89.39-1.73.84-2.58,1.38-.57.32-1.14.62-1.72.93q-.53.3-.97.71c-.47.4-.92.6-1.45.82-1.67.79-2.42,2.18-3.31,4.3-.91-.57-1.54-1.56-2.08-2.75-.22-1.38.35-2.49.82-3.63.33-.93.46-1.89.62-2.9.1-.62.23-1.2.38-1.8.23-.95.37-1.9.5-2.89.2-1.52.43-3.02.69-4.52.03-.2.06-.39.1-.59.22-1.23.53-2.19,1.03-3.24q.23-.49.43-1.32c.81-2.53,2.53-4.51,4.26-5.63,1.04-.55,2-.57,3.1-.55Z"/>
    <path class="cls-1" d="M83.87,67.73c.58.36.92.79,1.33,1.47.1.17.21.34.32.51.26.52.36.89.43,1.52h.35c1.09,2.51,1.69,5.05,1.73,8.01.01.29.03.57.04.86.09,3.11-.4,6.15-1.42,8.9h-.35c-.05.18-.09.36-.14.55-.99,3.36-3.02,5.84-5.23,7.46-.84.4-1.54.6-2.42.5-.17-.17-.34-.33-.52-.5.02-.4.05-.8.08-1.2q.02-.34.04-.68.05-.62.23-1.37c.06-1.23.06-2.46.06-3.69,0-.18,0-.35,0-.53,0-3.08-.3-5.39-1.23-8.18-.24-.92-.25-1.2-.05-2.11q.26-.45.59-.88c.12-.16.25-.32.37-.48q.2-.25.4-.51c1.78-2.34,3.19-4.82,4.43-7.8.29-.66.62-1.25.96-1.85Z"/>
    <path class="cls-30" d="M54,25.88q.2,0,.41,0c.43,0,.86,0,1.3,0,.15,0,.29,0,.45,0,2.12,0,4.17.1,6.24.81.12.04.24.08.36.12,1.2.41,2.32.91,3.45,1.63q.26.12.52.25c-.16,1.22-.65,1.92-1.2,2.83-.1.17-.2.34-.31.51-1.03,1.66-2.14,3.14-3.69,3.67v.5c-1.12.81-2.2,1.27-3.43,1.56-.17.04-.35.08-.52.13-3.3.74-6.35.5-9.38-1.69v-.5c-.15-.06-.31-.11-.47-.17-.68-.39-.95-.8-1.44-1.58-.4-.56-.8-1.12-1.2-1.68q-.87-1.38-.89-2.35c.75-1.9,3.83-2.57,5.26-3.16.13-.05.25-.11.38-.16,1.37-.55,2.74-.69,4.16-.7Z"/>
    <path class="cls-29" d="M41.79,31.94c.05.28.09.57.14.86q.1.44.21.89c.17.08.34.17.52.25q.22.38.44.88c.85,1.7,1.93,3.1,3.19,4.13-.04,1.69-.3,2.82-.95,4.22-.08.17-.15.34-.23.52-1.65,3.61-3.7,6.81-6.61,8.27-1.81.48-3.66.55-5.37-.5-.25-.13-.5-.26-.76-.39q-.63-.36-1.15-.86c.1-.9.26-1.55.58-2.33.29-.7.49-1.34.68-2.12.3-1.18.75-2.13,1.25-3.14.09-.18.18-.37.28-.56.91-1.8,1.91-3.42,3-4.99.28-.4.55-.81.82-1.23q2.58-3.91,3.94-3.91Z"/>
    <path class="cls-6" d="M33.13,83.75c.24.24.47.49.69.75.34.21.69.39,1.04.56q.35.19.82.56c.69.46,1.38.68,2.12.94.66.24,1.27.57,1.9.94q.05.55,0,1.25-.39.63-.87,1.25c-.1.19-.2.39-.31.59-.44.76-.94,1.34-1.49,1.93-.1.11-.19.21-.29.32-.28.31-.57.61-.86.92-.16.17-.32.35-.48.53-.75.63-1.51.94-2.35,1.27-.31.13-.63.26-.94.39q-.21.08-.42.17t-.49.4c-.63.06-1.27.05-1.91.05-.18,0-.35,0-.53,0-1.09,0-2.05-.14-3.1-.56q-.17-.25-.22-1.02c.06-1.17.3-1.93.68-2.95.06-.18.13-.35.19-.54.18-.5.37-1,.56-1.5.08-.22.17-.43.25-.66,1.15-2.72,3.6-7.12,5.98-5.6Z"/>
    <path class="cls-14" d="M52.52,25.93q7.24-.16,9.87.75c.12.04.24.08.36.12,1.2.41,2.32.91,3.45,1.63.17.08.34.17.52.25-.16,1.22-.65,1.92-1.2,2.83-.1.17-.2.34-.31.51-1.03,1.66-2.14,3.14-3.69,3.67v.5c-1.05.77-1.94,1.14-3.12,1.25.49-.48.85-.67,1.42-.91.16-.07.31-.13.47-.2.12-.05.24-.1.36-.15v-.25c-.21-.02-.41-.05-.63-.07q-3.42-.45-4.45-2.05c-.1-.21-.19-.41-.29-.63q-.19-.22-.39-.44c-.41-.76-.39-1.31-.36-2.26.13-1.38.66-2.33,1.33-3.27.42-.44.81-.51,1.32-.55v-.5h-4.68v-.25Z"/>
    <path class="cls-71" d="M70.38,35.27c.16,0,.33,0,.49,0,1.84.1,3.03,1.09,4.28,3.01.48.84.63,1.32.62,2.39q0,.32,0,.65c-.06.87-.22,1.4-.67,1.98-.1.1-.21.2-.31.31-.1.1-.21.21-.31.32-.96.84-2.17.66-3.25.51-1.39-.67-2.5-2.72-3.2-4.51-.32-1.03-.48-2.15-.26-3.25.71-1.48,1.47-1.46,2.62-1.42Z"/>
    <path class="cls-7" d="M98.94,41.95c.62.65.93,1.48,1.21,2.5.09.96.07,1.35-.29,2.17-.61.88-1.02,1.28-1.87,1.45-.76-.16-1-.52-1.47-1.38-.36-1.05-.25-2.39-.02-3.49.22-.58.4-.94.83-1.17.56-.13,1.05-.17,1.61-.09Z"/>
    <path class="cls-74" d="M69.15,31.19q.51.09,1.04.25c.06.17.11.33.17.5h-.52c-.03.18-.06.35-.1.53-.34.98-.84,1.6-1.46,2.22h-.35l-.17.75q-.31.34-.69.66t-.87.84c-.01.55-.01,1.1-.01,1.64,0,.3,0,.6,0,.91,0,.23,0,.46,0,.7q-1.04-1.5-1.11-2.07c.1-1.01.45-1.29.99-1.92,1.2-1.48,2.13-3.19,3.06-5.02Z"/>
    <path class="cls-31" d="M64.47,88.76c-.06.25-.11.5-.17.75-.91.17-1.83.33-2.77.5v.5c-1.37.08-2.74.17-4.16.25-.06.17-.11.33-.17.5-.91,0-1.81.01-2.72.01-.31,0-.62,0-.93,0-.44,0-.89,0-1.33,0-.14,0-.28,0-.42,0q-.98,0-1.36-.28c-.24-.04-.48-.06-.72-.08-.14-.01-.28-.02-.42-.03-.15,0-.29-.02-.44-.03-.15-.01-.29-.02-.45-.03-.36-.03-.73-.05-1.09-.08-.06-.17-.11-.33-.17-.5.25,0,.51-.01.76-.02.14,0,.28,0,.43,0,.44.02.85.07,1.28.15,1.36.21,2.73.19,4.09.19.14,0,.28,0,.43,0,2.15,0,4.24-.14,6.34-.81.13-.04.27-.08.4-.13.27-.09.53-.17.8-.26.42-.14.85-.27,1.27-.4.14-.04.28-.08.42-.13q.39-.09,1.08-.09Z"/>
    <path class="cls-3" d="M52.52,25.93c.7-.02,1.39-.03,2.09-.04.35,0,.7-.02,1.05-.02,1.58-.02,2.96.25,4.48.82v.25c-.23,0-.46.02-.69.03-.3.02-.6.03-.9.05-.15,0-.3.01-.45.02-1.01.06-1.61.28-2.39,1.25-.8,1.41-.67,2.92-.59,4.66-.34-.41-.5-.63-.59-1.26.01-1.7.28-2.79,1.08-4.07.49-.69.9-.88,1.59-.92v-.5h-4.68v-.25Z"/>
    <path class="cls-56" d="M99.11,61.97l.35.25c-.57.98-1.06,1.2-1.91,1.5-.73.32-1.43.65-2.11,1.16q-.49.34-1.03.47t-.81.48c-.45.47-.84.62-1.37.82-.17.06-.34.13-.52.19-.13.05-.26.09-.39.14,1.18-1.85,2.94-2.44,4.55-3.19.98-.46,1.92-1,2.86-1.62.13-.06.25-.13.38-.2Z"/>
    <path class="cls-40" d="M103.1,34.44v.5c-.55-.25-1.06-.51-1.57-.88-1.54-.95-3.26-.92-4.9-.94-.16,0-.33,0-.49,0-.92,0-1.69.13-2.56.57v-.5c3.19-1.78,6.55-1.11,9.53,1.25Z"/>
    <path class="cls-41" d="M60.32,21.92v.25h-8.49c1.13-.82,2.08-.85,3.33-.92.38-.02.75-.05,1.13-.07,1.42-.08,2.68.03,4.03.74Z"/>
    <path class="cls-39" d="M75.39,99.27c.07.1.14.21.22.31,1.31,1.77,2.6,1.79,4.34,1.76.73-.08,1.35-.29,2.04-.65q.34-.16.86-.16c-.11.25-.23.5-.35.75q-.63.05-1.21,0v.5c-1.11.6-2.28.71-3.46.5q-.3-.37-.52-.75c-.16-.07-.33-.14-.5-.22-.65-.34-.96-.78-1.41-1.53v-.5Z"/>
    <path class="cls-12" d="M37.11,30.94l.35.25q-.19.3-.39.61c-.08.13-.17.26-.25.4-.19.29-.37.58-.56.88-.47.73-.94,1.47-1.39,2.21-.8,1.3-1.57,2.49-2.6,3.41.23-.75.48-1.25.9-1.81.43-.6.83-1.21,1.21-1.86.86-1.44,1.8-2.75,2.74-4.08Z"/>
    <path class="cls-33" d="M69.15,31.19l1.04.25c.06.17.11.33.17.5h-.52c-.04.19-.09.38-.13.58-.24.74-.42,1.02-.91,1.42h-.52q-.38.48-.69,1l-.35-.25c.63-1.16,1.26-2.31,1.91-3.5Z"/>
    <path class="cls-20" d="M89.93,72.99l.35.25v.5h.35c.33,2.31.38,4.59.39,6.95,0,.29,0,.57,0,.87,0,1.71-.11,3.29-.39,4.95-.16-.81-.14-1.38-.05-2.22.34-3.81.08-7.63-.64-11.3Z"/>
    <path class="cls-34" d="M15.81,61.22h2.25v.5q.22.02.45.05,1.7.18,2.4.35c1.01.18,2.02.13,3.04.11-.45.66-.79.57-1.41.58-.14,0-.29,0-.43,0-.15,0-.29,0-.44,0q-3.61-.08-4.3-1.08c-.26-.06-.53-.1-.79-.14-.14-.02-.29-.04-.43-.06-.11-.02-.22-.03-.33-.05v-.25Z"/>
    <path class="cls-2" d="M57.03,34.94c.68.03,1.36.06,2.05.09.19,0,.39.02.59.02q.28.01.56.03c.17,0,.34.02.52.02q.44.08.96.58c-.32.92-1.09,1.18-1.73,1.5-.52.14-1.02.2-1.56.25.49-.48.85-.67,1.42-.91.16-.07.31-.13.47-.2.12-.05.24-.1.36-.15v-.25c-.22-.03-.44-.06-.66-.09-.29-.04-.58-.08-.86-.13-.14-.02-.29-.04-.44-.06q-.21-.03-.42-.06c-.13-.02-.26-.04-.39-.06q-.35-.1-.86-.6Z"/>
    <path class="cls-79" d="M107.08,52.21l.17.5c-.33.94-.75,1.67-1.24,2.44-.41.64-.82,1.29-1.21,1.96q-1.08,1.86-2.05,2.11c.48-.69.96-1.38,1.44-2.06q1.61-2.27,2.89-4.95Z"/>
    <path class="cls-10" d="M39.19,33.94l.35.25c-.1.14-.2.28-.3.42-.65.93-1.29,1.87-1.89,2.88-.55.93-1.14,1.69-1.8,2.46,0-1.38.92-2.31,1.56-3.25.36-.47.72-.93,1.09-1.38.35-.43.67-.89.99-1.37Z"/>
    <path class="cls-50" d="M70.54,85.75c-.36.21-.73.42-1.09.63q-.3.17-.61.35-.54.27-1.06.27v.5c-1.1.93-2.02,1.18-3.29,1.25q3.08-2.25,4.33-2.25v-.5c.66-.37,1.05-.56,1.73-.25Z"/>
    <path class="cls-59" d="M33.65,99.77v.5c-.19.03-.38.06-.57.09q-.65.1-1.16.66-.45.06-.99.06c-.2,0-.39,0-.59,0-.2,0-.41,0-.62,0-.2,0-.4,0-.61,0-.98,0-1.93-.04-2.89-.3v-.25c.14,0,.27,0,.41.01.63.02,1.26.03,1.89.04.22,0,.43.01.65.02,1.21.01,2.25-.11,3.4-.65q.39-.16,1.09-.16Z"/>
    <path class="cls-60" d="M77.98,84.25c.72,1.55.55,3.3.55,5.1,0,.54,0,1.09,0,1.63,0,.35,0,.69,0,1.04,0,.31,0,.63,0,.95q-.04.78-.39,1.53c0-.22,0-.45,0-.68,0-.83,0-1.66,0-2.49,0-.36,0-.72,0-1.08,0-.52,0-1.03,0-1.55,0-.31,0-.62,0-.94q0-.78-.19-1.53c-.02-.67,0-1.33,0-2Z"/>
    <path class="cls-76" d="M87.16,41.95c.21.99.1,1.54-.17,2.5q-.17.37-.35.75h-.35l-.17,1.5q-.5.03-1.04,0l-.35-.5h1.21c.02-.17.04-.35.05-.53.14-.85.37-1.53.65-2.3.09-.27.19-.53.29-.81.07-.2.15-.4.22-.61Z"/>
    <path class="cls-15" d="M23.08,91.51q.17.5.08,1.02c-.05.22-.1.43-.15.65-.36,1.79-.32,3.49-.27,5.33-.17-.17-.34-.33-.52-.5-.23-1.78-.08-4.59.62-6.1.08-.14.16-.27.25-.41Z"/>
    <path class="cls-18" d="M42.65,89.01h1.56v.25h-1.39c-.01.24-.03.47-.04.72-.04.26-.09.52-.13.78q-.34.28-.69.5c-.12.33-.24.66-.35,1-.28.52-.57,1.01-.87,1.5l-.35-.25q.16-.27.32-.54c.73-1.27,1.41-2.49,1.93-3.96Z"/>
    <path class="cls-42" d="M55.81,27.43l.35.25c-.08.11-.15.21-.23.32-.86,1.39-.91,2.46-.85,4.29.01.21.02.42.04.64-.34-.41-.5-.63-.59-1.26.01-1.59.2-2.63.97-3.84.1-.13.21-.27.31-.41Z"/>
    <path class="cls-22" d="M90.97,66.98l.35.25c-.11.19-.21.37-.32.57-.14.25-.28.49-.42.75-.14.24-.28.49-.42.74-.31.56-.62,1.12-.91,1.7q-.13-.42-.17-1,.31-.63.75-1.28c.14-.22.28-.43.43-.66.24-.36.48-.71.73-1.06Z"/>
    <path class="cls-38" d="M30.01,84.75l.35.25c-.24.4-.48.79-.73,1.19-.13.22-.27.44-.41.67-.41.62-.82,1.13-1.29,1.65q0-.75.45-1.48c.19-.27.39-.55.58-.82.1-.14.2-.28.3-.42.25-.35.49-.69.74-1.03Z"/>
    <path class="cls-58" d="M46.12,61.22l.35.25c-.2.29-.4.57-.59.86-.2.28-.39.57-.58.86-.11.16-.21.31-.32.47-.1.15-.2.3-.3.45q-.29.36-.81.61c.25-.84.58-1.39,1.03-2.03.12-.17.24-.34.36-.52q.34-.45.86-.95Z"/>
    <path class="cls-46" d="M64.47,88.76c-.06.25-.11.5-.17.75-1.26.17-2.51.33-3.81.5.51-.73,1.11-.75,1.8-.91.13-.03.27-.07.4-.1.61-.15,1.16-.24,1.78-.24Z"/>
    <path class="cls-9" d="M15.11,62.23h.17c.01.24.02.48.03.73.01.32.03.63.04.96q.02.47.04.95c.04.66.1,1.23.23,1.87-.35-.48-.59-.91-.87-1.5q0-.67.05-1.41c.02-.25.03-.49.05-.75q.07-.6.24-.85Z"/>
    <path class="cls-26" d="M90.63,35.94l.35.25c-.24.37-.49.73-.74,1.1-.14.2-.27.41-.41.62-.36.48-.65.77-1.1,1.04.28-1.3.79-2.12,1.59-2.85.1-.05.21-.1.31-.16Z"/>
    <path class="cls-78" d="M89.07,63.73l.69.25c-.19.29-.39.57-.58.86-.11.16-.22.32-.33.48q-.3.41-.65.66l-.17.75h-.35c.26-1.25.79-2.06,1.39-3Z"/>
    <path class="cls-55" d="M83.87,67.73c.17.08.34.17.52.25-.17.17-.34.33-.52.5-.06.25-.11.5-.17.75h-.35c-.01.23-.02.46-.03.7q-.14.8-.58,1.27-.21.14-.42.28c.23-.9.5-1.65.88-2.44.09-.19.18-.39.28-.59q.23-.47.41-.72Z"/>
    <path class="cls-69" d="M19.27,66.48c1.43.08,2.86.17,4.33.25v.25c-1.37.08-2.74.17-4.16.25-.06-.25-.11-.5-.17-.75Z"/>
    <path class="cls-21" d="M34.51,95.02c-1.08.9-1.86,1.42-3.12,1.25.55-.53,1.03-.77,1.66-1.05.2-.09.4-.18.61-.28q.51-.18.85.07Z"/>
    <path class="cls-48" d="M15.81,61.22h2.25v.5q.25-.02.5-.03.54.03.89.53c-.31-.04-.63-.07-.94-.11q-.26-.03-.53-.06-.43-.08-.61-.33c-.26-.06-.53-.1-.79-.14-.14-.02-.29-.04-.43-.06-.11-.02-.22-.03-.33-.05v-.25Z"/>
    <path class="cls-68" d="M92.36,39.2l.35.25c-.22.37-.43.73-.65,1.1-.12.2-.24.41-.37.62-.35.51-.61.78-1.06,1.04.26-.86.6-1.41,1.06-2.07.13-.18.25-.35.38-.54.1-.13.19-.27.29-.4Z"/>
    <path class="cls-47" d="M85.78,97.27v.75h-.35v.5c-.22.17-.45.35-.67.52q-.19.14-.38.29c-.11.06-.22.13-.34.19l-.35-.25c.28-.34.56-.67.84-1,.16-.19.31-.37.47-.56q.41-.44.76-.44Z"/>
    <path class="cls-36" d="M40.23,93.76q0,.75-.41,1.42t-.8.58c-.11.33-.23.66-.35,1-.23-.08-.46-.17-.69-.25.12-.14.24-.27.36-.41.16-.18.31-.36.47-.54.15-.18.31-.35.47-.54.34-.4.65-.8.95-1.26Z"/>
    <path class="cls-32" d="M85.26,91.51l.17.5c-.39,1.31-1.16,2.12-1.91,3l-.35-.25c.12-.17.24-.34.37-.52.16-.23.32-.45.48-.68.16-.22.31-.45.47-.68q.43-.61.76-1.37Z"/>
    <path class="cls-43" d="M76.94,73.74l.35.25c-.46.74-.91,1.49-1.39,2.25-.23-.08-.46-.17-.69-.25.57-.74,1.14-1.49,1.73-2.25Z"/>
    <path class="cls-44" d="M43.34,58.97l.35.25c-.19.33-.38.66-.57.99-.11.18-.21.37-.32.55q-.32.46-.84.71c.29-1.07.82-1.72,1.39-2.5Z"/>
    <path class="cls-66" d="M98.59,58.22c-.75,1.09-1.41,1.19-2.42,1.25.25-.73.59-.78,1.11-1.05.17-.09.34-.18.52-.28q.44-.18.79.07Z"/>
    <path class="cls-37" d="M61.53,77.99c-.27.18-.54.35-.81.52-.15.1-.3.19-.46.29-.52.22-.82.16-1.33-.06v-.25h.87v-.5c.65-.19,1.1-.27,1.73,0Z"/>
    <path class="cls-45" d="M44.56,44.45q.11.46.17,1c-.43.72-.84,1.23-1.39,1.75.31-1.01.76-1.87,1.21-2.75Z"/>
    <path class="cls-67" d="M72.27,35.44c.57.08,1.14.17,1.73.25.06.41.11.83.17,1.25-.66-.36-1.28-.79-1.91-1.25v-.25Z"/>
    <path class="cls-4" d="M72.1,79.25v.5c-.52.59-.87.98-1.54,1.06-.12-.02-.24-.04-.37-.06q1.25-1.5,1.91-1.5Z"/>
    <path class="cls-57" d="M81.79,48.96q.42.09.87.25c.06.17.11.33.17.5-.16,0-.32.01-.49.02q-.55.14-.74.64c-.13.44-.23.89-.33,1.35-.06-.17-.11-.33-.17-.5q.13-.54.34-1.16c.07-.2.13-.41.2-.62.05-.16.1-.31.16-.48Z"/>
    <path class="cls-64" d="M65.51,36.94l.35.25v1.75h-.52q-.17-.25-.21-.86t.38-1.14Z"/>
    <path class="cls-61" d="M61.88,90.01h-.35v.5h-1.91c.06-.17.11-.33.17-.5q1.4-.37,2.08,0Z"/>
    <path class="cls-49" d="M72.27,84v.5q-.89,1.02-1.45.94c-.09-.06-.19-.12-.28-.19h.35v-.5q1-.75,1.39-.75Z"/>
    <path class="cls-17" d="M74.69,60.22q.17.5.08,1.1c-.32.85-.72,1.18-1.29,1.66.31-1.01.76-1.87,1.21-2.75Z"/>
    <path class="cls-65" d="M100.67,55.72l.35.25q-.27.61-.69,1.25-.65.2-1.21.25c.51-.6,1.03-1.19,1.56-1.75Z"/>
    <path class="cls-27" d="M65.86,36.94h.17c.06,1.07.11,2.15.17,3.25q-.52-.75-.58-1.31c0-.2,0-.4.01-.6,0-.2,0-.4,0-.6q.04-.49.21-.74Z"/>
    <path class="cls-69" d="M82.83,100.52l-.35.75q-.45.13-.97.17-.26.02-.53.05t-.4.03c.42-.41.76-.67,1.22-.92.12-.07.24-.14.36-.21q.32-.12.67.13Z"/>
    <path class="cls-54" d="M45.08,89.76c.72-.02,1.38,0,2.08.25q-.35.5-.75.55c-.46-.05-.88-.15-1.33-.3v-.5Z"/>
    <path class="cls-8" d="M24.99,77.99c.7.31,1.29.68,1.91,1.25q-.35.25-.68.14c-.12-.07-.25-.13-.37-.2-.12-.06-.25-.13-.37-.19q-.31-.25-.48-1Z"/>
    <path class="cls-51" d="M79.37,69.98c0,.91-.15,1.27-.52,2q-.38.33-.69.5c.29-.99.73-1.7,1.21-2.5Z"/>
    <path class="cls-63" d="M43.69,64.73q.13.41.17,1-.31.81-.69,1.5h-.35c.2-.98.41-1.72.87-2.5Z"/>
    <path class="cls-52" d="M68.11,53.96l.35.25q-.89,1.64-1.56,2c.27-.96.7-1.55,1.21-2.25Z"/>
    <path class="cls-5" d="M95.13,37.69c-.51.41-1.03.83-1.56,1.25-.11-.17-.23-.33-.35-.5q1.13-1.03,1.91-.75Z"/>
    <path class="cls-72" d="M55.81,27.43l.35.25-1.04,2c-.06-.33-.11-.66-.17-1q.42-.69.87-1.25Z"/>
    <path class="cls-77" d="M76.94,62.98l.17,1q-.51.62-1.04,1.25c0-1.1.37-1.44.87-2.25Z"/>
    <path class="cls-16" d="M46.02,57.03c.09.06.18.12.27.19q-1.11,1.02-1.63.94c-.09-.06-.18-.12-.27-.19q1.11-1.02,1.63-.94Z"/>
    <path class="cls-75" d="M39.19,89.01c.11.25.23.5.35.75q-.51.62-1.04,1.25c0-.98.26-1.28.69-2Z"/>
    <path class="cls-62" d="M75.56,58.22h.35q-.26,1.42-.71,1.85-.16.08-.32.16c.19-.74.39-1.34.69-2Z"/>
    <path class="cls-53" d="M63.78,54.97q.17.5.05,1.13c-.25.7-.42.86-.92,1.13.22-.87.46-1.54.87-2.25Z"/>
    <path class="cls-35" d="M99.98,45.95c.11.25.23.5.35.75q-.3.52-.69,1-.39-.06-.69-.25c.14-.15.28-.31.42-.47q.45-.47.62-1.03Z"/>
    <path class="cls-28" d="M51.14,21.42l1.39.25c-.68.65-1.29.54-2.08.5.23-.08.46-.17.69-.25v-.5Z"/>
    <path class="cls-70" d="M83.87,57.22c.16.65.2.91.01,1.56q-.09.22-.18.44-.18-.45-.35-1c.06-.25.11-.5.17-.75l.35-.25Z"/>
    <path class="cls-23" d="M67.25,73.99h1.04c-.49.81-.81,1.13-1.56,1.25.06-.17.11-.33.17-.5h.35v-.75Z"/>
    <path class="cls-11" d="M34.17,41.95c.11.25.23.5.35.75-.29.33-.57.66-.87,1,0-.88.14-1.09.52-1.75Z"/>
    <path class="cls-24" d="M37.11,36.69q.36.11.69.25c-.22.34-.45.68-.69,1h-.35q.15-.97.35-1.25Z"/>
  </g>
</svg>